<?xml version="1.0" encoding="utf-8"?>
<!-- Generator: Adobe Illustrator 26.0.1, SVG Export Plug-In . SVG Version: 6.00 Build 0)  -->
<svg version="1.1" id="Layer_1" xmlns="http://www.w3.org/2000/svg" xmlns:xlink="http://www.w3.org/1999/xlink" x="0px" y="0px"
	 width="361px" height="333px" viewBox="0 0 361 333" style="enable-background:new 0 0 361 333;" xml:space="preserve">
<style type="text/css">
	.st0{fill:#5F22D9;}
	.st1{fill:#FFFFFF;}
	.st2{fill:#9285F4;}
	.st3{display:none;fill:#FEFEFE;}
	.st4{display:none;fill:#FDFDFD;}
</style>
<rect x="-593.3" y="-225.7" class="st0" width="320.2" height="229.8"/>
<rect x="-584.1" y="82.2" class="st1" width="320.2" height="229.8"/>
<rect x="-574.9" y="397.8" class="st2" width="320.2" height="229.8"/>
<g>
	<path class="st3" d="M238.5,352.7c-87.1,0-174.2,0-261.3,0c0-123.1,0-246.3-0.1-369.4c0-2.7,0.6-3.3,3.3-3.3
		c123.4,0.1,246.8,0.1,370.1,0c2.7,0,3.3,0.6,3.3,3.3c-0.1,122-0.1,244.1,0,366.1c0,2.7-0.6,3.3-3.3,3.3
		c-34.7-0.1-69.4-0.1-104.2-0.1c4-1.5,8-2.8,11.1-6c4-4.1,8.2-7.9,12-12.1c8.3-9,8.3-20.6-0.4-29.2c-17.8-17.6-35.3-35.4-53.2-52.9
		c-28.5-27.7-56.2-56.3-84.8-83.9c-1.5-1.5-1.5-2.3,0-3.7c6.8-6.3,13.3-13,20-19.4c23.5-22.6,45.9-46.4,69.6-68.8
		c9.8-9.2,19-18.9,28.5-28.5c7.2-7.2,14.5-14.2,21.4-21.7s7-18.5,0.4-26.2c-4.3-4.9-8.9-9.6-13.7-14c-8.8-7.9-20-7.6-28.7,0.6
		C221-6.1,213.6,1.2,206.1,8.4c-19.8,19.3-39.1,39.2-58.9,58.5c-28.5,27.7-56.2,56.2-84.8,84c-9.9,9.6-9.8,21.6,0,31.3
		c6.5,6.5,13.1,12.8,19.7,19.2c23.5,22.6,46,46.3,69.6,68.9c23,22,44.6,45.3,67.8,67C225.5,343.1,230.6,349.6,238.5,352.7z"/>
</g>
<g>
	<path class="st4" d="M360.9,173.9c0,58.2,0,116.4,0.1,174.7c0,2.4-0.5,2.8-2.8,2.8c-116.3-0.1-232.5-0.1-348.8,0
		c-2.7,0-2.9-0.8-2.9-3.1c0.1-116.6,0.1-233.1,0-349.7c0-2.5,0.5-3,3-3c116.1,0.1,232.3,0.1,348.4,0c2.8,0,3.1,0.8,3.1,3.3
		C360.9,57.2,360.9,115.5,360.9,173.9z M183.3,59c-36.3,0-72.5,0-108.8,0c-5.2,0-10.3,0.4-15.3,1.9c-20.8,6.3-34.1,24.4-34.1,46.9
		c-0.1,29.6,0,59.2,0,88.7c0,15.5-0.4,31.1,0.2,46.6c0.7,17.9,10.5,30.6,25.2,39.8c7.1,4.4,15.2,5.7,23.5,5.7c73,0,146,0,219,0
		c10.9,0,20.8-2.8,29.5-9.9c12.3-10.1,19.2-22.7,19.3-38.7c0.1-44.1,0-88.2,0-132.2c0-7-1.1-13.8-4.1-20.1
		c-8.8-18.7-23.8-28.5-44.5-28.6C256.6,58.9,220,59,183.3,59z"/>
	<path class="st1" d="M183.3,59c36.6,0,73.2-0.1,109.8,0c20.8,0.1,35.7,9.9,44.5,28.6c3,6.3,4.1,13.1,4.1,20.1
		c0,44.1,0,88.2,0,132.2c0,16-6.9,28.6-19.3,38.7c-8.7,7.2-18.6,9.9-29.5,9.9c-73,0-146,0-219,0c-8.3,0-16.4-1.3-23.5-5.7
		c-14.7-9.1-24.5-21.9-25.2-39.8c-0.6-15.5-0.2-31.1-0.2-46.6c0-29.6-0.1-59.2,0-88.7C25.1,85.4,38.5,67.2,59.2,61
		c5-1.5,10.1-2,15.3-1.9C110.8,59,147.1,59,183.3,59z M89.5,174.3C82,183,77.8,193,76.7,204.5c-0.9,9.7,2.6,17.1,10.6,22.4
		c2.2,1.5,4.6,2.6,7,3.6c6.7,2.8,13.8,4.3,21,5.2c16.2,1.8,32.2,0.9,47.5-5.2c11.1-4.4,19.6-12.2,17.2-28.5
		c-1.6-10.5-5.6-19.7-12.7-27.7C147.1,199.7,109.8,199.8,89.5,174.3z M162.1,144.9c0-18.7-15.2-33.9-33.8-33.7
		c-18.5,0.1-33.5,15.1-33.6,33.6c-0.1,18.7,15,33.8,33.6,33.9C147.1,178.7,162.1,163.6,162.1,144.9z M246.3,184.9
		c10.7,0,21.4,0,32.1,0c6.9,0,12-4.8,11.9-11.1c0-6.3-5.1-11-12.1-11c-21.5,0-43,0-64.5,0c-7,0-11.9,4.6-11.8,11.1
		c0,6.4,4.9,11,12,11C224.7,184.9,235.5,184.9,246.3,184.9z M246.1,207c-10.7,0-21.4,0-32.1,0c-7.3,0-12.2,4.5-12.1,11.1
		c0,6.4,4.9,11,12,11c21.4,0,42.8,0,64.1,0c7.2,0,12.3-4.7,12.3-11.1c-0.1-6.5-5.1-10.9-12.4-11C267.3,207,256.7,207,246.1,207z
		 M227.5,118.6c-4.7,0-9.4,0-14.1,0c-6.7,0.1-11.5,4.7-11.5,11.1c0,6.2,4.8,10.9,11.3,10.9c9.5,0.1,19.1,0.1,28.6,0
		c6.7,0,11.5-4.8,11.5-11.1c0-6.3-4.9-10.9-11.7-10.9C236.9,118.6,232.2,118.6,227.5,118.6z"/>
	<path class="st0" d="M89.5,174.3c20.3,25.5,57.6,25.4,77.8,0c7.1,8,11.1,17.2,12.7,27.7c2.4,16.3-6.2,24.1-17.2,28.5
		c-15.3,6.1-31.3,7-47.5,5.2c-7.2-0.8-14.3-2.3-21-5.2c-2.4-1-4.8-2.2-7-3.6c-8-5.3-11.5-12.7-10.6-22.4C77.8,193,82,183,89.5,174.3
		z"/>
	<path class="st0" d="M162.1,144.9c0,18.7-15,33.8-33.7,33.7c-18.7,0-33.7-15.2-33.6-33.9c0.1-18.5,15-33.5,33.6-33.6
		C146.9,111.1,162.1,126.3,162.1,144.9z"/>
	<path class="st0" d="M246.3,184.9c-10.8,0-21.6,0-32.4,0c-7,0-11.9-4.6-12-11c0-6.5,4.8-11.1,11.8-11.1c21.5,0,43,0,64.5,0
		c7,0,12,4.6,12.1,11c0,6.3-5,11.1-11.9,11.1C267.7,184.9,257,184.9,246.3,184.9z"/>
	<path class="st0" d="M246.1,207c10.6,0,21.1,0,31.7,0c7.3,0,12.4,4.5,12.4,11c0.1,6.4-5.1,11.1-12.3,11.1c-21.4,0-42.8,0-64.1,0
		c-7,0-11.9-4.5-12-11c0-6.6,4.8-11.1,12.1-11.1C224.7,207,235.4,207,246.1,207z"/>
	<path class="st0" d="M227.5,118.6c4.7,0,9.4,0,14.1,0c6.8,0.1,11.6,4.6,11.7,10.9c0,6.4-4.8,11.1-11.5,11.1
		c-9.5,0.1-19.1,0.1-28.6,0c-6.5,0-11.3-4.7-11.3-10.9c0-6.4,4.7-11,11.5-11.1C218.1,118.6,222.8,118.6,227.5,118.6z"/>
</g>
</svg>
