<?xml version="1.0" encoding="utf-8"?>
<!-- Generator: Adobe Illustrator 26.0.1, SVG Export Plug-In . SVG Version: 6.00 Build 0)  -->
<svg version="1.1" id="Layer_1" xmlns="http://www.w3.org/2000/svg" xmlns:xlink="http://www.w3.org/1999/xlink" x="0px" y="0px"
	 width="398px" height="357px" viewBox="0 0 398 357" style="enable-background:new 0 0 398 357;" xml:space="preserve">
<style type="text/css">
	.st0{fill:#5F22D9;}
	.st1{fill:#FFFFFF;}
	.st2{fill:#9285F4;}
	.st3{display:none;fill:#FDFDFD;}
</style>
<rect x="-521.3" y="-231.7" class="st0" width="320.2" height="229.8"/>
<rect x="-512.1" y="76.2" class="st1" width="320.2" height="229.8"/>
<rect x="-502.9" y="391.8" class="st2" width="320.2" height="229.8"/>
<g>
	<path class="st3" d="M20.6,178.6c0-61.7,0-123.4-0.1-185.1c0-2.6,0.7-3,3.1-3c117,0.1,233.9,0.1,350.9,0c2.4,0,3.1,0.4,3.1,3
		c-0.1,123.3-0.1,246.6,0,369.9c0,2.7-0.7,3.1-3.3,3.1c-116.8-0.1-233.7-0.1-350.5,0c-2.5,0-3.2-0.5-3.2-3.2
		C20.6,301.8,20.6,240.2,20.6,178.6z M39.2,147.2c0,29.9,0.3,59.9-0.2,89.8c-0.2,12.5,5.6,20.5,15.3,26.7
		c8.2,5.2,17.5,8.3,26.7,10.9c19,5.3,38.7,7.2,58.3,8.3c1.9,0.1,3.3,0.3,4.1,2.3c2.5,6.4,6.9,11.8,11,17.1
		c8.2,10.7,18.4,19.6,29.7,27.1c10,6.7,21.3,11.1,32.9,13.9c19.6,4.8,39.3,4.9,58.6-2.1c10.4-3.8,20.7-7.4,29.7-14.3
		c5.9-4.6,12-8.8,17.3-14.3c8.1-8.4,15-17.5,20.5-27.8c12.5-23.1,17-47.8,14.2-73.8c-3.3-30.4-16.4-56.1-38.5-77
		c-9.3-8.8-19.9-16.2-32-20.7c-2.3-0.9-2.8-2-2.8-4.3c0.1-18-0.1-36,0.1-53.9c0.1-8.8-3.7-15.6-10.2-21c-5.8-4.8-12.7-8-19.6-10.7
		c-20.7-8.1-42.7-10.1-64.4-12.3C169.3,9,148.6,8.9,128,11.9c-10.9,1.6-21.8,2.5-32.7,4.4c-15,2.6-29.3,6.9-42.3,15.1
		C43.9,37.2,39,45,39.1,56.3C39.4,86.6,39.2,116.9,39.2,147.2z"/>
	<path class="st1" d="M39.2,147.2c0-30.3,0.2-60.6-0.1-90.8C39,45,43.9,37.2,53,31.4c13-8.2,27.3-12.5,42.3-15.1
		c10.8-1.9,21.8-2.8,32.7-4.4c20.6-3,41.4-2.9,61.9-0.8c21.8,2.2,43.8,4.2,64.4,12.3c6.9,2.7,13.7,5.9,19.6,10.7
		c6.5,5.4,10.3,12.2,10.2,21c-0.2,18,0,36-0.1,53.9c0,2.3,0.5,3.4,2.8,4.3c12.1,4.6,22.7,12,32,20.7c22.1,20.9,35.2,46.6,38.5,77
		c2.8,26-1.7,50.7-14.2,73.8c-5.5,10.2-12.4,19.4-20.5,27.8c-5.3,5.4-11.3,9.7-17.3,14.3c-8.9,6.9-19.3,10.6-29.7,14.3
		c-19.4,7-39,6.9-58.6,2.1c-11.6-2.8-22.8-7.3-32.9-13.9c-11.3-7.5-21.4-16.4-29.7-27.1c-4.1-5.4-8.5-10.7-11-17.1
		c-0.8-2-2.3-2.2-4.1-2.3c-19.7-1.2-39.3-3-58.3-8.3c-9.2-2.6-18.5-5.7-26.7-10.9c-9.7-6.1-15.5-14.2-15.3-26.7
		C39.5,207,39.2,177.1,39.2,147.2z M335.8,225.2c0.2-18-4.4-34.8-13.2-50.5c-5.8-10.3-13.6-19.1-22.5-26.9
		c-6.7-5.9-14.6-10.4-22.7-13.6c-24.4-9.5-48.8-9.9-72.7,2.2c-7.7,3.9-15,8.2-21.5,14.2c-9.4,8.6-16.9,18.5-22.6,29.9
		c-5.7,11.3-8.9,23.3-9.9,35.9c-2.1,26.3,4.9,50.2,20.9,71.1c9.4,12.2,21.4,21.9,35.5,27.7c25.4,10.5,50.9,10.8,75.9-2.3
		c7.5-3.9,14.5-8.2,20.7-14.1c8.6-8.1,15.6-17.2,21-27.7C332.3,256.8,335.8,241.4,335.8,225.2z M61.4,112.9c0,9.4,0.1,18.8-0.1,28.2
		c-0.1,3.4,0.4,6.2,3.4,8.4c1.5,1.1,3.1,1.9,4.8,2.6c13.2,6.1,27.6,7.9,41.6,11c9.5,2.1,19.3,2.3,29,2.9c2.2,0.1,3.3-0.5,4.3-2.4
		c6.2-12.2,15-22.3,25-31.4c4.8-4.4,10.2-8.3,15.7-11.8c10.8-6.9,22.8-11,35-14.1c12.9-3.3,26.2-3.1,39.3-0.9c1.8,0.3,2.4-0.1,2.4-2
		c-0.1-6,0-12.1-0.1-18.1c0-1.8,0.4-3.6-0.3-5.4c-1.4,0.7-2.7,1.4-4.1,2c-0.7,0.3-1.5,0.6-2.3,0.9c-16.5,6.5-33.9,9.2-51.2,11.3
		c-29.8,3.6-59.7,4.1-89.5-1c-9.6-1.6-19.2-2.8-28.7-5.1c-7.4-1.8-15-3.4-21.7-7.1c-3.4-1.9-2.8-0.4-2.8,1.7
		C61.5,92.7,61.4,102.8,61.4,112.9z M164.4,72.7c20.8-0.7,44.6-1.1,67.8-7.7c7.6-2.2,15.2-3.9,22.3-7.4c2.5-1.3,6.5-2.2,6.3-5.1
		c-0.1-2.5-4-3.4-6.5-4.5c-11.3-5.2-23.6-7-35.5-9.9c-9.1-2.3-18.5-2.9-27.9-3.4c-30.5-1.6-61-2.2-91.1,4.7
		c-10.6,2.4-21.3,4.5-31.2,9.2c-2.5,1.2-6.3,2.2-6.2,5.2c0.1,2.6,3.8,3.2,6.2,4.3c9.5,4.6,19.8,6.7,29.9,9
		C119.3,71.7,140.4,72.6,164.4,72.7z M132.6,258.6c-0.1-0.7-0.1-1.2-0.2-1.6c-5.7-21.6-5.6-43.3,0.3-64.8c0.9-3.3,0-3.8-3-4
		c-14.3-0.9-28.5-2.9-42.6-6c-8.7-1.9-17.3-4.4-25.3-8.8c-0.2,0.7-0.4,1-0.4,1.3c0,21.4,0,42.9-0.1,64.3c0,1.8,0.9,2.8,2.2,3.6
		c4,2.4,8,4.8,12.5,6.2c8.3,2.5,16.7,4.5,25.3,6C111.7,256.6,122,257.8,132.6,258.6z"/>
	<path class="st0" d="M335.8,225.2c-0.1,16.2-3.5,31.6-11,46.1c-5.4,10.5-12.4,19.6-21,27.7c-6.2,5.9-13.3,10.2-20.7,14.1
		c-24.9,13.1-50.5,12.8-75.9,2.3c-14.1-5.8-26.1-15.5-35.5-27.7c-16.1-20.9-23-44.8-20.9-71.1c1-12.6,4.2-24.6,9.9-35.9
		c5.7-11.4,13.2-21.3,22.6-29.9c6.5-5.9,13.8-10.2,21.5-14.2c23.9-12.1,48.3-11.7,72.7-2.2c8.1,3.2,16,7.7,22.7,13.6
		c8.9,7.8,16.7,16.6,22.5,26.9C331.4,190.4,336,207.2,335.8,225.2z M267.4,276.1c3.1,0.1,5.7-0.5,7.4-2.5c4.9-6,10.7-11,15.8-16.8
		c7-7.9,14.6-15.1,21.8-22.7c4.6-4.8,4.7-12.8,0.2-17.7c-4.5-4.8-9.1-9.5-13.6-14.2c-8.2-8.3-15.8-17.2-24.3-25.2
		c-1.7-1.6-3.5-2.5-5.6-2.7c-5.5-0.4-7.7,1.1-11,6.6c-2.3,3.8-1.4,10,1.7,13.3c5.1,5.5,10.3,10.9,15.5,16.3
		c4.2,4.4,8.4,8.9,12.6,13.3c1,1,1.2,1.6,0.1,2.8c-3.7,3.8-7.3,7.7-10.9,11.5c-5.7,6-11.6,11.9-17.2,18c-3.4,3.7-4,8.4-2,12.9
		C259.7,273.1,262.5,276.4,267.4,276.1z M218.2,174.2c-2.5,0.2-4.6,0.8-6.7,2.8c-7.7,7.3-14.7,15.3-22.1,23
		c-5.3,5.5-10.6,10.9-15.8,16.4c-4.4,4.6-4.6,12.6-0.3,17.1c4.6,4.9,9.3,9.6,13.8,14.5c7.4,8.1,15.2,15.8,22.9,23.7
		c0.3,0.3,0.8,0.6,1,1c1.2,2.4,3.4,2.9,5.7,3.3c5.3,0.7,8.7-1.2,11.5-6.3c2.2-4.1,1.5-10.2-1.7-13.6c-4-4.3-8.2-8.4-12.1-12.8
		c-5.1-5.6-10.7-10.8-15.7-16.5c-1-1.1-1.5-1.7-0.2-3c4.5-4.5,8.8-9.2,13.1-13.8c5-5.3,10.1-10.4,15-15.8c3.4-3.8,4-8.5,1.9-12.9
		C226.4,177.2,223.4,173.9,218.2,174.2z"/>
	<path class="st0" d="M61.4,112.9c0-10.1,0-20.2,0-30.3c0-2.1-0.7-3.6,2.8-1.7c6.7,3.6,14.3,5.3,21.7,7.1c9.5,2.3,19.1,3.4,28.7,5.1
		c29.8,5,59.7,4.6,89.5,1c17.3-2.1,34.7-4.8,51.2-11.3c0.8-0.3,1.5-0.5,2.3-0.9c1.4-0.6,2.7-1.3,4.1-2c0.7,1.8,0.3,3.6,0.3,5.4
		c0.1,6-0.1,12.1,0.1,18.1c0,2-0.6,2.3-2.4,2c-13.2-2.1-26.4-2.3-39.3,0.9c-12.2,3.1-24.3,7.2-35,14.1c-5.5,3.5-10.8,7.4-15.7,11.8
		c-10,9.1-18.9,19.2-25,31.4c-1,1.9-2.2,2.6-4.3,2.4c-9.7-0.7-19.5-0.8-29-2.9c-14-3.1-28.4-4.9-41.6-11c-1.7-0.8-3.3-1.6-4.8-2.6
		c-3-2.1-3.5-4.9-3.4-8.4C61.6,131.7,61.4,122.3,61.4,112.9z"/>
	<path class="st0" d="M164.4,72.7c-24.1-0.2-45.2-1.1-65.8-5.7c-10.1-2.2-20.4-4.4-29.9-9c-2.3-1.1-6.1-1.8-6.2-4.3
		c-0.1-3.1,3.7-4.1,6.2-5.2c9.9-4.7,20.6-6.8,31.2-9.2c30.1-6.9,60.6-6.4,91.1-4.7c9.4,0.5,18.8,1.2,27.9,3.4
		c11.9,3,24.2,4.8,35.5,9.9c2.5,1.1,6.4,2,6.5,4.5c0.1,2.9-3.8,3.9-6.3,5.1c-7.1,3.5-14.8,5.3-22.3,7.4
		C209,71.7,185.2,72.1,164.4,72.7z"/>
	<path class="st0" d="M132.6,258.6c-10.6-0.8-20.9-2-31.1-3.8c-8.5-1.5-17-3.5-25.3-6c-4.6-1.4-8.5-3.8-12.5-6.2
		c-1.3-0.8-2.2-1.8-2.2-3.6c0.1-21.4,0-42.9,0.1-64.3c0-0.3,0.2-0.6,0.4-1.3c8,4.4,16.5,6.9,25.3,8.8c14,3.1,28.2,5.1,42.6,6
		c3,0.2,3.9,0.7,3,4c-5.9,21.6-6.1,43.2-0.3,64.8C132.5,257.4,132.5,257.9,132.6,258.6z"/>
	<path class="st1" d="M267.4,276.1c-4.8,0.4-7.7-2.9-9.5-7.1c-2.1-4.6-1.4-9.2,2-12.9c5.6-6.1,11.5-12,17.2-18
		c3.7-3.8,7.2-7.8,10.9-11.5c1.1-1.1,0.9-1.7-0.1-2.8c-4.3-4.4-8.4-8.8-12.6-13.3c-5.2-5.4-10.4-10.8-15.5-16.3
		c-3.1-3.3-4.1-9.5-1.7-13.3c3.3-5.4,5.5-7,11-6.6c2.2,0.2,3.9,1.1,5.6,2.7c8.5,8,16.1,16.9,24.3,25.2c4.6,4.7,9.2,9.4,13.6,14.2
		c4.5,4.9,4.4,12.9-0.2,17.7c-7.3,7.6-14.9,14.9-21.8,22.7c-5.1,5.8-10.9,10.8-15.8,16.8C273.1,275.6,270.4,276.2,267.4,276.1z"/>
	<path class="st1" d="M218.2,174.2c5.2-0.3,8.2,2.9,10.1,7c2.1,4.5,1.5,9.2-1.9,12.9c-4.9,5.4-10,10.5-15,15.8
		c-4.4,4.6-8.7,9.3-13.1,13.8c-1.3,1.3-0.8,1.9,0.2,3c5,5.7,10.7,10.9,15.7,16.5c3.9,4.4,8.1,8.5,12.1,12.8
		c3.2,3.4,3.9,9.6,1.7,13.6c-2.8,5.1-6.2,7-11.5,6.3c-2.3-0.3-4.5-0.9-5.7-3.3c-0.2-0.4-0.6-0.7-1-1c-7.6-7.9-15.4-15.6-22.9-23.7
		c-4.5-4.9-9.3-9.6-13.8-14.5c-4.2-4.5-4-12.5,0.3-17.1c5.3-5.5,10.6-11,15.8-16.4c7.4-7.6,14.3-15.7,22.1-23
		C213.6,175,215.7,174.4,218.2,174.2z"/>
</g>
</svg>
