<?xml version="1.0" encoding="utf-8"?>
<!-- Generator: Adobe Illustrator 26.0.1, SVG Export Plug-In . SVG Version: 6.00 Build 0)  -->
<svg version="1.1" id="Layer_1" xmlns="http://www.w3.org/2000/svg" xmlns:xlink="http://www.w3.org/1999/xlink" x="0px" y="0px"
	 width="383.9px" height="290.5px" viewBox="0 0 383.9 290.5" style="enable-background:new 0 0 383.9 290.5;" xml:space="preserve"
	>
<style type="text/css">
	.st0{fill:#FFFFFF;}
	.st1{display:none;fill:#FEFEFE;}
	.st2{fill:#5F22D9;}
	.st3{fill:#5F22D9;stroke:#000000;stroke-miterlimit:10;}
	.st4{fill:#FFFFFF;stroke:#000000;stroke-miterlimit:10;}
	.st5{fill:#9285F4;stroke:#000000;stroke-miterlimit:10;}
</style>
<g>
	<path class="st0" d="M383.9,37.5c0,71.1,0,142.2,0,213.3c-0.8,0.2-0.7,0.9-0.8,1.5c-4.3,20.6-22.7,35.6-46.4,35.4
		c-49.2-0.5-98.4-0.2-147.6-0.2c-48.2,0-96.4,0-144.7,0c-20.7,0-37.8-13.4-43-33.4c-0.3-1.1,0-2.6-1.3-3.3c0-71.3,0-142.7,0-214
		c1.3-0.9,1.1-2.4,1.4-3.6c5-19.2,22.3-33,42.1-33C142.5,0,241.4-0.1,340.3,0.1c17.9,0,30.9,9,39.2,24.9
		C381.6,29,382.1,33.4,383.9,37.5z M120,223.6c19.5,0,39,0,58.5,0c8.7,0,13.4-4.8,13.5-13.4c0-2,0-4,0-6
		c-0.1-24.8-19.1-44.2-43.9-44.5c-18.7-0.2-37.5-0.2-56.2,0c-14.8,0.2-26.8,6.4-35.5,18.3c-5.7,7.8-7.9,16.6-8.4,26.2
		c-0.8,16.7,5.3,19.8,19.3,19.5C84.8,223.2,102.4,223.6,120,223.6z M80.1,103.6c-0.1,21.9,17.5,39.9,39.4,40.1
		c22.1,0.3,40.1-17.4,40.4-39.5c0.3-22.1-17.8-40.4-39.9-40.4C98,63.9,80.2,81.7,80.1,103.6z M279.6,159.6c14.5,0,29,0,43.4,0
		c7.4,0,12.7-5,12.8-11.7c0.1-6.9-5.3-12.2-12.8-12.2c-28.7-0.1-57.4,0-86.1,0c-3.1,0-5.9,0.7-8.4,2.6c-3.9,3.1-5.5,8.4-4,13.1
		c1.6,4.9,5.9,8.2,11.3,8.2C250.4,159.7,265,159.6,279.6,159.6z M280.2,199.7C280.2,199.6,280.2,199.6,280.2,199.7
		c-14.5,0-29-0.1-43.4,0c-7.6,0-12.6,4.8-12.7,11.7c-0.1,7,5.2,12.2,12.8,12.2c28.7,0.1,57.4,0,86.1,0c2.5,0,5-0.5,7.2-1.8
		c4.4-2.7,6.7-8,5.6-12.8c-1.3-5.4-5.9-9.2-11.6-9.3C309.4,199.6,294.8,199.7,280.2,199.7z M279.8,95.8c14.2,0,28.5,0,42.7,0
		c7.9,0,13.4-4.9,13.4-11.9c0-7.1-5.4-12-13.3-12c-28.5,0-56.9,0-85.4,0c-1.4,0-2.8,0-4.1,0.4c-6.1,1.5-9.7,6.9-9,13.2
		c0.6,5.7,5.7,10.3,11.9,10.3C250.6,95.9,265.2,95.8,279.8,95.8z"/>
	<path class="st1" d="M383.9,37.5c-1.8-4-2.3-8.5-4.3-12.4c-8.3-15.9-21.3-24.8-39.2-24.9C241.4-0.1,142.5,0,43.5,0.1
		c-19.9,0-37.2,13.8-42.1,33c-0.3,1.2-0.1,2.7-1.4,3.6C0,9.2,0-18.4,0-45.9c0-2.1,0.2-2.7,2.6-2.7c126.2,0.1,252.5,0.1,378.7,0
		c2.4,0,2.6,0.7,2.6,2.7C383.8-18.1,383.9,9.7,383.9,37.5z"/>
	<path class="st1" d="M0,250.7c1.3,0.7,1,2.2,1.3,3.3c5.2,19.9,22.3,33.4,43,33.4c48.2,0.1,96.4,0,144.7,0
		c49.2,0,98.4-0.4,147.6,0.2c23.7,0.3,42.1-14.7,46.4-35.4c0.1-0.6,0-1.3,0.8-1.5c0,27.3,0,54.6,0.1,81.9c0,2.2-0.5,2.7-2.7,2.7
		c-126.2-0.1-252.4-0.1-378.6,0c-2.2,0-2.7-0.4-2.7-2.7C0,305.3,0,278,0,250.7z"/>
	<path class="st2" d="M120,223.6c-17.6,0-35.2-0.4-52.8,0.1c-14,0.4-20.1-2.8-19.3-19.5c0.5-9.6,2.7-18.5,8.4-26.2
		c8.8-11.9,20.8-18.1,35.5-18.3c18.7-0.3,37.5-0.2,56.2,0c24.8,0.3,43.8,19.7,43.9,44.5c0,2,0,4,0,6c0,8.6-4.8,13.4-13.5,13.4
		C159,223.6,139.5,223.6,120,223.6z"/>
	<path class="st2" d="M80.1,103.6c0.1-21.9,18-39.7,39.9-39.7c22.1,0,40.2,18.2,39.9,40.4c-0.3,22.1-18.3,39.7-40.4,39.5
		C97.6,143.4,79.9,125.4,80.1,103.6z"/>
	<path class="st2" d="M279.6,159.6c-14.6,0-29.2,0.1-43.8,0c-5.4,0-9.7-3.3-11.3-8.2c-1.5-4.7,0.1-10,4-13.1
		c2.5-1.9,5.3-2.6,8.4-2.6c28.7,0,57.4,0,86.1,0c7.6,0,12.9,5.2,12.8,12.2c-0.1,6.8-5.4,11.7-12.8,11.7
		C308.6,159.7,294.1,159.6,279.6,159.6z"/>
	<path class="st2" d="M280.2,199.7c14.6,0,29.2-0.1,43.8,0c5.8,0,10.3,3.8,11.6,9.3c1.2,4.8-1.1,10.1-5.6,12.8
		c-2.2,1.3-4.6,1.8-7.2,1.8c-28.7,0-57.4,0-86.1,0c-7.6,0-12.8-5.2-12.8-12.2c0.1-6.9,5.2-11.7,12.7-11.7
		C251.2,199.6,265.7,199.6,280.2,199.7C280.2,199.6,280.2,199.6,280.2,199.7z"/>
	<path class="st2" d="M279.8,95.8c-14.6,0-29.2,0.1-43.8,0c-6.2,0-11.2-4.6-11.9-10.3c-0.7-6.3,2.9-11.7,9-13.2
		c1.3-0.3,2.7-0.4,4.1-0.4c28.5,0,56.9,0,85.4,0c7.9,0,13.4,4.9,13.3,12c0,7-5.5,11.9-13.4,11.9C308.2,95.8,294,95.8,279.8,95.8z"/>
</g>
<rect x="-497.5" y="-46.6" class="st3" width="139.5" height="94.7"/>
<rect x="-493.5" y="80.2" class="st4" width="139.5" height="94.7"/>
<rect x="-489.5" y="210.3" class="st5" width="139.5" height="94.7"/>
</svg>
