<?xml version="1.0" encoding="utf-8"?>
<!-- Generator: Adobe Illustrator 26.0.1, SVG Export Plug-In . SVG Version: 6.00 Build 0)  -->
<svg version="1.1" id="Layer_1" xmlns="http://www.w3.org/2000/svg" xmlns:xlink="http://www.w3.org/1999/xlink" x="0px" y="0px"
	 width="457px" height="357px" viewBox="0 0 457 357" style="enable-background:new 0 0 457 357;" xml:space="preserve">
<style type="text/css">
	.st0{fill:#5F22D9;}
	.st1{fill:#FFFFFF;}
	.st2{fill:#9285F4;}
	.st3{display:none;fill:#FDFDFD;}
	.st4{display:none;fill:#FEFEFE;}
</style>
<rect x="-521.3" y="-231.7" class="st0" width="320.2" height="229.8"/>
<rect x="-512.1" y="76.2" class="st1" width="320.2" height="229.8"/>
<rect x="-502.9" y="391.8" class="st2" width="320.2" height="229.8"/>
<g>
	<path class="st1" d="M430.6,12.2c0,101.3,0,202.5,0,303.8c-17.5,0-35.1,0.1-52.6,0.1c-2.5,0-3.2,0.7-3.2,3.2
		c0.1,9.8,0,19.6,0.1,29.5c0,2.4-0.1,3.4-3.1,2.5c-12.8-4.1-25.7-8-38.4-12.1c-3.1-1-5.9-1-9.1,0c-9.4,3.2-18.9,6.1-28.4,9
		c-4.2,1.3-8.4,2.5-12.9,3.8c0-10.7-0.1-21.2,0.1-31.6c0.1-3.4-0.8-4.3-4.3-4.3c-82.6,0.1-165.3,0.1-247.9,0.1c-1.5,0-3-0.1-4.5-0.1
		c0-101.3,0-202.5,0-303.8c1,0,2,0.1,3,0.1c132.7,0,265.5,0,398.2,0C428.6,12.3,429.6,12.2,430.6,12.2z M228.4,34.9
		c-58.2,0-116.3,0-174.5-0.1c-3.5,0-4.3,0.9-4.3,4.3c0.1,83.4,0.1,166.7,0,250.1c0,3.4,0.8,4.3,4.2,4.3
		c73.2-0.1,146.3-0.1,219.5-0.1c3.1,0,7.2,1.4,9-0.6c1.5-1.7,0.3-5.7,0.5-8.7c0.3-3.8-0.3-7-2.9-10.1c-2.4-2.9-4.7-6.2-6-9.7
		c-6.2-16.2-6.6-32.1,2.5-47.6c5.1-8.7,11.3-16.1,20-21.5c8.8-5.4,18.2-8.5,28.4-9.1c15.4-0.8,29.2,3.4,41.5,12.9
		c11.6,9,17.8,21,20.9,34.8c1.9,8.6,1.3,17.3-2.3,25.7c-2.5,5.9-5,11.8-8.9,16.9c-0.9,1.1-1.3,2.3-1.3,3.8c0.1,3.5,0.2,7.1,0,10.6
		c-0.1,2.2,0.7,2.7,2.8,2.7c8.6-0.1,17.2-0.2,25.7,0c3.2,0.1,3.8-0.9,3.8-3.9c-0.1-83.5-0.1-167,0-250.4c0-3.5-0.9-4.3-4.3-4.2
		C344.7,35,286.6,34.9,228.4,34.9z M327.5,208.5c-7.6,0.2-16,3-23.1,9.3c-7.3,6.5-10.8,15.3-11,24.3c-0.2,8.6,3.3,17,9.8,23.6
		c6.9,7,15.5,10.5,25.1,10.5c19.4,0,35.2-13,35.7-33.5C364.4,223.9,349,208.9,327.5,208.5z M306.4,295.2c0,8,0,15.7,0,23.5
		c0,2,0.8,1.9,2.3,1.4c5.5-1.8,11.1-3.3,16.5-5.2c2.5-0.9,4.8-0.9,7.3,0c5.1,1.7,10.3,3.2,15.4,5c2.6,0.9,3.8,0.7,3.6-2.6
		c-0.3-6-0.1-12.1-0.1-18.1c0-4.3,0-4.4-4.3-3c-9.9,3.2-20,3.7-30.2,1.6C313.4,297.1,310.1,296.1,306.4,295.2z"/>
	<path class="st3" d="M26.3,315.9c1.5,0,3,0.1,4.5,0.1c82.6,0,165.3,0,247.9-0.1c3.5,0,4.3,0.9,4.3,4.3c-0.2,10.4-0.1,20.8-0.1,31.6
		c4.5-1.3,8.8-2.5,12.9-3.8c9.5-3,19-5.8,28.4-9c3.2-1.1,6-1,9.1,0c12.8,4.1,25.7,7.9,38.4,12.1c2.9,1,3.1-0.1,3.1-2.5
		c-0.1-9.8,0-19.6-0.1-29.5c0-2.5,0.6-3.2,3.2-3.2c17.5,0.1,35.1,0,52.6-0.1c0,19.1-0.1,38.3,0.1,57.4c0,2.6-0.5,3.1-3.1,3.1
		c-115.6-0.1-231.2-0.1-346.7-0.1c-17.4,0-34.8,0-52.2,0c-1.9,0-2.3-0.4-2.3-2.3C26.4,354.7,26.3,335.3,26.3,315.9z"/>
	<path class="st4" d="M430.6,12.2c-1,0-2,0.1-3,0.1c-132.7,0-265.5,0-398.2,0c-1,0-2-0.1-3-0.1c0-7.2,0.1-14.3,0-21.5
		c0-1.6,0.3-2.3,1.9-1.9c0.5,0.1,1,0,1.5,0c132.5,0,265,0,397.5-0.1c2.9,0,3.6,0.7,3.5,3.5C430.4-1.2,430.6,5.5,430.6,12.2z"/>
	<path class="st0" d="M228.4,34.9c58.2,0,116.3,0,174.5-0.1c3.4,0,4.3,0.8,4.3,4.2c-0.1,83.5-0.1,167,0,250.4c0,3.1-0.6,4-3.8,3.9
		c-8.6-0.3-17.2-0.1-25.7,0c-2.1,0-2.9-0.5-2.8-2.7c0.2-3.5,0.1-7,0-10.6c0-1.5,0.4-2.7,1.3-3.8c4-5.1,6.4-11,8.9-16.9
		c3.6-8.4,4.2-17.1,2.3-25.7c-3-13.8-9.2-25.8-20.9-34.8c-12.4-9.5-26.1-13.8-41.5-12.9c-10.2,0.6-19.6,3.7-28.4,9.1
		c-8.7,5.4-14.9,12.8-20,21.5c-9.1,15.5-8.7,31.4-2.5,47.6c1.4,3.5,3.6,6.8,6,9.7c2.6,3.1,3.2,6.3,2.9,10.1c-0.2,3,1,7-0.5,8.7
		c-1.8,2.1-5.9,0.6-9,0.6c-73.2,0-146.3,0-219.5,0.1c-3.4,0-4.3-0.9-4.2-4.3c0.1-83.4,0.1-166.7,0-250.1c0-3.4,0.8-4.3,4.3-4.3
		C112.1,35,170.3,34.9,228.4,34.9z M228.5,97c20.8,0,41.6,0,62.4,0c21.8,0,43.6,0,65.5,0.1c2.4,0,3.2-0.5,3.1-3.1
		c-0.2-5.2-0.3-10.3,0-15.5c0.2-3.5-0.9-4.3-4.3-4.3c-68.9,0.1-137.7,0.1-206.6,0.1c-16,0-32,0.1-48.1-0.1c-2.5,0-3.2,0.6-3.1,3.1
		c0.2,5.3,0.3,10.6,0,15.9c-0.2,3.3,0.9,3.8,3.9,3.8C143.7,97,186.1,97,228.5,97z M228.1,149.8c23.6,0,47.2,0,70.8,0
		c19.2,0,38.3,0,57.5,0.1c2.5,0,3.2-0.6,3.1-3.1c-0.2-5.2-0.3-10.3,0-15.5c0.2-3.5-0.9-4.3-4.3-4.2c-84.5,0.1-169,0.1-253.5,0.1
		c-0.6,0-1.3,0.1-1.9,0c-1.8-0.3-2.4,0.5-2.3,2.3c0.1,5.5,0.3,11.1,0,16.6c-0.2,3.2,0.9,3.8,3.9,3.8
		C143.6,149.7,185.8,149.8,228.1,149.8z M163,202.6c20.8,0,41.6,0,62.4,0.1c2.5,0,3.2-0.6,3.1-3.1c-0.2-5.4-0.2-10.8,0-16.2
		c0.1-2.9-0.7-3.5-3.5-3.5c-22.2,0.1-44.4,0.1-66.6,0.1c-19.3,0-38.6,0-57.9-0.1c-2.5,0-3.2,0.6-3.1,3.1c0.2,5.4,0.2,10.8,0,16.2
		c-0.1,2.9,0.7,3.5,3.5,3.5C121.6,202.5,142.3,202.6,163,202.6z"/>
	<path class="st0" d="M327.5,208.5c21.5,0.4,36.9,15.3,36.5,34.2c-0.5,20.5-16.4,33.6-35.7,33.5c-9.6,0-18.1-3.5-25.1-10.5
		c-6.5-6.6-10-15.1-9.8-23.6c0.2-9,3.8-17.8,11-24.3C311.5,211.5,319.9,208.8,327.5,208.5z"/>
	<path class="st0" d="M306.4,295.2c3.7,0.9,7,1.9,10.4,2.6c10.2,2.1,20.3,1.6,30.2-1.6c4.3-1.4,4.3-1.4,4.3,3c0,6-0.2,12.1,0.1,18.1
		c0.2,3.3-1,3.5-3.6,2.6c-5.1-1.7-10.3-3.3-15.4-5c-2.5-0.8-4.7-0.8-7.3,0c-5.4,1.9-11,3.4-16.5,5.2c-1.5,0.5-2.3,0.6-2.3-1.4
		C306.5,310.9,306.4,303.2,306.4,295.2z"/>
	<path class="st1" d="M228.5,97c-42.4,0-84.8,0-127.1,0.1c-3.1,0-4.1-0.6-3.9-3.8c0.3-5.3,0.2-10.6,0-15.9c-0.1-2.5,0.6-3.2,3.1-3.1
		c16,0.1,32,0.1,48.1,0.1c68.9,0,137.7,0,206.6-0.1c3.4,0,4.5,0.8,4.3,4.3c-0.3,5.1-0.2,10.3,0,15.5c0.1,2.5-0.7,3.1-3.1,3.1
		C334.5,97,312.7,97,290.9,97C270.1,97,249.3,97,228.5,97z"/>
	<path class="st1" d="M228.1,149.8c-42.3,0-84.5,0-126.8,0.1c-3.1,0-4.1-0.6-3.9-3.8c0.3-5.5,0.1-11.1,0-16.6c0-1.8,0.5-2.6,2.3-2.3
		c0.6,0.1,1.3,0,1.9,0c84.5,0,169,0,253.5-0.1c3.4,0,4.5,0.7,4.3,4.2c-0.3,5.1-0.2,10.3,0,15.5c0.1,2.5-0.7,3.1-3.1,3.1
		c-19.2-0.1-38.3-0.1-57.5-0.1C275.3,149.8,251.7,149.8,228.1,149.8z"/>
	<path class="st1" d="M163,202.6c-20.7,0-41.4-0.1-62.1,0.1c-2.8,0-3.6-0.6-3.5-3.5c0.3-5.4,0.2-10.8,0-16.2
		c-0.1-2.5,0.6-3.1,3.1-3.1c19.3,0.1,38.6,0.1,57.9,0.1c22.2,0,44.4,0.1,66.6-0.1c2.8,0,3.6,0.6,3.5,3.5c-0.3,5.4-0.2,10.8,0,16.2
		c0.1,2.5-0.6,3.1-3.1,3.1C204.6,202.6,183.8,202.6,163,202.6z"/>
</g>
</svg>
