<?xml version="1.0" encoding="utf-8"?>
<!-- Generator: Adobe Illustrator 26.0.1, SVG Export Plug-In . SVG Version: 6.00 Build 0)  -->
<svg version="1.1" id="Layer_1" xmlns="http://www.w3.org/2000/svg" xmlns:xlink="http://www.w3.org/1999/xlink" x="0px" y="0px"
	 width="361px" height="333px" viewBox="0 0 361 333" style="enable-background:new 0 0 361 333;" xml:space="preserve">
<style type="text/css">
	.st0{fill:#5F22D9;}
	.st1{fill:#FFFFFF;}
	.st2{fill:#9285F4;}
	.st3{display:none;fill:#FEFEFE;}
	.st4{display:none;fill:#FDFDFD;}
</style>
<rect x="-593.3" y="-225.7" class="st0" width="320.2" height="229.8"/>
<rect x="-584.1" y="82.2" class="st1" width="320.2" height="229.8"/>
<rect x="-574.9" y="397.8" class="st2" width="320.2" height="229.8"/>
<g>
	<path class="st3" d="M238.5,352.7c-87.1,0-174.2,0-261.3,0c0-123.1,0-246.3-0.1-369.4c0-2.7,0.6-3.3,3.3-3.3
		c123.4,0.1,246.8,0.1,370.1,0c2.7,0,3.3,0.6,3.3,3.3c-0.1,122-0.1,244.1,0,366.1c0,2.7-0.6,3.3-3.3,3.3
		c-34.7-0.1-69.4-0.1-104.2-0.1c4-1.5,8-2.8,11.1-6c4-4.1,8.2-7.9,12-12.1c8.3-9,8.3-20.6-0.4-29.2c-17.8-17.6-35.3-35.4-53.2-52.9
		c-28.5-27.7-56.2-56.3-84.8-83.9c-1.5-1.5-1.5-2.3,0-3.7c6.8-6.3,13.3-13,20-19.4c23.5-22.6,45.9-46.4,69.6-68.8
		c9.8-9.2,19-18.9,28.5-28.5c7.2-7.2,14.5-14.2,21.4-21.7s7-18.5,0.4-26.2c-4.3-4.9-8.9-9.6-13.7-14c-8.8-7.9-20-7.6-28.7,0.6
		C221-6.1,213.6,1.2,206.1,8.4c-19.8,19.3-39.1,39.2-58.9,58.5c-28.5,27.7-56.2,56.2-84.8,84c-9.9,9.6-9.8,21.6,0,31.3
		c6.5,6.5,13.1,12.8,19.7,19.2c23.5,22.6,46,46.3,69.6,68.9c23,22,44.6,45.3,67.8,67C225.5,343.1,230.6,349.6,238.5,352.7z"/>
</g>
<g>
	<path class="st4" d="M106.6,321.9c-24.5,0-48.9,0-73.4,0.1c-1.8,0-2.2-0.4-2.2-2.2c0.1-31.1,0.1-62.3,0.1-93.4
		c0.8,0.2,0.6,0.9,0.8,1.5c3.4,10,10.4,15.3,21,16.1c3.8,0.3,5.8,2.3,5.8,6.3c0.1,6,0,12.1,0,18.1c0,0.9-0.5,2,0.5,2.8
		c11-8.3,22-16.4,32.9-24.7c2.4-1.8,4.8-2.5,7.8-2.5c39.3,0.1,78.5,0.1,117.8,0c13.8,0,23.1-9.2,23.2-23.1c0.1-5.8,0-11.7,0-17.5
		c0-30.1,0-60.3,0-90.4c0-15.5-8.9-24.4-24.3-24.4c-16.3,0-32.6,0-48.9,0c-37.9,0-75.7,0-113.6,0c-11.5,0-19.6,6.3-22.5,17.6
		c-0.1,0.2-0.4,0.4-0.6,0.6c0-31.1,0-62.2-0.1-93.3c0-2,0.5-2.3,2.3-2.3c45.1,0.1,90.3,0,135.4,0c-4,1.6-8.4,1.4-12.5,2.3
		C118.4,21.3,89.7,41.9,70,75.2c-0.4,0.6-1.1,1.2-0.6,2.3c3.1,0,6.4-0.2,9.5,0.1c2,0.1,3-0.7,4-2.3C97.2,53.4,116.7,38,141.2,29
		c16.2-6,33.1-7.3,50.2-6.9c17.2,0.4,33.8,3.5,49.2,11.3c39.8,20.1,61.9,52.5,66,97c0.2,2.1,0.6,3.4,3.1,3c1.9-0.3,3.8-0.2,5.7,0
		c2.1,0.2,2.7-0.4,2.6-2.6c-1.1-13.3-3.4-26.4-8.6-38.7c-17.8-42.5-49.2-68.9-94.3-78.6c-4.5-1-9.1-1.6-13.7-2.4
		c45.7,0,91.4,0,137.1-0.1c2.1,0,2.5,0.4,2.5,2.5c-0.1,102-0.1,204,0,306c0,2.1-0.4,2.5-2.5,2.5c-61.4-0.1-122.8-0.1-184.2-0.1
		c2.9-1.7,3.9-4.1,3.8-7.5c-0.2-6.6,0-13.3-0.1-19.9c0-4.3-2-6.4-6.3-6.4c-14.2,0-28.4,0-42.6,0c-4.2,0-6.3,2.1-6.3,6.3
		c0,6.6,0.1,13.3-0.1,19.9C102.7,317.8,103.7,320.2,106.6,321.9z M307.2,194.1c0,15.7,0,31.4,0,47.2c0,2.1,0.4,2.8,2.6,2.7
		c4.2-0.2,8.5,0,12.7-0.1c11,0,17.9-6.9,17.9-17.9c0-21.3,0-42.5,0-63.8c0-10.9-6.7-17.8-17.6-17.9c-4.2-0.1-8.5,0.1-12.7-0.1
		c-2.4-0.1-3,0.7-3,3C307.2,162.9,307.2,178.5,307.2,194.1z M296.2,194.4c0-15.6-0.1-31.2,0.1-46.9c0-2.8-0.8-3.4-3.4-3.2
		c-3.8,0.2-7.6,0-11.5,0.1c-5.6,0-7.4,1.9-7.4,7.5c0,14.7,0,29.4,0,44.1c0,13.6,0,27.2,0,40.8c0,5.2,1.9,7.2,7,7.2
		c4.1,0,8.3-0.1,12.4,0.1c2.2,0.1,2.8-0.4,2.8-2.8C296.1,225.6,296.2,210,296.2,194.4z M221.9,299.8c-16.7,0-33.4,0-50.1,0
		c-2,0-2.9,0.4-2.7,2.6c0.2,2.2,0.1,4.4,0,6.6c-0.1,1.6,0.5,2,2.1,2c32.9-0.1,65.8,0.2,98.7-0.2c15.2-0.2,27.9-6.5,37.3-18.9
		c7.1-9.3,10.9-19.5,11.1-31.2c0.1-5.8,0.1-5.8-5.5-5.8c-5.5,0-5.4,0-5.6,5.7c-0.4,17-9.2,28.6-23.8,36.1c-4.8,2.5-10.1,3-15.5,3
		C252.5,299.7,237.2,299.8,221.9,299.8z"/>
	<path class="st1" d="M31.1,106.6c0.2-0.2,0.5-0.4,0.6-0.6c2.9-11.2,10.9-17.6,22.5-17.6c37.9,0,75.7,0,113.6,0
		c16.3,0,32.6,0,48.9,0c15.4,0,24.3,8.9,24.3,24.4c0,30.1,0,60.3,0,90.4c0,5.8,0,11.7,0,17.5c-0.1,13.8-9.4,23.1-23.2,23.1
		c-39.3,0-78.5,0-117.8,0c-3,0-5.4,0.7-7.8,2.5c-10.9,8.3-21.8,16.5-32.9,24.7c-0.9-0.8-0.5-1.9-0.5-2.8c0-6,0-12.1,0-18.1
		c0-4-2-6-5.8-6.3c-10.6-0.7-17.6-6.1-21-16.1c-0.2-0.5,0-1.3-0.8-1.5C31.1,186.5,31.1,146.5,31.1,106.6z M135.8,172
		c26.9,0,53.7,0,80.6,0c1.1,0,2.2,0.1,3.3-0.1c2.7-0.4,4.6-2.9,4.6-5.6c-0.1-2.6-2-4.9-4.6-5.2c-1-0.1-2-0.1-3-0.1
		c-53.8,0-107.7,0-161.5,0c-0.9,0-1.8,0-2.7,0.1c-2.8,0.3-4.8,2.5-4.8,5.3c-0.1,2.9,2,5.3,4.9,5.6c1,0.1,2,0.1,3,0.1
		C82.3,172,109.1,172,135.8,172z M105.7,138.8c16.7,0,33.4,0,50.1,0c0.9,0,1.8,0,2.7,0c3-0.3,5-2.4,5-5.4c0-2.9-2-5.2-4.9-5.5
		c-0.7-0.1-1.4,0-2.1,0c-34,0-68,0-102,0c-0.8,0-1.6,0-2.4,0.1c-2.7,0.5-4.6,3-4.5,5.6c0.1,2.8,2.1,4.9,4.9,5.2
		c0.9,0.1,1.8,0.1,2.7,0.1C72.1,138.8,88.9,138.8,105.7,138.8z M89,194.2c-11.6,0-23.1,0-34.7,0c-1.6,0-3.2,0-4.6,1.1
		c-2,1.7-2.6,3.9-1.7,6.3c1,2.7,3.2,3.6,6,3.6c23.2,0,46.5,0,69.7,0c4.2,0,6.8-2.2,6.7-5.7c-0.1-3.4-2.5-5.3-6.7-5.3
		C112.2,194.2,100.6,194.2,89,194.2z M199.6,138.8c6.2,0,12.5,0,18.7,0c3.6,0,6-2.2,6-5.3c0.1-3.3-2.4-5.6-6.1-5.6
		c-12.5,0-24.9,0-37.4,0c-3.8,0-6.1,2.2-6.1,5.5c0,3.4,2.2,5.4,6.2,5.4C187.1,138.8,193.4,138.8,199.6,138.8z"/>
	<path class="st1" d="M201.4,11.1c4.6,0.8,9.2,1.4,13.7,2.4c45.1,9.7,76.5,36,94.3,78.6c5.2,12.3,7.5,25.4,8.6,38.7
		c0.2,2.2-0.4,2.8-2.6,2.6c-1.9-0.2-3.8-0.2-5.7,0c-2.5,0.3-2.9-0.9-3.1-3c-4.1-44.5-26.2-76.9-66-97c-15.4-7.8-32-10.9-49.2-11.3
		c-17.1-0.4-33.9,0.9-50.2,6.9C116.7,38,97.2,53.4,83,75.2c-1,1.6-2,2.4-4,2.3c-3.2-0.2-6.4-0.1-9.5-0.1c-0.5-1.1,0.2-1.7,0.6-2.3
		c19.7-33.2,48.5-53.8,86.3-61.8c4.2-0.9,8.5-0.8,12.5-2.3C179.7,11.1,190.5,11.1,201.4,11.1z"/>
	<path class="st1" d="M106.6,321.9c-2.8-1.7-3.8-4.2-3.7-7.5c0.2-6.6,0-13.3,0.1-19.9c0-4.2,2.1-6.3,6.3-6.3c14.2,0,28.4,0,42.6,0
		c4.2,0,6.2,2.1,6.3,6.4c0.1,6.6-0.1,13.3,0.1,19.9c0.1,3.4-0.9,5.8-3.8,7.5C138.4,321.9,122.5,321.9,106.6,321.9z"/>
	<path class="st1" d="M307.2,194.1c0-15.6,0.1-31.2-0.1-46.9c0-2.3,0.5-3.1,3-3c4.2,0.2,8.5,0,12.7,0.1c10.9,0.2,17.6,7.1,17.6,17.9
		c0,21.3,0,42.5,0,63.8c0,11-6.9,17.8-17.9,17.9c-4.2,0-8.5-0.1-12.7,0.1c-2.2,0.1-2.6-0.6-2.6-2.7
		C307.2,225.6,307.2,209.9,307.2,194.1z"/>
	<path class="st1" d="M296.2,194.4c0,15.6-0.1,31.2,0.1,46.9c0,2.3-0.6,2.9-2.8,2.8c-4.1-0.2-8.3,0-12.4-0.1c-5.1,0-7-2-7-7.2
		c0-13.6,0-27.2,0-40.8c0-14.7,0-29.4,0-44.1c0-5.6,1.9-7.4,7.4-7.5c3.8,0,7.7,0.2,11.5-0.1c2.6-0.1,3.4,0.4,3.4,3.2
		C296.1,163.1,296.2,178.7,296.2,194.4z"/>
	<path class="st1" d="M221.9,299.8c15.3,0,30.6,0,45.9,0c5.4,0,10.8-0.5,15.5-3c14.6-7.6,23.4-19.1,23.8-36.1
		c0.1-5.7,0.1-5.7,5.6-5.7c5.6,0,5.6,0,5.5,5.8c-0.1,11.7-4,21.9-11.1,31.2c-9.4,12.4-22.1,18.7-37.3,18.9
		c-32.9,0.4-65.8,0.2-98.7,0.2c-1.6,0-2.2-0.4-2.1-2c0.1-2.2,0.2-4.4,0-6.6c-0.2-2.2,0.7-2.6,2.7-2.6
		C188.5,299.8,205.2,299.8,221.9,299.8z"/>
	<path class="st0" d="M135.8,172c-26.8,0-53.5,0-80.3,0c-1,0-2,0.1-3-0.1c-2.9-0.3-4.9-2.7-4.9-5.6c0.1-2.8,2.1-5,4.8-5.3
		c0.9-0.1,1.8-0.1,2.7-0.1c53.8,0,107.7,0,161.5,0c1,0,2-0.1,3,0.1c2.6,0.4,4.5,2.7,4.6,5.2c0.1,2.7-1.9,5.2-4.6,5.6
		c-1.1,0.2-2.2,0.1-3.3,0.1C189.6,172,162.7,172,135.8,172z"/>
	<path class="st0" d="M105.7,138.8c-16.8,0-33.6,0-50.4,0c-0.9,0-1.8,0-2.7-0.1c-2.8-0.3-4.8-2.4-4.9-5.2c-0.1-2.7,1.8-5.1,4.5-5.6
		c0.8-0.1,1.6-0.1,2.4-0.1c34,0,68,0,102,0c0.7,0,1.4,0,2.1,0c2.9,0.4,4.9,2.7,4.9,5.5c0,2.9-2.1,5.1-5,5.4c-0.9,0.1-1.8,0-2.7,0
		C139.1,138.8,122.4,138.8,105.7,138.8z"/>
	<path class="st0" d="M89,194.2c11.6,0,23.1,0,34.7,0c4.2,0,6.6,2,6.7,5.3c0.1,3.4-2.5,5.7-6.7,5.7c-23.2,0-46.5,0-69.7,0
		c-2.8,0-5-0.9-6-3.6c-0.9-2.4-0.3-4.6,1.7-6.3c1.3-1.1,2.9-1.1,4.6-1.1C65.9,194.2,77.5,194.2,89,194.2z"/>
	<path class="st0" d="M199.6,138.8c-6.2,0-12.5,0-18.7,0c-3.9,0-6.2-2-6.2-5.4c0-3.3,2.3-5.5,6.1-5.5c12.5,0,24.9,0,37.4,0
		c3.7,0,6.2,2.4,6.1,5.6c-0.1,3.2-2.4,5.3-6,5.3C212.1,138.8,205.8,138.8,199.6,138.8z"/>
</g>
</svg>
