<?xml version="1.0" encoding="utf-8"?>
<!-- Generator: Adobe Illustrator 26.0.1, SVG Export Plug-In . SVG Version: 6.00 Build 0)  -->
<svg version="1.1" id="Layer_1" xmlns="http://www.w3.org/2000/svg" xmlns:xlink="http://www.w3.org/1999/xlink" x="0px" y="0px"
	 width="361px" height="333px" viewBox="0 0 361 333" style="enable-background:new 0 0 361 333;" xml:space="preserve">
<style type="text/css">
	.st0{fill:#5F22D9;}
	.st1{fill:#FFFFFF;}
	.st2{fill:#9285F4;}
	.st3{display:none;fill:#FEFEFE;}
	.st4{display:none;fill:#FCFCFC;}
	.st5{display:none;fill:#FBFBFB;}
</style>
<rect x="-593.3" y="-225.7" class="st0" width="320.2" height="229.8"/>
<rect x="-584.1" y="82.2" class="st1" width="320.2" height="229.8"/>
<rect x="-574.9" y="397.8" class="st2" width="320.2" height="229.8"/>
<g>
	<path class="st3" d="M238.5,352.7c-87.1,0-174.2,0-261.3,0c0-123.1,0-246.3-0.1-369.4c0-2.7,0.6-3.3,3.3-3.3
		c123.4,0.1,246.8,0.1,370.1,0c2.7,0,3.3,0.6,3.3,3.3c-0.1,122-0.1,244.1,0,366.1c0,2.7-0.6,3.3-3.3,3.3
		c-34.7-0.1-69.4-0.1-104.2-0.1c4-1.5,8-2.8,11.1-6c4-4.1,8.2-7.9,12-12.1c8.3-9,8.3-20.6-0.4-29.2c-17.8-17.6-35.3-35.4-53.2-52.9
		c-28.5-27.7-56.2-56.3-84.8-83.9c-1.5-1.5-1.5-2.3,0-3.7c6.8-6.3,13.3-13,20-19.4c23.5-22.6,45.9-46.4,69.6-68.8
		c9.8-9.2,19-18.9,28.5-28.5c7.2-7.2,14.5-14.2,21.4-21.7c6.9-7.5,7-18.5,0.4-26.2c-4.3-4.9-8.9-9.6-13.7-14
		c-8.8-7.9-20-7.6-28.7,0.6c-7.5,7.1-14.9,14.4-22.4,21.6c-19.8,19.3-39.1,39.2-58.9,58.5c-28.5,27.7-56.2,56.2-84.8,84
		c-9.9,9.6-9.8,21.6,0,31.3c6.5,6.5,13.1,12.8,19.7,19.2c23.5,22.6,46,46.3,69.6,68.9c23,22,44.6,45.3,67.8,67
		C225.5,343.1,230.6,349.6,238.5,352.7z"/>
</g>
<g>
	<path class="st1" d="M27.2,279.8c0-75.3,0-150.7,0-226c1-0.3,0.6-1.1,0.7-1.7c1.1-4.8,2.6-9.4,5.1-13.7
		c9.1-15.1,22.8-22.2,40.1-22.2c71.4-0.1,142.8-0.1,214.2-0.1c1.3,0,2.6,0,3.8,0.1c7.3,0.4,14.2,2.4,20.3,6.1
		c14.4,8.7,21.7,21.7,21.8,38.5c0.1,70.6,0,141.2,0.1,211.8c0,17.2-10.3,35.6-29.5,42c-3.3,1.1-6.7,1.5-10,2.7
		c-25.9,0-51.8,0-77.7,0c0-34.6,0-69.2-0.1-103.9c0-2.2,0.5-2.7,2.7-2.7c13.2,0.1,26.5-0.1,39.7,0.2c2.7,0,3.2-1.1,3.5-3.2
		c1.4-9.1,3-18.2,4.5-27.2c1.2-7.5,2.5-15,3.7-22.6c-1.3,0-2.2,0-3.2,0c-16.2,0-32.4,0-48.6,0c-1.9,0-2.4-0.5-2.4-2.4
		c0.1-10.3,0.1-20.6,0-30.9c0-2.2,0.5-2.7,2.7-2.7c16.3,0.1,32.6,0,48.9,0.1c2.2,0,2.7-0.5,2.7-2.7c-0.1-15.9-0.1-31.8,0-47.7
		c0-2.2-0.6-2.7-2.7-2.7c-16.9,0.1-33.7,0.1-50.6,0c-8.1,0-15.9,1.3-23.1,4.8c-20.3,9.7-30.7,26.1-31.3,48.5
		c-0.3,11.1-0.1,22.2,0,33.2c0,1.9-0.5,2.4-2.4,2.4c-10.4-0.1-20.8,0-31.2-0.1c-1.9,0-2.4,0.5-2.4,2.4c0.1,16.1,0.1,32.2,0,48.3
		c0,1.9,0.5,2.4,2.4,2.4c10.2-0.1,20.4,0,30.6-0.1c2.5,0,3,0.6,3,3c-0.1,34.5-0.1,69-0.1,103.6c-32.4,0-64.8,0-97.1,0
		c-0.9-1.1-2.3-0.8-3.4-1.1c-15.9-4.2-27.2-13.6-32.7-29.4C28.5,284.5,28.6,281.9,27.2,279.8z"/>
	<path class="st0" d="M162.5,317.5c0-34.5,0-69,0.1-103.6c0-2.4-0.5-3.1-3-3c-10.2,0.2-20.4,0-30.6,0.1c-1.9,0-2.4-0.5-2.4-2.4
		c0.1-16.1,0.1-32.2,0-48.3c0-1.9,0.5-2.4,2.4-2.4c10.4,0.1,20.8,0,31.2,0.1c1.9,0,2.4-0.5,2.4-2.4c-0.1-11.1-0.3-22.2,0-33.2
		c0.6-22.4,11-38.8,31.3-48.5c7.2-3.4,15-4.8,23.1-4.8c16.9,0,33.7,0.1,50.6,0c2.2,0,2.7,0.5,2.7,2.7c-0.1,15.9-0.1,31.8,0,47.7
		c0,2.2-0.5,2.7-2.7,2.7c-16.3-0.1-32.6,0-48.9-0.1c-2.2,0-2.8,0.5-2.7,2.7c0.1,10.3,0.1,20.6,0,30.9c0,1.9,0.5,2.4,2.4,2.4
		c16.2-0.1,32.4,0,48.6,0c1,0,1.9,0,3.2,0c-1.3,7.7-2.5,15.1-3.7,22.6c-1.5,9.1-3.1,18.2-4.5,27.2c-0.3,2.1-0.8,3.2-3.5,3.2
		c-13.2-0.2-26.5,0-39.7-0.2c-2.2,0-2.7,0.5-2.7,2.7c0.1,34.6,0.1,69.2,0.1,103.9C198.3,317.5,180.4,317.5,162.5,317.5z"/>
	<path class="st4" d="M293.8,317.5c3.2-1.3,6.7-1.6,10-2.7c19.2-6.5,29.6-24.9,29.5-42c-0.1-70.6,0-141.2-0.1-211.8
		c0-16.8-7.4-29.8-21.8-38.5c-6.1-3.7-13-5.7-20.3-6.1c-1.3-0.1-2.5-0.1-3.8-0.1c-71.4,0-142.8-0.1-214.2,0.1
		c-17.3,0-31,7.1-40.1,22.2c-2.5,4.2-4.1,8.9-5.1,13.7c-0.1,0.6,0.2,1.5-0.7,1.7c0-12,0.1-23.9-0.1-35.9c0-2,0.3-2.4,2.4-2.4
		c74.2,0.1,148.5,0.1,222.7,0.1c26.5,0,53,0,79.4,0c1.8,0,2.3,0.4,2.3,2.3c-0.1,99.2-0.1,198.4,0,297.6c0,1.8-0.4,2.1-2.1,2.1
		C319.1,317.4,306.5,317.5,293.8,317.5z"/>
	<path class="st5" d="M27.2,279.8c1.4,2.1,1.3,4.8,2.2,7.1c5.5,15.9,16.8,25.2,32.7,29.4c1.2,0.3,2.5,0,3.4,1.1
		c-12.1,0-24.2,0-36.4,0c-1.6,0-2-0.3-2-2C27.2,303.6,27.2,291.7,27.2,279.8z"/>
</g>
</svg>
