<?xml version="1.0" encoding="utf-8"?>
<!-- Generator: Adobe Illustrator 26.0.1, SVG Export Plug-In . SVG Version: 6.00 Build 0)  -->
<svg version="1.1" id="Layer_1" xmlns="http://www.w3.org/2000/svg" xmlns:xlink="http://www.w3.org/1999/xlink" x="0px" y="0px"
	 width="398px" height="357px" viewBox="0 0 398 357" style="enable-background:new 0 0 398 357;" xml:space="preserve">
<style type="text/css">
	.st0{fill:#5F22D9;}
	.st1{fill:#FFFFFF;}
	.st2{fill:#9285F4;}
	.st3{display:none;fill:#FEFEFE;}
	.st4{display:none;fill:#FDFDFD;}
</style>
<rect x="-521.3" y="-231.7" class="st0" width="320.2" height="229.8"/>
<rect x="-512.1" y="76.2" class="st1" width="320.2" height="229.8"/>
<rect x="-502.9" y="391.8" class="st2" width="320.2" height="229.8"/>
<g>
	<path class="st1" d="M386.8,52.6c0,69.1,0,138.2,0,207.3c-1.4,1.1-1.3,2.9-1.8,4.4c-1.3,3.4-3.1,6.2-5.4,9.1
		c-7.9,9.7-18.2,12.5-30,12.4c-34.5-0.1-69.1,0-103.6-0.1c-2.6,0-3.4,0.5-3.3,3.2c0.2,11.3,0.2,22.6,0,33.8c0,2.8,0.9,3.3,3.4,3.2
		c4.8-0.2,9.6-0.2,14.4,0.1c4.6,0.2,8.9,3.9,9.9,8.1c1,4.3-0.8,8.1-5,10.9c-2.6,1.7-5.4,2-8.4,2c-38.4,0-76.8,0-115.2,0
		c-2.4,0-4.6-0.3-6.9-1.1c-4.1-1.5-6.7-5.2-6.7-9.7c0-4.5,2.7-8.2,6.9-9.5c5.9-1.8,11.9-0.7,17.8-0.8c2.4-0.1,3.2-0.7,3.2-3.2
		c-0.1-11.2-0.2-22.3,0-33.5c0-2.9-0.6-3.7-3.6-3.7c-33.5,0.1-67,0.1-100.4,0.1c-3.4,0-6.8-0.1-10.2-0.4c-15.7-1.1-30-14.2-30-32.1
		c0.1-65,0-129.9,0.1-194.9c0-7.3,1.9-14.3,6.8-19.9c7.6-8.7,17.3-12.5,28.9-12.5c61.5,0.1,123.1,0,184.6,0
		c39.6,0,79.2,0.2,118.8-0.1c15.7-0.1,32.2,9.4,35.3,26.4C386.3,52.4,386.7,52.5,386.8,52.6z M199.3,216.8c53.9,0,107.8,0,161.7,0.1
		c3.1,0,4-0.7,4-3.9c-0.1-50.9-0.2-101.7,0.1-152.6c0.1-8.6-6.4-13.2-13.2-13.2c-101.7,0.1-203.4,0-305.1,0.1
		c-9.2,0-13.1,4-13.1,13.1c0,50.9,0,101.7-0.1,152.6c0,3.1,0.7,4,3.9,4C91.5,216.7,145.4,216.8,199.3,216.8z M199.4,237.9
		c-34.4,0-68.8,0-103.2,0c-19.7,0-39.5,0.1-59.2-0.1c-2.9,0-3.5,0.9-3.4,3.5c0.2,4.1,0,8.2,0.1,12.3c0.1,5.4,3,9,8.2,10.4
		c2.1,0.5,4.2,0.6,6.3,0.6c100.8,0,201.5,0,302.3,0c1.1,0,2.1,0,3.2,0c5.8-0.4,12-5,11.3-12.1c-0.3-3.5-0.3-7.1,0-10.6
		c0.2-3.1-0.6-4-3.9-4C307.3,238,253.3,237.9,199.4,237.9z M199,326c6.3,0,12.7-0.1,19,0c2,0,2.9-0.3,2.9-2.7
		c-0.1-11.7-0.1-23.5,0-35.2c0-1.8-0.4-2.4-2.3-2.4c-12.8,0.1-25.6,0.1-38.4,0c-1.9,0-2.4,0.6-2.4,2.4c0.1,11.7,0.1,23.5,0,35.2
		c0,2.3,0.8,2.7,2.9,2.7C186.8,325.9,192.9,326,199,326z"/>
	<path class="st3" d="M386.8,52.6c-0.2-0.1-0.5-0.2-0.5-0.4c-3.2-16.9-19.6-26.5-35.3-26.4c-39.6,0.3-79.2,0.1-118.8,0.1
		c-61.5,0-123.1,0-184.6,0c-11.6,0-21.3,3.8-28.9,12.5c-4.9,5.6-6.8,12.6-6.8,19.9c0,65,0,129.9-0.1,194.9c0,17.9,14.3,31,30,32.1
		c3.4,0.2,6.8,0.4,10.2,0.4c33.5,0,67,0,100.4-0.1c3,0,3.6,0.8,3.6,3.7c-0.2,11.2-0.1,22.3,0,33.5c0,2.5-0.7,3.1-3.2,3.2
		c-6,0.2-12-1-17.8,0.8c-4.2,1.3-6.9,5-6.9,9.5c0,4.5,2.6,8.2,6.7,9.7c2.3,0.8,4.5,1.1,6.9,1.1c38.4,0,76.8,0,115.2,0
		c3,0,5.8-0.3,8.4-2c4.2-2.8,6-6.6,5-10.9c-1-4.2-5.2-7.9-9.9-8.1c-4.8-0.3-9.6-0.3-14.4-0.1c-2.5,0.1-3.5-0.4-3.4-3.2
		c0.2-11.3,0.2-22.6,0-33.8c0-2.7,0.8-3.3,3.3-3.2c34.5,0.1,69.1,0,103.6,0.1c11.8,0,22.1-2.8,30-12.4c2.3-2.9,4.1-5.8,5.4-9.1
		c0.6-1.5,0.5-3.2,1.8-4.4c0,35.1,0,70.3,0.1,105.4c0,2.1-0.4,2.5-2.5,2.5c-123.6-0.1-247.2-0.1-370.7,0c-2.1,0-2.5-0.4-2.5-2.5
		c0.1-118.9,0.1-237.8,0-356.8c0-2.1,0.4-2.5,2.5-2.5c123.6,0.1,247.2,0.1,370.7,0c2.1,0,2.5,0.4,2.5,2.5
		C386.8,23.2,386.8,37.9,386.8,52.6z"/>
	<path class="st4" d="M199.3,216.8c-53.9,0-107.8,0-161.7,0.1c-3.3,0-3.9-0.9-3.9-4c0.1-50.9,0.1-101.7,0.1-152.6
		c0-9.1,3.9-13.1,13.1-13.1c101.7,0,203.4,0,305.1-0.1c6.9,0,13.3,4.6,13.2,13.2c-0.3,50.9-0.2,101.7-0.1,152.6c0,3.3-0.9,4-4,3.9
		C307.1,216.8,253.2,216.8,199.3,216.8z M282.8,139.4c-4.4,3-8.2,5.7-12.1,8.3c-5.5,3.7-11.2,7.3-16.7,11c-3.4,2.2-5.7,5.6-5.7,9.4
		c0,6.9,8.5,12,14.9,9.4c2-0.8,4.1-1.8,5.9-3.1c10.8-7.2,21.6-14.4,32.4-21.6c1.3-0.9,2.8-1.7,4.2-2.5c4.2-2.3,7.8-5.4,7.9-10.8
		c0-5.6-3.7-8.6-8-11.1c-0.8-0.5-1.7-0.8-2.5-1.3c-10.3-6.9-20.6-13.8-31-20.7c-2.4-1.6-4.9-3.1-7.5-4.5c-5-2.7-10.6-1.4-13.7,3.1
		c-3.3,4.6-2.8,10.3,1.7,13.9c4.6,3.7,9.6,7,14.8,10C272.4,132.1,277.3,135.7,282.8,139.4z M115.8,139.4c9.5-6.3,19.1-12.5,28.6-19
		c5.6-3.8,7.1-9.8,3.9-14.9c-3.3-5.2-10.2-6.6-15.8-2.9c-13.9,9-27.8,18.2-41.6,27.4c-7.6,5.1-7.6,13.5,0,18.8
		c3,2.1,6.1,3.8,9.1,5.8c10.5,7,21,14,31.5,21c6.1,4.1,13,3.2,16.5-2.1c3.6-5.3,2-11.4-4.3-15.6c-7.2-4.8-14.4-9.6-21.6-14.3
		C120,142.2,117.9,140.8,115.8,139.4z M221.6,91.2c-3.8,0.1-6.6,1.4-8.6,4.1c-2.2,3-4.3,6-6.1,9.2c-5.5,9.3-10.5,18.9-16.3,28.1
		c-7.9,12.7-14.8,26-22.6,38.7c-3.4,5.5-1.8,12.2,3.2,14.7c6.1,3,11.8,2.1,15.6-3.9c2-3.2,4.1-6.4,6.1-9.7
		c6.9-11.2,12.8-23,19.9-34.2c5.5-8.6,10.1-17.7,15.1-26.6c0.5-0.9,1-1.9,1.7-2.7c3.3-3.4,4.2-7.5,2.1-11.5
		C229.5,93.5,225.9,91.2,221.6,91.2z"/>
	<path class="st0" d="M199.4,237.9c53.9,0,107.8,0,161.7-0.1c3.3,0,4.1,1,3.9,4c-0.3,3.5-0.3,7.1,0,10.6c0.7,7.1-5.6,11.7-11.3,12.1
		c-1.1,0.1-2.1,0-3.2,0c-100.8,0-201.5,0-302.3,0c-2.1,0-4.2,0-6.3-0.6c-5.2-1.4-8.1-4.9-8.2-10.4c-0.1-4.1,0.1-8.2-0.1-12.3
		c-0.1-2.6,0.5-3.5,3.4-3.5c19.7,0.1,39.5,0.1,59.2,0.1C130.6,237.9,165,237.9,199.4,237.9z"/>
	<path class="st0" d="M199,326c-6.1,0-12.2-0.1-18.3,0c-2,0-2.9-0.4-2.9-2.7c0.1-11.7,0.1-23.5,0-35.2c0-1.8,0.5-2.4,2.4-2.4
		c12.8,0.1,25.6,0.1,38.4,0c1.9,0,2.3,0.6,2.3,2.4c-0.1,11.7-0.1,23.5,0,35.2c0,2.3-0.9,2.7-2.9,2.7C211.7,325.9,205.3,326,199,326z
		"/>
	<path class="st1" d="M282.8,139.4c-5.4-3.7-10.3-7.3-15.5-10.4c-5.1-3.1-10.1-6.3-14.8-10c-4.5-3.6-5-9.3-1.7-13.9
		c3.2-4.5,8.8-5.8,13.7-3.1c2.6,1.4,5.1,2.9,7.5,4.5c10.3,6.9,20.6,13.8,31,20.7c0.8,0.5,1.7,0.8,2.5,1.3c4.3,2.5,8,5.5,8,11.1
		c0,5.4-3.6,8.5-7.9,10.8c-1.4,0.8-2.8,1.6-4.2,2.5c-10.8,7.2-21.6,14.5-32.4,21.6c-1.8,1.2-3.9,2.2-5.9,3.1
		c-6.4,2.7-14.9-2.5-14.9-9.4c0-3.8,2.3-7.2,5.7-9.4c5.5-3.7,11.2-7.3,16.7-11C274.5,145.1,278.4,142.4,282.8,139.4z"/>
	<path class="st1" d="M115.8,139.4c2.2,1.5,4.3,2.8,6.4,4.2c7.2,4.8,14.5,9.5,21.6,14.3c6.2,4.2,7.9,10.3,4.3,15.6
		c-3.6,5.2-10.4,6.1-16.5,2.1c-10.5-7-21-14-31.5-21c-3-2-6.2-3.8-9.1-5.8c-7.5-5.2-7.6-13.6,0-18.8c13.8-9.3,27.7-18.4,41.6-27.4
		c5.7-3.7,12.5-2.3,15.8,2.9c3.2,5.1,1.8,11.1-3.9,14.9C134.9,126.8,125.3,133.1,115.8,139.4z"/>
	<path class="st1" d="M221.6,91.2c4.3,0.1,8,2.4,10,6.4c2,4,1.2,8.1-2.1,11.5c-0.7,0.7-1.2,1.7-1.7,2.7c-5,8.9-9.6,18-15.1,26.6
		c-7.1,11.1-13,22.9-19.9,34.2c-2,3.2-4.1,6.4-6.1,9.7c-3.7,6-9.5,7-15.6,3.9c-5-2.5-6.6-9.2-3.2-14.7c7.8-12.7,14.7-26,22.6-38.7
		c5.7-9.2,10.8-18.8,16.3-28.1c1.9-3.2,4-6.2,6.1-9.2C214.9,92.5,217.7,91.2,221.6,91.2z"/>
</g>
</svg>
