<?xml version="1.0" encoding="utf-8"?>
<!-- Generator: Adobe Illustrator 26.0.1, SVG Export Plug-In . SVG Version: 6.00 Build 0)  -->
<svg version="1.1" id="Layer_1" xmlns="http://www.w3.org/2000/svg" xmlns:xlink="http://www.w3.org/1999/xlink" x="0px" y="0px"
	 width="361px" height="333px" viewBox="0 0 361 333" style="enable-background:new 0 0 361 333;" xml:space="preserve">
<style type="text/css">
	.st0{fill:#5F22D9;}
	.st1{fill:#FFFFFF;}
	.st2{fill:#9285F4;}
	.st3{display:none;fill:#FEFEFE;}
	.st4{display:none;fill:#FCFCFC;}
</style>
<rect x="-593.3" y="-225.7" class="st0" width="320.2" height="229.8"/>
<rect x="-584.1" y="82.2" class="st1" width="320.2" height="229.8"/>
<rect x="-574.9" y="397.8" class="st2" width="320.2" height="229.8"/>
<g>
	<path class="st3" d="M238.5,352.7c-87.1,0-174.2,0-261.3,0c0-123.1,0-246.3-0.1-369.4c0-2.7,0.6-3.3,3.3-3.3
		c123.4,0.1,246.8,0.1,370.1,0c2.7,0,3.3,0.6,3.3,3.3c-0.1,122-0.1,244.1,0,366.1c0,2.7-0.6,3.3-3.3,3.3
		c-34.7-0.1-69.4-0.1-104.2-0.1c4-1.5,8-2.8,11.1-6c4-4.1,8.2-7.9,12-12.1c8.3-9,8.3-20.6-0.4-29.2c-17.8-17.6-35.3-35.4-53.2-52.9
		c-28.5-27.7-56.2-56.3-84.8-83.9c-1.5-1.5-1.5-2.3,0-3.7c6.8-6.3,13.3-13,20-19.4c23.5-22.6,45.9-46.4,69.6-68.8
		c9.8-9.2,19-18.9,28.5-28.5c7.2-7.2,14.5-14.2,21.4-21.7c6.9-7.5,7-18.5,0.4-26.2c-4.3-4.9-8.9-9.6-13.7-14
		c-8.8-7.9-20-7.6-28.7,0.6c-7.5,7.1-14.9,14.4-22.4,21.6c-19.8,19.3-39.1,39.2-58.9,58.5c-28.5,27.7-56.2,56.2-84.8,84
		c-9.9,9.6-9.8,21.6,0,31.3c6.5,6.5,13.1,12.8,19.7,19.2c23.5,22.6,46,46.3,69.6,68.9c23,22,44.6,45.3,67.8,67
		C225.5,343.1,230.6,349.6,238.5,352.7z"/>
</g>
<g>
	<path class="st1" d="M134.2,312c-20,0-40,0-60,0c-0.3-1-1.1-0.5-1.7-0.6c-9.9-1.6-18.9-5.2-26.9-11.3c-9.2-7.1-16-15.9-20-26.8
		c-1.2-3.1-1.1-6.6-2.6-9.6c0-67.1,0-134.1,0-201.2c0.8-0.2,0.6-0.9,0.7-1.4c1.2-5.9,2.8-11.6,6-16.9c4.2-7.1,9.5-13.1,16-18.1
		c11-8.4,23.7-11.9,37.4-11.9c64.7,0,129.4,0,194.1,0c2,0,4.1,0,6.1,0.2c19.6,1.4,34.7,10.8,45.8,26.7c6.2,8.9,8.2,19.3,8.2,30.1
		c0,61.3,0,122.7,0,184c0,3.7-0.3,7.4-0.9,11c-2.3,13.8-9.8,24.4-20.5,33c-7.2,5.7-15.2,9.5-24.1,11.4c-2.1,0.5-4.4,0.2-6.3,1.4
		c-19.8,0-39.6,0-59.4,0c-6.4-1.9-6.9-6.9-6.6-12.3c0-0.6,0-1.2,0-1.7c0-13.3,0-26.6,0-39.8c0-3.6-0.2-7.2-0.7-10.7
		c-1.1-7.2-4.8-13-9.6-18.5c1.2-0.2,2.2-0.5,3.2-0.6c12.9-1.4,25.2-4.5,36.8-10.7c10.8-5.7,18.7-14,24-24.8
		c2.9-5.7,4.5-11.9,5.5-18.2c1.7-10,2.2-20,0.8-30.1c-1.5-10.4-6.3-19.3-13.3-27.1c-0.9-1.1-1.9-1.9-1.2-3.7c4.1-11,3.2-22-0.4-33
		c-1.7-5.3-2.7-5.9-8.3-5.2c-0.5,0.1-0.9,0.2-1.4,0.3c-11.4,2.2-21.6,7.2-31.3,13.1c-2.9,1.8-5.4,2.2-8.6,1.4
		c-23.7-5.7-47.4-5.3-71.1,0.3c-2.2,0.5-4,0.3-5.7-0.9c-7.1-4.9-15.1-8.1-23.1-11.1c-4.4-1.6-8.8-3-13.5-3.1c-1.6,0-3.5-0.5-4.4,1.7
		c-2.5,6.2-4.6,12.4-4.7,19.2c0,5.9,0,11.9,3.2,17.3c0.5,0.9,0.7,1.7-0.3,2.8c-8,8.1-13.3,17.7-14.7,29c-2,15.3-0.6,30.3,5.7,44.7
		c3.3,7.5,7.3,14.4,13.6,19.8c9.7,8.3,21,13.1,33.3,16c6,1.4,12.1,2,18.6,3.1c-2.3,1.5-3.7,3.1-4.9,5c-2.4,3.8-4,7.9-4.7,12.4
		c-0.2,1.5-0.6,2.7-2.4,3.2c-4.5,1.3-8.9,2.5-13.6,2.9c-12.1,1.2-21.5-3.2-28.4-13.2c-4.4-6.5-9.3-12.4-16.8-15.7
		c-4.2-1.8-8.4-2.9-13-2.3c-3.5,0.4-4.1,1.9-2,4.8c1.4,2,3.2,3.7,5.5,4.6c3.2,1.3,5.4,3.7,7.4,6.3c3.8,5,7.5,10.2,9.7,16.2
		c3.1,8.1,9.6,12.7,17.6,15.1c10.6,3.2,21.6,3.3,32.5,1.5c1.9-0.3,2.5,0,2.5,2c0,9.4-0.1,18.8,0.3,28.2
		C142,306.1,139.8,310,134.2,312z"/>
	<path class="st0" d="M134.2,312c5.6-2,7.8-5.9,7.5-11.9c-0.4-9.4-0.3-18.8-0.3-28.2c0-2-0.6-2.3-2.5-2c-10.9,1.8-21.9,1.7-32.5-1.5
		c-7.9-2.4-14.5-6.9-17.6-15.1c-2.3-6-5.9-11.2-9.7-16.2c-2-2.6-4.3-4.9-7.4-6.3c-2.3-1-4-2.7-5.5-4.6c-2.1-2.9-1.5-4.4,2-4.8
		c4.5-0.6,8.8,0.5,13,2.3c7.5,3.3,12.4,9.2,16.8,15.7c6.8,10,16.3,14.4,28.4,13.2c4.7-0.5,9.1-1.6,13.6-2.9c1.7-0.5,2.1-1.8,2.4-3.2
		c0.7-4.4,2.3-8.6,4.7-12.4c1.2-1.9,2.6-3.5,4.9-5c-6.5-1.1-12.6-1.7-18.6-3.1c-12.3-2.9-23.6-7.7-33.3-16
		c-6.3-5.4-10.3-12.2-13.6-19.8c-6.3-14.4-7.6-29.4-5.7-44.7c1.4-11.3,6.7-20.9,14.7-29c1-1.1,0.8-1.9,0.3-2.8
		c-3.1-5.4-3.2-11.4-3.2-17.3c0-6.7,2.1-13,4.7-19.2c0.9-2.2,2.8-1.8,4.4-1.7c4.7,0.1,9.1,1.5,13.5,3.1c8,3,16,6.2,23.1,11.1
		c1.7,1.2,3.5,1.4,5.7,0.9c23.7-5.6,47.4-6,71.1-0.3c3.2,0.8,5.7,0.4,8.6-1.4c9.8-5.9,20-10.9,31.3-13.1c0.5-0.1,0.9-0.2,1.4-0.3
		c5.6-0.7,6.5-0.1,8.3,5.2c3.6,11,4.5,22,0.4,33c-0.7,1.8,0.3,2.7,1.2,3.7c7,7.8,11.8,16.7,13.3,27.1c1.5,10,1,20.1-0.8,30.1
		c-1.1,6.3-2.7,12.5-5.5,18.2c-5.4,10.8-13.2,19-24,24.8c-11.6,6.2-23.9,9.3-36.8,10.7c-1,0.1-2.1,0.4-3.2,0.6
		c4.8,5.5,8.5,11.3,9.6,18.5c0.5,3.5,0.7,7.1,0.7,10.7c0,13.3,0,26.6,0,39.8c0,0.6,0,1.2,0,1.7c-0.4,5.5,0.2,10.4,6.6,12.3
		C195.5,312,164.9,312,134.2,312z M124.6,259.5c1.6-0.2,3.4-0.3,3.4-2.3c0-1.8-1.5-2.3-3.1-2.1c-1.6,0.1-3.3,0.2-3.2,2.4
		C121.8,259.3,123.2,259.6,124.6,259.5z M136.5,258.3c1.2-0.9,3.9-0.2,3.9-2.6c0-2-2-2-3.5-1.9c-1.6,0-3.2,0.5-3.2,2.5
		C133.7,257.8,134.8,258.3,136.5,258.3z M112,253.2c-1.9-0.1-3,0.5-3,2c0.1,2.4,2.3,2.3,3.8,2.7c1.5,0.3,2.5-0.6,2.3-2.1
		C115,253.6,113.2,253.4,112,253.2z M100.3,246.6c-1.1,0.3-2.3,1.1-2,2.3c0.5,1.8,1.8,3.2,3.9,3.3c1.2,0,1.9-0.8,1.9-2.1
		C104.1,248.6,101.7,246.5,100.3,246.6z M92.8,238c-1.2,0.4-2.3,0.9-2,2.2c0.4,1.7,1.2,3.4,3.3,3.4c1.1,0,2.4-0.5,2.2-2
		C96,239.6,94.2,238.9,92.8,238z M88,235.2c0.8-0.3,1.6-0.7,1.5-1.8c-0.3-1.6-1.3-2.6-2.9-2.8c-1-0.1-1.7,0.6-1.5,1.6
		C85.4,233.7,86.3,234.9,88,235.2z M81,228.8c0.8-0.2,1.6-0.5,1.4-1.5c-0.2-1.3-1.3-1.6-2.4-1.7c-0.8-0.1-1.8,0.3-1.6,1.2
		C78.7,228.1,79.9,228.5,81,228.8z"/>
	<path class="st4" d="M285.6,312c1.9-1.2,4.2-0.9,6.3-1.4c8.9-2,16.9-5.7,24.1-11.4c10.8-8.6,18.2-19.2,20.5-33
		c0.6-3.6,0.9-7.3,0.9-11c0-61.3,0-122.7,0-184c0-10.8-2-21.1-8.2-30.1c-11.1-15.8-26.2-25.3-45.8-26.7c-2-0.1-4.1-0.2-6.1-0.2
		c-64.7,0-129.4,0-194.1,0c-13.8,0-26.4,3.5-37.4,11.9c-6.5,5-11.8,11-16,18.1c-3.2,5.3-4.9,11-6,16.9c-0.1,0.5,0.1,1.2-0.7,1.4
		c0-15.5,0-31-0.1-46.5c0-1.9,0.3-2.4,2.4-2.4c65.5,0.1,130.9,0.1,196.4,0.1c37.9,0,75.8,0,113.7-0.1c2.1,0,2.5,0.4,2.5,2.5
		c-0.1,97.9-0.1,195.7,0,293.6c0,2-0.5,2.4-2.4,2.4C318.9,312,302.2,312,285.6,312z"/>
	<path class="st4" d="M23.1,263.7c1.5,3,1.4,6.5,2.6,9.6c4,10.9,10.8,19.7,20,26.8c8,6.1,17,9.7,26.9,11.3c0.6,0.1,1.4-0.3,1.7,0.6
		c-16.4,0-32.9,0-49.3,0c-1.6,0-1.9-0.3-1.9-1.9C23.1,294.7,23.1,279.2,23.1,263.7z"/>
	<path class="st1" d="M124.6,259.5c-1.5,0-2.9-0.3-3-2c-0.1-2.2,1.7-2.3,3.2-2.4c1.6-0.2,3.1,0.4,3.1,2.1
		C128,259.3,126.2,259.4,124.6,259.5z"/>
	<path class="st1" d="M136.5,258.3c-1.7,0-2.8-0.5-2.8-2c0-2.1,1.5-2.5,3.2-2.5c1.5,0,3.5,0,3.5,1.9
		C140.3,258.1,137.6,257.4,136.5,258.3z"/>
	<path class="st1" d="M112,253.2c1.2,0.2,3,0.4,3.2,2.5c0.1,1.5-0.9,2.5-2.3,2.1c-1.6-0.3-3.8-0.3-3.8-2.7
		C109,253.7,110.1,253,112,253.2z"/>
	<path class="st1" d="M100.3,246.6c1.5-0.1,3.8,2.1,3.8,3.5c0,1.2-0.7,2.1-1.9,2.1c-2.1-0.1-3.4-1.5-3.9-3.3
		C98,247.6,99.1,246.8,100.3,246.6z"/>
	<path class="st1" d="M92.8,238c1.4,0.9,3.2,1.5,3.5,3.5c0.2,1.5-1.1,2-2.2,2c-2.1,0-2.9-1.7-3.3-3.4C90.4,239,91.5,238.4,92.8,238z
		"/>
	<path class="st1" d="M88,235.2c-1.7-0.3-2.6-1.5-2.9-3c-0.2-1,0.5-1.7,1.5-1.6c1.6,0.2,2.6,1.2,2.9,2.8
		C89.6,234.5,88.8,234.9,88,235.2z"/>
	<path class="st1" d="M81,228.8c-1.2-0.3-2.4-0.8-2.6-2c-0.2-0.9,0.8-1.3,1.6-1.2c1.1,0.1,2.2,0.5,2.4,1.7
		C82.6,228.3,81.8,228.6,81,228.8z"/>
</g>
</svg>
