<?xml version="1.0" encoding="utf-8"?>
<!-- Generator: Adobe Illustrator 26.0.1, SVG Export Plug-In . SVG Version: 6.00 Build 0)  -->
<svg version="1.1" id="Layer_1" xmlns="http://www.w3.org/2000/svg" xmlns:xlink="http://www.w3.org/1999/xlink" x="0px" y="0px"
	 width="361px" height="333px" viewBox="0 0 361 333" style="enable-background:new 0 0 361 333;" xml:space="preserve">
<style type="text/css">
	.st0{fill:#5F22D9;}
	.st1{fill:#FFFFFF;}
	.st2{fill:#9285F4;}
	.st3{display:none;fill:#FEFEFE;}
</style>
<rect x="-593.3" y="-225.7" class="st0" width="320.2" height="229.8"/>
<rect x="-584.1" y="82.2" class="st1" width="320.2" height="229.8"/>
<rect x="-574.9" y="397.8" class="st2" width="320.2" height="229.8"/>
<g>
	<path class="st3" d="M238.5,352.7c-87.1,0-174.2,0-261.3,0c0-123.1,0-246.3-0.1-369.4c0-2.7,0.6-3.3,3.3-3.3
		c123.4,0.1,246.8,0.1,370.1,0c2.7,0,3.3,0.6,3.3,3.3c-0.1,122-0.1,244.1,0,366.1c0,2.7-0.6,3.3-3.3,3.3
		c-34.7-0.1-69.4-0.1-104.2-0.1c4-1.5,8-2.8,11.1-6c4-4.1,8.2-7.9,12-12.1c8.3-9,8.3-20.6-0.4-29.2c-17.8-17.6-35.3-35.4-53.2-52.9
		c-28.5-27.7-56.2-56.3-84.8-83.9c-1.5-1.5-1.5-2.3,0-3.7c6.8-6.3,13.3-13,20-19.4c23.5-22.6,45.9-46.4,69.6-68.8
		c9.8-9.2,19-18.9,28.5-28.5c7.2-7.2,14.5-14.2,21.4-21.7s7-18.5,0.4-26.2c-4.3-4.9-8.9-9.6-13.7-14c-8.8-7.9-20-7.6-28.7,0.6
		C221-6.1,213.6,1.2,206.1,8.4c-19.8,19.3-39.1,39.2-58.9,58.5c-28.5,27.7-56.2,56.2-84.8,84c-9.9,9.6-9.8,21.6,0,31.3
		c6.5,6.5,13.1,12.8,19.7,19.2c23.5,22.6,46,46.3,69.6,68.9c23,22,44.6,45.3,67.8,67C225.5,343.1,230.6,349.6,238.5,352.7z"/>
</g>
<g>
	<path class="st3" d="M180.5,358.4c-63,0-125.9,0-188.9,0.1c-2.4,0-3.1-0.3-3.1-3c0.1-126,0.1-252.1,0-378.1c0-2.4,0.6-2.8,2.9-2.8
		c126,0.1,252.1,0.1,378.1,0c2.8,0,2.9,0.9,2.9,3.2c-0.1,125.9-0.1,251.8,0,377.8c0,2.6-0.6,3-3.1,3
		C306.4,358.4,243.5,358.4,180.5,358.4z M58.4,131.2c1.2,0.3,1.9,0.5,2.5,0.8c38.2,13.3,76.5,26.7,114.7,40.1
		c3.6,1.3,6.9,1.3,10.5,0c12.5-4.5,25.1-8.8,37.6-13.2c34.8-12.2,69.6-24.4,104.5-36.5c3.4-1.2,5.9-3,5.8-6.8
		c-0.1-3.6-2.5-5.4-5.8-6.4c-4.5-1.4-8.9-3.1-13.4-4.6c-43.2-14.7-86.3-29.4-129.5-44.1c-2.5-0.9-4.8-1.5-7.6-0.5
		c-48.3,16.5-96.6,33-145,49.5c-3.1,1-5,2.9-5.2,6.1c-0.1,3.4,1.9,5.5,5,6.6c2.9,1,5.8,2.3,8.8,3c3.2,0.7,4.2,2.3,4.2,5.6
		c-0.2,15.6-0.2,31.2,0,46.8c0,2.7-0.7,4.1-3.2,5.4c-9.6,4.8-13.7,16.2-9.7,26.2c4,9.9,14.9,15.2,25.2,12.2
		c8.4-2.4,14.1-9.6,14.9-18.6c0.7-8-4-16.2-11.8-20.1c-1.4-0.7-2.8-1-2.7-3.3C58.5,163.4,58.4,147.5,58.4,131.2z M82.1,152.9
		c0,9.3,0,18,0,26.8c0,15.7,0,31.5,0,47.2c0,4.6,1.7,6.6,6.2,7.3c2,0.3,4,0.4,5.9,0.7c29.3,4.2,55.2,16.2,78.7,33.9
		c8.6,6.5,8.5,6.4,17.1-0.3c24.4-19.2,51.4-32.2,83-33.7c4.5-0.2,6.6-2.6,6.6-7.4c0-11.1,0-22.2,0-33.4c0-13.6,0-27.2,0-41
		c-1.2,0.3-2.1,0.5-3,0.9c-28.9,10.1-57.7,20.1-86.6,30.3c-6.2,2.2-12.1,2.3-18.2,0c-10.2-3.7-20.4-7.2-30.6-10.8
		C121.7,166.7,102.1,159.9,82.1,152.9z"/>
	<path class="st1" d="M58.4,131.2c0,16.3,0.1,32.2-0.1,48c0,2.3,1.3,2.6,2.7,3.3c7.7,3.9,12.5,12.1,11.8,20.1
		c-0.8,9-6.6,16.2-14.9,18.6c-10.3,3-21.2-2.3-25.2-12.2c-4-9.9,0.1-21.4,9.7-26.2c2.5-1.3,3.2-2.6,3.2-5.4
		c-0.1-15.6-0.2-31.2,0-46.8c0-3.4-1-4.9-4.2-5.6c-3-0.7-5.9-1.9-8.8-3c-3.1-1.1-5.2-3.2-5-6.6c0.1-3.2,2.1-5.1,5.2-6.1
		C81.2,93,129.5,76.5,177.8,60c2.7-0.9,5.1-0.3,7.6,0.5c43.2,14.7,86.3,29.4,129.5,44.1c4.5,1.5,8.9,3.1,13.4,4.6
		c3.3,1,5.7,2.8,5.8,6.4c0.1,3.8-2.4,5.6-5.8,6.8c-34.8,12.1-69.7,24.4-104.5,36.5c-12.5,4.4-25.1,8.7-37.6,13.2
		c-3.6,1.3-6.8,1.3-10.5,0C137.5,158.7,99.2,145.3,61,132C60.3,131.8,59.6,131.6,58.4,131.2z"/>
	<path class="st1" d="M82.1,152.9c20,7,39.6,13.8,59.2,20.6c10.2,3.6,20.4,7.1,30.6,10.8c6.1,2.2,12.1,2.1,18.2,0
		c28.8-10.2,57.7-20.2,86.6-30.3c0.9-0.3,1.9-0.5,3-0.9c0,13.8,0,27.4,0,41c0,11.1,0,22.2,0,33.4c0,4.7-2.1,7.1-6.6,7.4
		c-31.6,1.5-58.6,14.5-83,33.7c-8.6,6.7-8.5,6.8-17.1,0.3c-23.5-17.6-49.4-29.6-78.7-33.9c-2-0.3-4-0.4-5.9-0.7
		c-4.5-0.8-6.2-2.7-6.2-7.3c0-15.7,0-31.5,0-47.2C82.1,171,82.1,162.2,82.1,152.9z"/>
</g>
</svg>
