<?xml version="1.0" encoding="utf-8"?>
<!-- Generator: Adobe Illustrator 26.0.1, SVG Export Plug-In . SVG Version: 6.00 Build 0)  -->
<svg version="1.1" id="Layer_1" xmlns="http://www.w3.org/2000/svg" xmlns:xlink="http://www.w3.org/1999/xlink" x="0px" y="0px"
	 width="361px" height="333px" viewBox="0 0 361 333" style="enable-background:new 0 0 361 333;" xml:space="preserve">
<style type="text/css">
	.st0{fill:#5F22D9;}
	.st1{fill:#FFFFFF;}
	.st2{fill:#9285F4;}
	.st3{display:none;fill:#FEFEFE;}
</style>
<rect x="-593.3" y="-225.7" class="st0" width="320.2" height="229.8"/>
<rect x="-584.1" y="82.2" class="st1" width="320.2" height="229.8"/>
<rect x="-574.9" y="397.8" class="st2" width="320.2" height="229.8"/>
<g>
	<path class="st3" d="M238.5,352.7c-87.1,0-174.2,0-261.3,0c0-123.1,0-246.3-0.1-369.4c0-2.7,0.6-3.3,3.3-3.3
		c123.4,0.1,246.8,0.1,370.1,0c2.7,0,3.3,0.6,3.3,3.3c-0.1,122-0.1,244.1,0,366.1c0,2.7-0.6,3.3-3.3,3.3
		c-34.7-0.1-69.4-0.1-104.2-0.1c4-1.5,8-2.8,11.1-6c4-4.1,8.2-7.9,12-12.1c8.3-9,8.3-20.6-0.4-29.2c-17.8-17.6-35.3-35.4-53.2-52.9
		c-28.5-27.7-56.2-56.3-84.8-83.9c-1.5-1.5-1.5-2.3,0-3.7c6.8-6.3,13.3-13,20-19.4c23.5-22.6,45.9-46.4,69.6-68.8
		c9.8-9.2,19-18.9,28.5-28.5c7.2-7.2,14.5-14.2,21.4-21.7s7-18.5,0.4-26.2c-4.3-4.9-8.9-9.6-13.7-14c-8.8-7.9-20-7.6-28.7,0.6
		C221-6.1,213.6,1.2,206.1,8.4c-19.8,19.3-39.1,39.2-58.9,58.5c-28.5,27.7-56.2,56.2-84.8,84c-9.9,9.6-9.8,21.6,0,31.3
		c6.5,6.5,13.1,12.8,19.7,19.2c23.5,22.6,46,46.3,69.6,68.9c23,22,44.6,45.3,67.8,67C225.5,343.1,230.6,349.6,238.5,352.7z"/>
</g>
<g>
	<path class="st3" d="M185.1,345.4c-59,0-118.1,0-177.1,0.1c-2.7,0-3-0.7-3-3.1C5.1,225.1,5.1,107.9,5-9.4c0-2.4,0.4-3.1,3-3.1
		c118,0.1,235.9,0.1,353.9,0c2.7,0,3.1,0.7,3.1,3.3c-0.1,117.2-0.1,234.3,0,351.5c0,2.6-0.5,3.2-3.2,3.2
		C302.9,345.4,244,345.4,185.1,345.4z M33,201.1c0,27.2,0,54.4,0,81.6c0,20.4,14.5,34.8,34.9,34.8c17.8,0,35.6,0,53.3,0
		c14.7,0,24-9.3,24-23.9c0-19.3,0-38.6,0-57.9c0-8.9,4.2-13.1,12.9-13.1c17.6,0,35.1,0,52.7,0c9,0,13.2,4.2,13.2,13.2
		c0,19.8-0.1,39.5,0,59.3c0.1,12.2,9.4,22.2,21.3,22.3c19.5,0.2,39.1,0.6,58.6-0.1c18.9-0.7,32.2-14.7,32.3-33
		c0.2-55.6,0.1-111.1,0-166.7c0-8.3-3.6-14.8-10.6-19.2c-3.6-2.3-7.5-4.2-11.1-6.4C275.8,68.8,237,45.5,198.2,22.2
		c-8.6-5.2-17.4-5.8-26.3-0.5C129.8,46.9,87.7,72,45.6,97.1c-8.6,5.1-12.7,12.3-12.7,22.3C33,146.7,33,173.9,33,201.1z"/>
	<path class="st1" d="M33,201.1c0-27.2,0.1-54.4,0-81.6c-0.1-10,4.1-17.2,12.7-22.3C87.7,72,129.8,46.9,171.9,21.7
		c8.9-5.3,17.7-4.7,26.3,0.5C237,45.5,275.8,68.8,314.5,92c3.7,2.2,7.5,4.1,11.1,6.4c7,4.4,10.6,10.9,10.6,19.2
		c0.1,55.6,0.2,111.1,0,166.7c-0.1,18.3-13.5,32.3-32.3,33c-19.5,0.8-39,0.4-58.6,0.1c-11.9-0.1-21.2-10.1-21.3-22.3
		c-0.1-19.8,0-39.5,0-59.3c0-9-4.2-13.2-13.2-13.2c-17.6,0-35.1,0-52.7,0c-8.8,0-12.9,4.2-12.9,13.1c0,19.3,0,38.6,0,57.9
		c0,14.6-9.4,23.9-24,23.9c-17.8,0-35.6,0-53.3,0c-20.4,0-34.9-14.4-34.9-34.8C32.9,255.5,33,228.3,33,201.1z"/>
</g>
</svg>
