<?xml version="1.0" encoding="utf-8"?>
<!-- Generator: Adobe Illustrator 26.0.1, SVG Export Plug-In . SVG Version: 6.00 Build 0)  -->
<svg version="1.1" id="Layer_1" xmlns="http://www.w3.org/2000/svg" xmlns:xlink="http://www.w3.org/1999/xlink" x="0px" y="0px"
	 width="361px" height="333px" viewBox="0 0 361 333" style="enable-background:new 0 0 361 333;" xml:space="preserve">
<style type="text/css">
	.st0{fill:#5F22D9;}
	.st1{fill:#FFFFFF;}
	.st2{fill:#9285F4;}
	.st3{display:none;fill:#FEFEFE;}
	.st4{display:none;fill:#FDFDFD;}
</style>
<rect x="-593.3" y="-225.7" class="st0" width="320.2" height="229.8"/>
<rect x="-584.1" y="82.2" class="st1" width="320.2" height="229.8"/>
<rect x="-574.9" y="397.8" class="st2" width="320.2" height="229.8"/>
<g>
	<path class="st3" d="M238.5,352.7c-87.1,0-174.2,0-261.3,0c0-123.1,0-246.3-0.1-369.4c0-2.7,0.6-3.3,3.3-3.3
		c123.4,0.1,246.8,0.1,370.1,0c2.7,0,3.3,0.6,3.3,3.3c-0.1,122-0.1,244.1,0,366.1c0,2.7-0.6,3.3-3.3,3.3
		c-34.7-0.1-69.4-0.1-104.2-0.1c4-1.5,8-2.8,11.1-6c4-4.1,8.2-7.9,12-12.1c8.3-9,8.3-20.6-0.4-29.2c-17.8-17.6-35.3-35.4-53.2-52.9
		c-28.5-27.7-56.2-56.3-84.8-83.9c-1.5-1.5-1.5-2.3,0-3.7c6.8-6.3,13.3-13,20-19.4c23.5-22.6,45.9-46.4,69.6-68.8
		c9.8-9.2,19-18.9,28.5-28.5c7.2-7.2,14.5-14.2,21.4-21.7c6.9-7.5,7-18.5,0.4-26.2c-4.3-4.9-8.9-9.6-13.7-14
		c-8.8-7.9-20-7.6-28.7,0.6c-7.5,7.1-14.9,14.4-22.4,21.6c-19.8,19.3-39.1,39.2-58.9,58.5c-28.5,27.7-56.2,56.2-84.8,84
		c-9.9,9.6-9.8,21.6,0,31.3c6.5,6.5,13.1,12.8,19.7,19.2c23.5,22.6,46,46.3,69.6,68.9c23,22,44.6,45.3,67.8,67
		C225.5,343.1,230.6,349.6,238.5,352.7z"/>
</g>
<g>
	<path class="st1" d="M337.5,86c0,53.7,0,107.4,0,161.1c-0.6,0.2-0.6,0.7-0.6,1.2c-1.9,12.5-5.6,24.2-13.5,34.5
		c-6,7.8-12.3,15-20.6,20.7c-15,10.3-31.4,15-49.4,15c-48.4,0-96.9-0.1-145.3,0c-20.3,0-38.4-6.2-54.4-18.7
		c-9.5-7.4-16.4-17-21.9-27.6c-5.6-10.9-7.7-22.7-7.7-35c0-47.2,0-94.5,0-141.7c0-14.7,3-28.7,11.3-41.3c5.8-8.9,12.3-17,21-23.4
		c10.2-7.5,21.4-12.5,33.8-15.1c2.5-0.5,5.2-0.4,7.6-1.6c55.1,0,110.2,0,165.3,0c0.2,0.2,0.4,0.5,0.6,0.5
		c15.4,1.3,29.2,7.2,41.6,16.1c8.8,6.2,15.3,14.7,21.2,23.6c4.3,6.5,6.8,13.9,8.7,21.5C336.1,79.1,336.1,82.7,337.5,86z
		 M180.6,264.9C180.6,264.9,180.6,264.9,180.6,264.9c16,0,32.1,0.2,48.1-0.1c15.9-0.3,29.4-6.6,40.1-18.3
		c9.1-10,13.3-22.1,13.3-35.6c0-29.7,0.1-59.4,0-89.1c-0.1-18.1-7.1-32.9-22-43.7c-9.2-6.6-19.4-10.4-30.6-10.5
		c-32.4-0.2-64.8-0.2-97.2,0c-14.5,0.1-27,6-37.3,15.9c-10.1,9.7-15.4,22.1-15.5,36.2c-0.2,31-0.3,62,0,93
		c0.2,15.5,6.3,28.6,18.5,38.8c11,9.2,23.5,13.4,37.7,13.4C150.7,264.8,165.7,264.9,180.6,264.9z"/>
	<path class="st4" d="M97.9,14c-2.4,1.2-5.1,1.1-7.6,1.6c-12.3,2.6-23.5,7.6-33.8,15.1c-8.7,6.4-15.2,14.5-21,23.4
		c-8.3,12.6-11.3,26.5-11.3,41.3c-0.1,47.2,0,94.5,0,141.7c0,12.3,2.1,24.1,7.7,35c5.4,10.6,12.4,20.2,21.9,27.6
		c15.9,12.5,34,18.7,54.4,18.7c48.4-0.1,96.9,0,145.3,0c18,0,34.4-4.7,49.4-15c8.2-5.6,14.6-12.8,20.6-20.7
		c7.8-10.3,11.6-22,13.5-34.5c0.1-0.5,0-1,0.6-1.2c0,23.3,0,46.6,0,69.8c0,1.8-0.4,2.1-2.1,2.1c-103.2-0.1-206.5-0.1-309.7,0
		c-1.8,0-2.1-0.4-2.1-2.1c0.1-100.2,0.1-200.5,0-300.7c0-1.8,0.4-2.1,2.1-2.1C49.7,14.1,73.8,14,97.9,14z"/>
	<path class="st4" d="M337.5,86c-1.3-3.3-1.3-6.8-2.2-10.2c-1.9-7.6-4.4-15-8.7-21.5c-5.9-8.9-12.4-17.3-21.2-23.6
		c-12.5-8.9-26.2-14.7-41.6-16.1c-0.2,0-0.4-0.3-0.6-0.5c24.1,0,48.2,0,72.2,0c1.8,0,2.1,0.4,2.1,2.1
		C337.4,39.4,337.5,62.7,337.5,86z"/>
	<path class="st0" d="M180.6,264.9c-15,0-29.9,0-44.9,0c-14.2,0-26.7-4.2-37.7-13.4c-12.2-10.2-18.3-23.3-18.5-38.8
		c-0.4-31-0.3-62,0-93c0.1-14.1,5.3-26.4,15.5-36.2c10.3-9.9,22.8-15.8,37.3-15.9c32.4-0.2,64.8-0.2,97.2,0
		c11.2,0.1,21.4,3.9,30.6,10.5c15,10.8,21.9,25.6,22,43.7c0.2,29.7,0.1,59.4,0,89.1c0,13.5-4.2,25.6-13.3,35.6
		c-10.7,11.7-24.1,18-40.1,18.3C212.7,265.1,196.7,264.8,180.6,264.9C180.6,264.9,180.6,264.9,180.6,264.9z M180.8,85.4
		c-15.6,0-31.1,0-46.6,0c-6.8,0-13.2,1.8-18.9,5.2c-11.4,6.9-17.3,17.2-17.4,30.5c-0.2,30.1-0.1,60.2,0,90.3
		c0.1,19.6,14.9,35.2,35.1,35.5c31.9,0.5,63.8,0.2,95.7,0.1c6.2,0,12.2-1.7,17.5-5c11.8-7.3,18-18.1,18.1-31.9c0.3-29,0.1-58,0.1-87
		c0-4.8-0.6-9.4-2.5-14c-6.2-15.1-18.6-23.7-34.9-23.8C211.5,85.4,196.2,85.4,180.8,85.4z"/>
	<path class="st1" d="M180.8,85.4c15.4,0,30.7,0,46.1,0c16.3,0,28.7,8.7,34.9,23.8c1.9,4.6,2.6,9.2,2.5,14c0,29,0.2,58-0.1,87
		c-0.1,13.7-6.3,24.6-18.1,31.9c-5.3,3.3-11.3,5-17.5,5c-31.9,0.1-63.8,0.4-95.7-0.1c-20.3-0.3-35-15.9-35.1-35.5
		c-0.1-30.1-0.1-60.2,0-90.3c0.1-13.3,6-23.6,17.4-30.5c5.7-3.4,12.1-5.2,18.9-5.2C149.7,85.4,165.3,85.4,180.8,85.4z M180.7,210.8
		c25.3,0.2,46.1-20.8,46.2-44.4c0.1-23.7-20.6-44.7-45.8-44.8c-26.3-0.1-46.3,21.4-46.4,44.4C134.6,189.2,154.7,210.9,180.7,210.8z
		 M233.4,106.2c-4.8,0-8.9,4-8.9,8.8c-0.1,4.9,4.1,9.1,9,9c4.6-0.1,9.1-4.5,9.5-8.8C243.2,111.7,237.9,105.8,233.4,106.2z"/>
	<path class="st0" d="M180.7,210.8c-26.1,0.1-46.1-21.6-46-44.8c0.1-23,20.1-44.5,46.4-44.4c25.2,0.1,45.9,21.1,45.8,44.8
		C226.8,190,206.1,211,180.7,210.8z M180.6,192.9c14,0.2,27.8-11.1,27.9-26.3c0.1-14.7-12.1-26.8-27.1-27.2
		c-14.1-0.3-28.1,11.6-28.3,26.4C152.9,181,166.7,193.1,180.6,192.9z"/>
	<path class="st0" d="M233.4,106.2c4.5-0.4,9.8,5.5,9.6,9c-0.3,4.3-4.8,8.7-9.5,8.8c-4.9,0.1-9.1-4.1-9-9
		C224.5,110.2,228.6,106.2,233.4,106.2z"/>
	<path class="st1" d="M180.6,192.9c-13.8,0.1-27.7-12-27.5-27.1c0.2-14.8,14.2-26.7,28.3-26.4c15,0.4,27.2,12.5,27.1,27.2
		C208.4,181.9,194.6,193.2,180.6,192.9z"/>
</g>
</svg>
