<?xml version="1.0" encoding="utf-8"?>
<!-- Generator: Adobe Illustrator 26.0.1, SVG Export Plug-In . SVG Version: 6.00 Build 0)  -->
<svg version="1.1" id="Layer_1" xmlns="http://www.w3.org/2000/svg" xmlns:xlink="http://www.w3.org/1999/xlink" x="0px" y="0px"
	 viewBox="0 0 405.1 307.9" style="enable-background:new 0 0 405.1 307.9;" xml:space="preserve">
<style type="text/css">
	.st0{fill:#512B81;}
	.st1{display:none;fill:#FEFEFE;}
	.st2{fill:#FCFCFC;}
	.st3{fill:#FDFDFD;}
	.st4{fill:#FBFBFB;}
</style>
<g>
	<path class="st0" d="M11.1,261.1c0-71.5,0-143,0-214.4c1.3-0.9,1.1-2.4,1.4-3.6C17.5,23.8,34.8,10,54.7,10
		c98.9-0.1,197.9-0.1,296.8,0.1c17.9,0,30.9,9,39.2,24.9c2.1,4,2.5,8.4,4.3,12.5c0,71.2,0,142.5,0,213.7c-0.8,0.2-0.7,0.9-0.8,1.5
		c-4.3,20.7-22.7,35.7-46.4,35.4c-49.2-0.5-98.4-0.2-147.6-0.2c-48.2,0-96.4,0-144.7,0c-20.7,0-37.8-13.5-43-33.4
		C12.2,263.3,12.5,261.8,11.1,261.1z M130.9,233.9c19.6,0,39.2,0,58.8,0c8.4,0,13.2-4.9,13.3-13.3c0-2.1,0-4.2,0-6.4
		c-0.1-24.8-19.2-44.2-44.1-44.4c-18.6-0.2-37.2-0.2-55.8,0c-14.8,0.2-26.8,6.3-35.6,18.2c-5.7,7.7-8,16.6-8.5,26.2
		c-0.9,16.9,5.2,20.1,19.5,19.7C95.9,233.6,113.4,233.9,130.9,233.9z M171,113.8c0-22.1-18.1-40.1-40.1-40
		c-22,0.2-39.7,18-39.8,39.9c-0.1,22.1,17.8,40.1,39.9,40.1C153.1,153.9,171,135.9,171,113.8z M290.8,169.8c14.5,0,29,0,43.4,0
		c7.4,0,12.7-5,12.8-11.8c0.1-6.9-5.3-12.2-12.8-12.2c-28.7-0.1-57.4,0-86.1,0c-3.1,0-5.9,0.7-8.4,2.6c-3.9,3.1-5.5,8.4-4,13.1
		c1.6,4.9,5.9,8.2,11.3,8.2C261.6,169.9,276.2,169.8,290.8,169.8z M291.3,209.9C291.3,209.9,291.3,209.9,291.3,209.9
		c-14.5,0-29-0.1-43.4,0c-7.6,0-12.6,4.8-12.7,11.8c-0.1,7,5.2,12.2,12.8,12.2c28.7,0.1,57.4,0,86.1,0c2.5,0,5-0.5,7.2-1.8
		c4.4-2.7,6.7-8,5.6-12.9c-1.3-5.4-5.9-9.2-11.6-9.3C320.5,209.9,305.9,209.9,291.3,209.9z M290.7,105.9c14.4,0,28.7,0,43.1,0
		c7.8,0,13.3-5.1,13.2-12.2c-0.1-6.9-5.5-11.8-13.2-11.8c-28.5,0-56.9,0-85.4,0c-8,0-13.3,4.8-13.3,12c0,7.1,5.3,12,13.3,12
		C262.5,105.9,276.6,105.9,290.7,105.9z"/>
	<path class="st1" d="M-64,16.5c-1.8-4-2.3-8.5-4.3-12.5c-8.3-15.9-21.3-24.9-39.2-24.9c-98.9-0.2-197.9-0.1-296.8-0.1
		c-19.9,0-37.2,13.8-42.1,33.1c-0.3,1.2-0.1,2.8-1.4,3.6c0-27.3,0-54.7,0-82c0-2.1,0.2-2.8,2.6-2.8c126.2,0.1,252.5,0.1,378.7,0
		c2.4,0,2.6,0.7,2.6,2.8C-64.1-38.7-64-11.1-64,16.5z"/>
	<path class="st1" d="M-447.9,230.2c1.3,0.7,1,2.2,1.3,3.3c5.2,20,22.3,33.4,43,33.4c48.2,0.1,96.4,0,144.7,0
		c49.2,0,98.4-0.4,147.6,0.2c23.7,0.3,42.1-14.8,46.4-35.4c0.1-0.6,0-1.3,0.8-1.5c0,27.4,0,54.7,0.1,82.1c0,2.2-0.5,2.7-2.7,2.7
		c-126.2-0.1-252.4-0.1-378.6,0c-2.2,0-2.7-0.4-2.7-2.7C-447.9,284.9-447.9,257.6-447.9,230.2z"/>
	<path class="st2" d="M130.9,233.9c-17.5,0-35-0.4-52.5,0.1c-14.3,0.4-20.3-2.8-19.5-19.7c0.5-9.6,2.8-18.5,8.5-26.2
		c8.8-11.9,20.8-18,35.6-18.2c18.6-0.2,37.2-0.2,55.8,0c24.9,0.3,44,19.6,44.1,44.4c0,2.1,0,4.2,0,6.4c-0.1,8.4-4.9,13.2-13.3,13.3
		C170.2,234,150.5,233.9,130.9,233.9z"/>
	<path class="st3" d="M171,113.8c0,22.1-17.9,40.1-39.9,40c-22,0-40-18-39.9-40.1C91.3,91.8,109,74,130.9,73.9
		C152.8,73.7,171,91.8,171,113.8z"/>
	<path class="st4" d="M290.8,169.8c-14.6,0-29.2,0.1-43.8,0c-5.4,0-9.7-3.3-11.3-8.2c-1.5-4.7,0.1-10,4-13.1
		c2.5-1.9,5.3-2.6,8.4-2.6c28.7,0,57.4,0,86.1,0c7.6,0,12.9,5.3,12.8,12.2c-0.1,6.8-5.4,11.7-12.8,11.8
		C319.7,169.9,305.3,169.8,290.8,169.8z"/>
	<path class="st4" d="M291.3,209.9c14.6,0,29.2-0.1,43.8,0c5.8,0,10.3,3.8,11.6,9.3c1.2,4.8-1.1,10.1-5.6,12.9
		c-2.2,1.3-4.6,1.8-7.2,1.8c-28.7,0-57.4,0-86.1,0c-7.6,0-12.8-5.2-12.8-12.2c0.1-6.9,5.2-11.7,12.7-11.8
		C262.3,209.9,276.8,209.9,291.3,209.9C291.3,209.9,291.3,209.9,291.3,209.9z"/>
	<path class="st3" d="M290.7,105.9c-14.1,0-28.2,0-42.3,0c-7.9,0-13.3-4.9-13.3-12c0-7.2,5.3-12,13.3-12c28.5,0,56.9,0,85.4,0
		c7.7,0,13.1,4.9,13.2,11.8c0.1,7.1-5.4,12.1-13.2,12.2C319.4,105.9,305.1,105.9,290.7,105.9z"/>
</g>
</svg>
