<?xml version="1.0" encoding="utf-8"?>
<!-- Generator: Adobe Illustrator 26.0.1, SVG Export Plug-In . SVG Version: 6.00 Build 0)  -->
<svg version="1.1" id="Layer_1" xmlns="http://www.w3.org/2000/svg" xmlns:xlink="http://www.w3.org/1999/xlink" x="0px" y="0px"
	 viewBox="0 0 394 390" style="enable-background:new 0 0 394 390;" xml:space="preserve">
<style type="text/css">
	.st0{display:none;fill:#FDFDFD;}
	.st1{fill:#512B81;}
	.st2{display:none;fill:#FCFCFC;}
</style>
<g>
	<path class="st0" d="M195,384.9c-63,0-125.9,0-188.9,0.1c-2.5,0-3.1-0.4-3.1-3C3.1,256,3.1,130.1,3,4.2C3,1.3,3.8,1,6.3,1
		c125.8,0.1,251.6,0.1,377.4,0c2.6,0,3.3,0.4,3.3,3.2c-0.1,125.8-0.1,251.6,0,377.4c0,2.9-0.8,3.4-3.5,3.4
		C320.7,384.9,257.8,384.9,195,384.9z M147.2,325c3.4,0,6.8,0.1,10.1,0c1.8-0.1,2.3,0.6,2.3,2.3c0,4-0.6,8.1,0.4,12
		c3.4,13.1,11.5,22.1,24.4,26c13.1,4,25,1.1,35.1-8.2c8.3-7.7,11.9-17.4,10.8-28.7c-0.3-2.7,0.4-3.7,3.4-3.6
		c6.2,0.3,12.5,0,18.7,0.1c1.8,0,2.6-0.3,2.6-2.4c-0.2-4.4-0.1-8.7,0-13.1c0.1-1.9-0.4-2.7-2.4-2.5c-2.2,0.2-4.5-0.1-6.7,0.1
		c-2.2,0.2-3-0.4-2.9-2.8c0.2-5.7,0.3-11.5,0-17.2c-0.2-3.2,0.6-4.2,4-4.1c8.1,0.3,8.1,0.1,8.1-7.9c0-3.2,1.4-7.3-0.5-9.4
		c-1.8-1.9-5.9-0.5-9-0.5c-2,0-2.5-0.5-2.5-2.5c0.1-6.6,0.3-13.3,0-19.9c-0.2-4.5,1.6-7.1,5.6-9.1c16.9-8.8,30.6-21.4,41.4-37.2
		c1.7-2.5,1.8-4.2-0.2-6.7c-27.1-33.9-57.6-64.4-91.4-91.6c-2.5-2-3.9-1.8-6.2,0.1c-33.7,26.8-63.9,57-90.9,90.5
		c-2.8,3.5-2.5,5.5-0.2,8.8c10.7,15.2,24.1,27.3,40.5,35.9c4.1,2.1,5.8,4.9,5.6,9.5c-0.3,6.5-0.1,13,0,19.5c0,1.9-0.4,2.7-2.4,2.5
		c-2.5-0.2-5,0-7.5-0.1c-1.6-0.1-2.2,0.4-2.1,2.1c0.1,4.6,0.1,9.2,0,13.9c0,1.6,0.4,2.2,2.1,2.1c2.6-0.1,5.2,0.1,7.9-0.1
		c1.6-0.1,2.1,0.4,2.1,2.1c-0.1,6.6-0.1,13.2,0,19.9c0,1.6-0.4,2.2-2.1,2.1c-2.6-0.1-5.3,0.1-7.9-0.1c-1.7-0.1-2.1,0.5-2.1,2.1
		c0.1,4.6,0.1,9.2,0,13.9c0,1.7,0.5,2.1,2.1,2.1C140.5,324.9,143.9,325,147.2,325z M185,88.5c-12.4-10.8-50.4-33.4-64.8-38.9
		c-2-0.8-2.7,0.2-3.7,1.2C87,80.1,76,115.2,83.5,156.1c1.6,8.6,4.3,17,8.4,25.2c13.9-17.4,28.5-33.6,44-49
		C151.4,116.8,167.6,102.2,185,88.5z M298,181.2c0.4-0.6,0.6-0.8,0.7-1c20.3-42.8,9.6-97.7-25.3-129.7c-1.5-1.4-2.6-1.3-4.2-0.5
		c-14.3,6.5-28,14.1-41.2,22.6c-7.7,5-15.4,10.1-22.9,15.9C239.6,116,270.5,146.7,298,181.2z M144.7,336.9c-1.2,0-2.4,0-3.6,0
		c-4.1-0.1-8.5,0.9-12-1.7c-2.2-1.6-3.8-1.3-6-0.3c-12.7,5.9-25.8,10.6-39.6,13c-2.2,0.4-2.7,0-2.6-2.3
		c0.9-22.7-15.8-39.5-38.4-38.5c-2.7,0.1-2.8-0.6-2.4-2.8c1.3-7.1,3.1-14.1,5.5-21c8.9-25.5,22.6-48.5,37.9-70.6
		c2.2-3.2,6.1-6.3,6.1-9.5c0.1-3.4-3.5-6.9-5.5-10.3c-0.1-0.2-0.3-0.4-0.6-0.8c-0.3,0.4-0.6,0.8-0.9,1.2
		c-16.5,22.1-31.3,45.3-42.4,70.8c-6.3,14.5-11.3,29.3-12.5,45.2c-0.2,2.5-1.9,3.3-3.4,4.4c-16.9,12-20.2,35.9-7.1,51.9
		c13.3,16.3,37.9,18.4,52.3,3.3c5.7-6,11.4-8.7,19.4-10C108.8,355.6,127,347,144.7,336.9z M274.1,35c2.8,2.5,5.5,4.8,7.9,7.2
		c1.4,1.4,2.6,1.7,4.6,1c6.2-2.2,12.6-3.8,19.1-5c2.9-0.5,3.5-0.2,3.3,2.9c-1,20.3,14.7,37.4,34.6,37.9c6.7,0.2,6.7,0.2,5.2,7.1
		c-4.1,19.2-12,36.9-21.7,53.8c-5,8.7-9.8,17.3-11.1,27.4c-0.1,0.9-0.5,1.7-0.7,2.5c-1.8,5.8-4,11.5-6.5,17.1
		c-0.3,0.6-0.9,1.4-0.1,2c1.1,0.8,1.5-0.2,2-0.9c0.3-0.4,0.6-0.8,0.9-1.2c13.1-18.1,25-37,34.6-57.2c7.9-16.9,14.5-34.2,16.1-53
		c0.2-2.5,1.9-3.2,3.4-4.4c12.2-9.4,17.4-21.8,14.2-36.9c-3.2-14.6-12.6-24-27.1-27.3c-15.1-3.4-27.6,1.7-36.9,14
		c-2,2.6-3.9,3.5-7,3.8C297,27.1,285.6,30.5,274.1,35z M260.9,40.5c-38.3-28.9-94.7-28.2-131.7,0.1c22.9,10.6,44,23.9,64.1,38.9
		c1.6,1.2,2.5,0.7,3.8-0.3c5.7-4.1,11.3-8.2,17.1-12.1C229,57.1,244.5,48.1,260.9,40.5z M245.3,336.9c9.7,5.9,19.7,10.7,30.1,14.6
		c16.7,6.2,33.7,10.8,51.9,8.8c17.7-2,30.4-13.2,34.3-30.6c2-8.9,1.6-17.8,0.2-26.8c-2.7-16.8-8.7-32.4-16.1-47.6
		c-1.2-2.4-1.2-4,0.6-6.2c6-7.8,6.3-18.3,1.1-26.7c-5.2-8.5-14.7-12.8-24.4-10.9c-2,0.4-2.9-0.3-3.9-1.8c-3.2-4.6-6.5-9.2-9.7-13.8
		c-1-1.4-2.3-2.8-1.9-4.9c-2.3,3.2-4.2,6.6-6.3,9.7c-1.2,1.7-1.3,2.9,0.1,4.6c2.4,3,4.4,6.4,6.8,9.4c1.9,2.3,1.5,3.8-0.2,6
		c-6.2,7.9-6.5,18.6-1.2,27c5.3,8.4,14.9,12.7,24.4,10.7c2.3-0.5,3.1,0.3,3.9,2.1c3.7,7.9,7.2,15.9,9.8,24.2
		c4.1,13,7.5,26.2,5.3,40.1c-1.6,10.2-6.6,18-16.6,21.7c-7,2.6-14.4,2.9-21.8,2.1c-15.9-1.7-30.8-7.1-45.2-13.8
		c-1.9-0.9-3.5-1.3-5.4,0.3c-1.8,1.5-4.3,2-6.7,1.9C251.4,336.9,248.4,336.9,245.3,336.9z M115.7,35.2c-16.9-7.4-36.5-10.8-52.5-9.4
		C45.4,27.4,32.5,38.7,28.5,56c-2.1,9-1.7,18.1-0.3,27.2c2.7,16.8,8.7,32.4,16.2,47.6c1.2,2.4,1.2,4-0.6,6.2
		c-6.7,8.7-6.3,20.5,0.6,29.1c6.7,8.4,18.3,11.2,28,7c2-0.9,2.7-1.7,2-4.1c-3.5-11.3-5.2-22.8-5.3-34.6c-0.1-7-1.3-8-8.3-7.1
		c-0.5,0.1-1,0.1-1.5,0.3c-2.2,0.9-3.4,0.2-4.3-2c-2.3-5.8-5.1-11.4-7.3-17.2c-4.9-13-8.7-26.3-8.5-40.4
		c0.2-16.8,7.9-26.9,22.7-29.8c4.8-0.9,9.7-1.1,14.5-0.7c9.3,0.8,18.2,3,27,5.8c1.3,0.4,2.4,1,3.7-0.3
		C109.8,40.4,112.6,37.9,115.7,35.2z"/>
	<path class="st1" d="M147.2,325c-3.4,0-6.7-0.1-10.1,0c-1.6,0.1-2.2-0.4-2.1-2.1c0.1-4.6,0.1-9.2,0-13.9c0-1.6,0.5-2.2,2.1-2.1
		c2.6,0.1,5.3-0.1,7.9,0.1c1.7,0.1,2.1-0.5,2.1-2.1c-0.1-6.6-0.1-13.2,0-19.9c0-1.7-0.5-2.2-2.1-2.1c-2.6,0.1-5.3-0.1-7.9,0.1
		c-1.7,0.1-2.1-0.5-2.1-2.1c0.1-4.6,0.1-9.2,0-13.9c0-1.7,0.6-2.1,2.1-2.1c2.5,0.1,5-0.1,7.5,0.1c2.1,0.2,2.5-0.7,2.4-2.5
		c-0.1-6.5-0.3-13,0-19.5c0.2-4.6-1.5-7.3-5.6-9.5c-16.5-8.6-29.8-20.7-40.5-35.9c-2.3-3.3-2.6-5.4,0.2-8.8
		c26.9-33.6,57.2-63.8,90.9-90.5c2.3-1.9,3.7-2.1,6.2-0.1c33.9,27.2,64.3,57.7,91.4,91.6c2,2.5,1.9,4.1,0.2,6.7
		c-10.8,15.8-24.4,28.3-41.4,37.2c-3.9,2-5.8,4.6-5.6,9.1c0.3,6.6,0.2,13.2,0,19.9c0,2,0.5,2.5,2.5,2.5c3.1,0,7.2-1.4,9,0.5
		c1.9,2.1,0.5,6.2,0.5,9.4c0.1,8,0,8.2-8.1,7.9c-3.4-0.1-4.1,0.9-4,4.1c0.3,5.7,0.2,11.5,0,17.2c-0.1,2.4,0.7,3,2.9,2.8
		c2.2-0.2,4.5,0.1,6.7-0.1c2.1-0.2,2.5,0.7,2.4,2.5c-0.1,4.4-0.2,8.8,0,13.1c0.1,2.1-0.7,2.4-2.6,2.4c-6.2-0.1-12.5,0.1-18.7-0.1
		c-2.9-0.1-3.6,0.9-3.4,3.6c1.1,11.3-2.5,21-10.8,28.7c-10.1,9.3-22,12.2-35.1,8.2c-12.9-4-21-13-24.4-26c-1-3.9-0.4-8-0.4-12
		c0-1.8-0.5-2.4-2.3-2.3C154,325,150.6,325,147.2,325z M183,215.9c0-15-0.1-30,0-45c0-3.1-0.9-5.5-3.2-7.6c-3.5-3.2-6.7-6.7-10.1-10
		c-6.7-6.8-6.7-6.7-13.3,0.2c-1.3,1.4-1.4,2.2,0,3.5c4,3.8,7.7,7.8,11.7,11.6c2.1,1.9,2.9,3.9,2.9,6.8c-0.1,26.9-0.1,53.7-0.1,80.6
		c0,9.1,0,9,9,9.1c2.4,0,3.1-0.6,3.1-3C182.9,246.6,183,231.3,183,215.9z M207,215.9c0,13.5,0,27,0,40.5c0,8.7,0,8.5,8.6,8.7
		c2.8,0.1,3.5-0.7,3.5-3.5c-0.1-25.5,0.4-51-0.3-76.4c-0.3-10,2.3-17.1,9.9-23.5c7.3-6.2,6.9-6.6-0.1-13.2c-1.4-1.3-2.2-1.4-3.6,0
		c-4.9,5-9.8,10-14.8,14.8c-2.2,2.1-3.2,4.5-3.2,7.6C207.1,185.9,207,200.9,207,215.9z"/>
	<path class="st1" d="M185,88.5c-17.3,13.8-33.6,28.3-49.1,43.7c-15.5,15.4-30.1,31.6-44,49c-4.1-8.2-6.8-16.5-8.4-25.2
		C76,115.2,87,80.1,116.4,50.8c1-1,1.7-2,3.7-1.2C134.6,55.1,172.6,77.7,185,88.5z"/>
	<path class="st1" d="M298,181.2c-27.6-34.5-58.5-65.2-93-92.7c7.5-5.7,15.1-10.9,22.9-15.9c13.2-8.5,26.9-16.2,41.2-22.6
		c1.6-0.7,2.7-0.8,4.2,0.5c34.9,32,45.7,86.9,25.3,129.7C298.6,180.4,298.4,180.6,298,181.2z"/>
	<path class="st1" d="M144.7,336.9c-17.8,10.1-36,18.6-56,21.9c-7.9,1.3-13.6,4-19.4,10c-14.4,15.1-39,13-52.3-3.3
		c-13.1-16-9.8-39.9,7.1-51.9c1.6-1.1,3.3-1.9,3.4-4.4c1.2-15.9,6.3-30.7,12.5-45.2c11-25.4,25.8-48.6,42.4-70.8
		c0.3-0.4,0.6-0.8,0.9-1.2c0.3,0.4,0.5,0.6,0.6,0.8c2,3.4,5.5,6.9,5.5,10.3c-0.1,3.2-3.9,6.3-6.1,9.5c-15.3,22.1-29,45.1-37.9,70.6
		c-2.4,6.8-4.2,13.8-5.5,21c-0.4,2.2-0.3,2.9,2.4,2.8c22.6-1,39.4,15.8,38.4,38.5c-0.1,2.3,0.3,2.7,2.6,2.3c13.9-2.4,27-7.1,39.6-13
		c2.2-1,3.8-1.3,6,0.3c3.5,2.6,7.9,1.5,12,1.7C142.3,337,143.5,336.9,144.7,336.9z"/>
	<path class="st1" d="M274.1,35c11.4-4.5,22.9-7.9,34.8-9.2c3-0.3,5-1.2,7-3.8c9.3-12.3,21.8-17.4,36.9-14
		c14.5,3.3,24,12.8,27.1,27.3c3.3,15.1-1.9,27.5-14.2,36.9c-1.6,1.2-3.2,2-3.4,4.4c-1.6,18.8-8.2,36.1-16.1,53
		c-9.5,20.2-21.5,39.1-34.6,57.2c-0.3,0.4-0.6,0.8-0.9,1.2c-0.5,0.6-0.9,1.7-2,0.9c-0.8-0.6-0.2-1.3,0.1-2
		c2.6-5.5,4.7-11.2,6.5-17.1c0.3-0.8,0.6-1.7,0.7-2.5c1.3-10.1,6.2-18.7,11.1-27.4c9.6-16.9,17.6-34.6,21.7-53.8
		c1.5-6.9,1.5-6.9-5.2-7.1c-19.9-0.5-35.6-17.6-34.6-37.9c0.1-3.1-0.4-3.4-3.3-2.9c-6.5,1.2-12.9,2.8-19.1,5c-2,0.7-3.2,0.4-4.6-1
		C279.6,39.8,276.9,37.5,274.1,35z"/>
	<path class="st1" d="M260.9,40.5c-16.3,7.6-31.8,16.6-46.7,26.6c-5.8,3.9-11.4,8-17.1,12.1c-1.3,0.9-2.2,1.5-3.8,0.3
		c-20.1-15-41.3-28.3-64.1-38.9C166.2,12.3,222.5,11.6,260.9,40.5z"/>
	<path class="st1" d="M245.3,336.9c3.1,0,6.2,0,9.2,0c2.5,0,4.9-0.4,6.7-1.9c1.9-1.6,3.4-1.2,5.4-0.3c14.4,6.7,29.3,12,45.2,13.8
		c7.4,0.8,14.8,0.5,21.8-2.1c10-3.7,15-11.5,16.6-21.7c2.1-13.9-1.2-27-5.3-40.1c-2.6-8.3-6.1-16.3-9.8-24.2
		c-0.9-1.8-1.7-2.6-3.9-2.1c-9.5,2-19.1-2.3-24.4-10.7c-5.3-8.4-5-19.1,1.2-27c1.7-2.2,2.1-3.7,0.2-6c-2.5-3-4.4-6.4-6.8-9.4
		c-1.4-1.7-1.2-2.9-0.1-4.6c2.1-3.1,4-6.5,6.3-9.7c-0.4,2.2,0.9,3.5,1.9,4.9c3.3,4.6,6.6,9.1,9.7,13.8c1,1.5,1.9,2.2,3.9,1.8
		c9.6-1.9,19.1,2.4,24.4,10.9c5.2,8.4,4.9,18.9-1.1,26.7c-1.7,2.2-1.8,3.8-0.6,6.2c7.4,15.2,13.4,30.8,16.1,47.6
		c1.4,8.9,1.8,17.9-0.2,26.8c-3.9,17.4-16.7,28.6-34.3,30.6c-18.2,2.1-35.1-2.6-51.9-8.8C265,347.7,255,342.9,245.3,336.9z"/>
	<path class="st1" d="M115.7,35.2c-3,2.8-5.8,5.2-8.5,7.8c-1.3,1.3-2.4,0.7-3.7,0.3c-8.8-2.9-17.7-5-27-5.8
		c-4.9-0.4-9.8-0.3-14.5,0.7c-14.8,2.9-22.5,13-22.7,29.8C39,82,42.8,95.3,47.7,108.3c2.2,5.8,5,11.4,7.3,17.2
		c0.9,2.2,2.1,2.9,4.3,2c0.5-0.2,1-0.2,1.5-0.3c7-0.9,8.3,0.2,8.3,7.1c0.1,11.8,1.8,23.4,5.3,34.6c0.8,2.5,0,3.2-2,4.1
		c-9.7,4.3-21.4,1.4-28-7c-6.9-8.6-7.2-20.5-0.6-29.1c1.7-2.2,1.7-3.8,0.6-6.2C37,115.6,30.9,99.9,28.2,83.1
		C26.8,74.1,26.4,65,28.5,56c4-17.3,16.9-28.6,34.7-30.2C79.2,24.3,98.7,27.8,115.7,35.2z"/>
	<path class="st2" d="M183,215.9c0,15.4-0.1,30.7,0.1,46.1c0,2.5-0.7,3.1-3.1,3c-9-0.1-9,0-9-9.1c0-26.9,0-53.7,0.1-80.6
		c0-2.9-0.8-4.9-2.9-6.8c-4-3.7-7.8-7.8-11.7-11.6c-1.4-1.4-1.3-2.1,0-3.5c6.6-6.9,6.6-7,13.3-0.2c3.4,3.4,6.6,6.8,10.1,10
		c2.3,2.1,3.2,4.5,3.2,7.6C182.9,185.9,183,200.9,183,215.9z"/>
	<path class="st2" d="M207,215.9c0-15,0.1-30-0.1-45c0-3.1,1-5.5,3.2-7.6c5-4.8,10-9.8,14.8-14.8c1.4-1.4,2.1-1.3,3.6,0
		c7,6.6,7.4,7,0.1,13.2c-7.6,6.4-10.2,13.6-9.9,23.5c0.8,25.5,0.2,51,0.3,76.4c0,2.8-0.6,3.5-3.5,3.5c-8.6-0.2-8.6,0-8.6-8.7
		C207,242.9,207,229.4,207,215.9z"/>
</g>
</svg>
