<?xml version="1.0" encoding="utf-8"?>
<!-- Generator: Adobe Illustrator 26.0.1, SVG Export Plug-In . SVG Version: 6.00 Build 0)  -->
<svg version="1.1" id="Layer_1" xmlns="http://www.w3.org/2000/svg" xmlns:xlink="http://www.w3.org/1999/xlink" x="0px" y="0px"
	 width="398px" height="357px" viewBox="0 0 398 357" style="enable-background:new 0 0 398 357;" xml:space="preserve">
<style type="text/css">
	.st0{fill:#5F22D9;}
	.st1{fill:#FFFFFF;}
	.st2{fill:#9285F4;}
	.st3{display:none;fill:#FEFEFE;}
</style>
<rect x="-521.3" y="-231.7" class="st0" width="320.2" height="229.8"/>
<rect x="-512.1" y="76.2" class="st1" width="320.2" height="229.8"/>
<rect x="-502.9" y="391.8" class="st2" width="320.2" height="229.8"/>
<g>
	<path class="st3" d="M200,362.9c-63,0-125.9,0-188.9,0.1c-2.4,0-3.1-0.3-3.1-3C8.1,234,8.1,107.9,8-18.1c0-2.4,0.6-2.8,2.9-2.8
		c126,0.1,252.1,0.1,378.1,0c2.8,0,2.9,0.9,2.9,3.2c-0.1,125.9-0.1,251.8,0,377.8c0,2.6-0.6,3-3.1,3
		C325.9,362.9,263,362.9,200,362.9z M199.7,327c54.9,0,109.7,0,164.6,0c7.4,0,9-1.6,9-9c0-81.8,0-163.6,0-245.4c0-7.4-1.6-9-8.9-9
		c-109.8,0-219.7,0-329.5,0c-7.1,0-8.8,1.6-8.8,8.8c0,81.9,0,163.8,0,245.7c0,7.2,1.6,8.8,8.7,8.8C89.7,327,144.7,327,199.7,327z
		 M331.3,33.7c0-8.2-5.4-15.2-13.4-17.3c-8.1-2.1-16.3,1.3-20.3,8.8c-1,2-2.1,2.6-4.2,2.6c-24.7-0.1-49.4-0.1-74.1,0
		c-2.1,0-3.2-0.6-4.2-2.5c-3.3-6.1-8.7-9.3-15.5-9.3c-6.9,0-12.3,3.1-15.6,9.2c-1.1,2.1-2.3,2.7-4.5,2.7c-24.6-0.1-49.1-0.1-73.7,0
		c-2,0-3.2-0.3-4.3-2.4c-3.9-7.6-12.1-11.1-20.2-9c-8,2.1-13.4,9-13.5,17.2c0,8.4,5.4,15.4,13.5,17.5c8.1,2.1,16.2-1.4,20.1-9
		c1-1.9,2-2.4,4-2.4c24.8,0.1,49.6,0.1,74.4,0c2,0,3,0.6,3.9,2.4c3.3,6.2,8.8,9.5,15.8,9.4c6.8,0,12.3-3.2,15.5-9.4
		c1.1-2,2.2-2.5,4.3-2.5c24.6,0.1,49.1,0.1,73.7,0c2.2,0,3.4,0.5,4.5,2.6c3.8,7.3,12.1,10.8,19.9,8.8C325.9,49,331.3,42,331.3,33.7z
		"/>
	<path class="st1" d="M199.7,327c-55,0-110,0-164.9,0c-7.1,0-8.7-1.6-8.7-8.8c0-81.9,0-163.8,0-245.7c0-7.2,1.6-8.8,8.8-8.8
		c109.8,0,219.7,0,329.5,0c7.3,0,8.9,1.6,8.9,9c0,81.8,0,163.6,0,245.4c0,7.4-1.6,9-9,9C309.4,327,254.6,327,199.7,327z
		 M259.5,195.3c0-38.7,0-77.3,0.1-116c0-3.1-0.7-3.8-3.8-3.8c-37.4,0.1-74.8,0.1-112.2,0c-3.1,0-3.8,0.7-3.8,3.8
		c0.1,77.3,0.1,154.6,0,231.9c0,3.1,0.7,3.8,3.8,3.8c37.4-0.1,74.8-0.1,112.2,0c3.1,0,3.8-0.7,3.8-3.8
		C259.4,272.6,259.5,234,259.5,195.3z M38,195c0,38.8,0,77.6-0.1,116.3c0,3.2,0.8,3.8,3.9,3.8c25.8-0.1,51.6-0.1,77.4-0.1
		c8.6,0,8.5,0,8.7-8.6c0.1-2.9-0.8-3.4-3.5-3.4c-18.3,0.1-36.7,0.1-55,0.1c-5.4,0-7.4-2.1-7.4-7.5c0-12.8,0-25.7,0-38.5
		c0-5.9,2-7.9,7.8-7.9c16.5,0,32.9,0,49.4,0c8.7,0,8.6,0,8.7-8.6c0.1-2.7-0.6-3.5-3.4-3.5c-19.9,0.1-39.9,0.1-59.8,0.1
		c-1,0-2,0.1-3,0c-3.3-0.3-5.6-2.8-5.6-5.9c0-3.1,2.2-5.6,5.5-6c1.1-0.1,2.2,0,3.4,0c19.6,0,39.2-0.1,58.7,0.1
		c3.8,0,4.6-1.1,4.3-4.5c-0.3-3.1-0.3-6.2,0-9.3c0.3-3.2-0.5-4.5-4.1-4.3c-6.3,0.3-12.7,0.1-19.1,0.1c-4.1,0-6.7-2.3-6.8-5.9
		c-0.1-3.7,2.6-6,6.9-6.1c4.6,0,9.2,0,13.8,0c9.5,0,9.4,0,9.2-9.6c0-2-0.7-2.4-2.6-2.4c-7,0.1-14,0.1-20.9,0c-3.9,0-6.4-2.4-6.5-5.8
		c-0.1-3.5,2.5-6.1,6.5-6.1c4.7-0.1,9.5,0,14.2,0c9.5,0,9.4,0,9.2-9.5c0-2-0.6-2.5-2.5-2.5c-7,0.1-14,0.1-20.9,0
		c-4,0-6.6-2.6-6.5-6.1c0.1-3.4,2.6-5.7,6.5-5.8c4.7-0.1,9.5,0,14.2,0c9.5,0,9.4,0,9.3-9.5c0-2.4-0.9-2.5-2.8-2.5
		c-6.7,0.1-13.5,0.1-20.2,0c-4.3,0-7-2.4-6.9-6.1c0.1-3.5,2.7-5.8,6.8-5.8c4.6-0.1,9.2,0,13.8,0c9.5,0,9.4,0,9.3-9.5
		c0-2.3-0.8-2.6-2.8-2.6c-6.6,0.1-13.2,0.1-19.8,0c-4.7,0-7.4-2.3-7.4-6.1c0.1-3.7,2.7-5.9,7.5-5.9c6.5,0,13-0.1,19.4,0.1
		c2.6,0.1,3.1-0.8,3-3.1c-0.2-5.9-0.2-11.7,0-17.6c0.1-2.9-0.9-3.4-3.5-3.4c-27.6,0.1-55.1,0.1-82.7,0c-3.2,0-3.8,0.9-3.8,3.9
		C38,117.9,38,156.5,38,195z M361.2,195.4c0-38.8,0-77.6,0.1-116.4c0-2.7-0.6-3.5-3.4-3.5c-27.8,0.1-55.6,0.1-83.4,0
		c-2.4,0-3.1,0.6-3.1,3c0.1,47.9,0.1,95.8,0,143.7c0,2.4,0.6,3.1,3,3.1c17-0.1,33.9-0.1,50.9-0.1c4.1,0,8.2-0.1,12.3,0.1
		c3.3,0.2,5.6,2.8,5.6,5.9c0,3.1-2.3,5.6-5.6,6c-1,0.1-2,0-3,0c-18.2,0-36.4,0-54.6,0c-8.7,0-8.6,0-8.7,8.6
		c-0.1,2.8,0.6,3.5,3.4,3.5c18.3-0.1,36.7-0.1,55-0.1c5.4,0,7.5,2.1,7.5,7.4c0,12.8,0,25.7,0,38.5c0,5.9-2,7.9-7.8,7.9
		c-16.5,0-32.9,0-49.4,0c-8.7,0-8.6,0-8.7,8.6c0,2.7,0.5,3.5,3.4,3.5c27.6-0.1,55.1-0.1,82.7,0c3.1,0,3.9-0.6,3.9-3.8
		C361.2,272.7,361.2,234,361.2,195.4z M97.9,261.2c-7.1,0-14.2,0.1-21.3,0c-2,0-2.8,0.4-2.7,2.6c0.1,8.2,0.1,16.5,0,24.7
		c0,2,0.4,2.7,2.6,2.7c14.2-0.1,28.4-0.1,42.6,0c2,0,2.8-0.4,2.7-2.6c-0.1-8.2-0.2-16.5,0-24.7c0.1-2.6-0.9-2.8-3-2.7
		C111.9,261.2,104.9,261.2,97.9,261.2z M301.8,261.2c-7.2,0-14.5,0.1-21.7,0c-2.1,0-2.7,0.6-2.7,2.7c0.1,8.2,0.1,16.5,0,24.7
		c0,2.1,0.6,2.7,2.7,2.7c14.2-0.1,28.4-0.1,42.6,0c2.1,0,2.7-0.6,2.7-2.7c-0.1-8.2-0.1-16.5,0-24.7c0-2.1-0.6-2.7-2.7-2.7
		C315.7,261.3,308.7,261.2,301.8,261.2z"/>
	<path class="st1" d="M331.3,33.7c0,8.3-5.5,15.3-13.6,17.4c-7.9,2-16.1-1.5-19.9-8.8c-1.1-2.1-2.3-2.7-4.5-2.6
		c-24.6,0.1-49.1,0.1-73.7,0c-2,0-3.2,0.4-4.3,2.5c-3.2,6.1-8.6,9.3-15.5,9.4c-7,0-12.5-3.2-15.8-9.4c-1-1.8-1.9-2.4-3.9-2.4
		c-24.8,0.1-49.6,0.1-74.4,0c-2,0-3,0.5-4,2.4c-4,7.6-12,11.1-20.1,9c-8.1-2.1-13.6-9.1-13.5-17.5c0-8.2,5.5-15.1,13.5-17.2
		c8.1-2.1,16.2,1.4,20.2,9c1.1,2.1,2.3,2.4,4.3,2.4c24.6,0,49.1-0.1,73.7,0c2.3,0,3.4-0.6,4.5-2.7c3.3-6.1,8.8-9.2,15.6-9.2
		c6.9,0,12.3,3.2,15.5,9.3c1.1,2,2.1,2.5,4.2,2.5c24.7-0.1,49.4-0.1,74.1,0c2.1,0,3.2-0.6,4.2-2.6c3.9-7.5,12.2-10.9,20.3-8.8
		C325.9,18.5,331.3,25.5,331.3,33.7z M86,27.7c-3.3-0.1-6,2.5-6.1,5.8c-0.1,3.4,2.6,6.2,6,6.2c3.2,0,5.9-2.7,5.9-6
		C91.9,30.5,89.3,27.8,86,27.7z M205.6,33.8c0-3.3-2.6-6-5.8-6.1c-3.4-0.1-6.2,2.7-6.1,6.1c0.1,3.2,2.8,5.9,6,5.9
		C202.9,39.7,205.6,37,205.6,33.8z M313.4,39.7c3.2,0,5.9-2.7,5.9-5.9c0-3.3-2.6-6-5.8-6c-3.4-0.1-6.2,2.7-6.1,6.1
		C307.4,37.1,310.2,39.7,313.4,39.7z"/>
	<path class="st0" d="M259.5,195.3c0,38.7,0,77.3,0.1,116c0,3.1-0.7,3.8-3.8,3.8c-37.4-0.1-74.8-0.1-112.2,0c-3.1,0-3.8-0.7-3.8-3.8
		c0.1-77.3,0.1-154.6,0-231.9c0-3.1,0.7-3.8,3.8-3.8c37.4,0.1,74.8,0.1,112.2,0c3.1,0,3.8,0.7,3.8,3.8
		C259.4,118,259.5,156.7,259.5,195.3z M199.7,303.1c9.6,0,19.2,0,28.8,0c4.8,0,7-2.2,7-7.1c0-13.2,0-26.4,0-39.6
		c0-4.9-2.2-7.1-7-7.1c-19.2,0-38.4,0-57.5,0c-5.1,0-7.2,2.2-7.2,7.3c0,13.1,0,26.2,0,39.2c0,5.1,2.1,7.3,7.2,7.3
		C180.5,303.1,190.1,303.1,199.7,303.1z M199.6,225.3c-11.6,0-23.2,0-34.7,0c-2.4,0-4.5,0.5-5.9,2.5c-1.3,1.8-1.6,3.8-0.6,6
		c1.3,2.7,3.6,3.6,6.4,3.6c23.2,0,46.3,0,69.5,0c4.6,0,7.4-2.3,7.3-6.1c-0.1-3.7-2.8-5.9-7.5-5.9
		C222.5,225.2,211.1,225.3,199.6,225.3z M223.9,123.5c-5.8,0-11.7,0-17.5,0c-4.1,0-6.7,2.3-6.8,5.9c-0.1,3.5,2.5,6,6.6,6.1
		c11.6,0.1,23.1,0.1,34.7,0c4,0,6.6-2.5,6.6-6.1c-0.1-3.5-2.7-5.8-6.8-5.9C235.1,123.4,229.5,123.5,223.9,123.5z M223.7,147.4
		c-5.6,0-11.2,0-16.8,0c-4.6,0-7.4,2.3-7.3,6.1c0.1,3.6,2.7,5.8,7.2,5.8c11.2,0,22.4,0,33.6,0c4.4,0,7.1-2.3,7.1-5.9
		c0-3.6-2.6-6-7-6C234.9,147.4,229.3,147.4,223.7,147.4z M223.2,183.4c5.7,0,11.4,0,17.2,0c4.4,0,7.1-2.3,7.1-5.9
		c0.1-3.6-2.6-6-6.9-6.1c-11.3,0-22.6,0-34,0c-4.3,0-7,2.4-6.9,6.1c0.1,3.6,2.7,5.9,7.1,5.9C212.2,183.4,217.7,183.4,223.2,183.4z
		 M223.2,111.5c5.8,0,11.7,0,17.5,0c4.1,0,6.7-2.4,6.8-5.9c0.1-3.5-2.5-6-6.6-6.1c-11.6-0.1-23.1-0.1-34.7,0c-4,0-6.6,2.5-6.6,6
		c0.1,3.5,2.6,5.8,6.7,5.9C212,111.6,217.6,111.5,223.2,111.5z M223.2,207.3c5.7,0,11.4,0,17.2,0c4.4,0,7.1-2.3,7.1-5.9
		c0.1-3.6-2.6-6.1-6.9-6.1c-11.3,0-22.6,0-34,0c-4.3,0-7,2.4-6.9,6.1c0.1,3.6,2.7,5.9,7.1,5.9C212.2,207.3,217.7,207.3,223.2,207.3z
		 M163.7,105.7c0.1-3.2-2.5-6-5.8-6.1c-3.2-0.1-6,2.4-6.2,5.7c-0.2,3.4,2.6,6.3,5.9,6.3C160.9,111.5,163.6,108.9,163.7,105.7z
		 M187.7,105.4c-0.1-3.2-2.8-5.9-6-5.8c-3.4,0-6.1,2.9-5.9,6.3c0.2,3.2,3,5.8,6.2,5.7C185.1,111.4,187.7,108.6,187.7,105.4z
		 M163.7,177.4c0-3.2-2.6-5.9-5.9-6c-3.3-0.1-6,2.5-6.1,5.8c-0.1,3.4,2.7,6.2,6,6.2C161,183.3,163.7,180.6,163.7,177.4z
		 M181.8,183.3c3.2-0.1,5.9-2.8,5.8-6c0-3.2-2.7-5.9-5.9-5.9c-3.4,0-6.2,2.8-6,6.2C175.8,180.9,178.6,183.4,181.8,183.3z
		 M163.7,153.3c-0.1-3.2-2.8-5.9-6-5.9c-3.4,0-6.1,2.9-6,6.3c0.2,3.2,3,5.8,6.2,5.7C161.2,159.3,163.8,156.5,163.7,153.3z
		 M163.7,201.5c0.1-3.2-2.5-6-5.7-6.1c-3.2-0.1-6,2.4-6.2,5.6c-0.2,3.4,2.5,6.3,5.9,6.3C160.9,207.3,163.6,204.7,163.7,201.5z
		 M181.5,207.3c3.2,0.1,6-2.5,6.1-5.8c0.1-3.2-2.4-6-5.7-6.2c-3.4-0.2-6.3,2.6-6.3,6C175.7,204.5,178.3,207.2,181.5,207.3z
		 M181.5,147.4c-3.3,0.1-5.9,2.8-5.8,6c0,3.2,2.7,5.9,5.9,5.9c3.4,0,6.2-2.9,6-6.2C187.5,149.9,184.8,147.4,181.5,147.4z
		 M187.7,129.6c0.1-3.2-2.5-6-5.7-6.1c-3.2-0.1-6,2.4-6.2,5.6c-0.2,3.4,2.5,6.3,5.9,6.3C184.8,135.5,187.6,132.9,187.7,129.6z
		 M163.7,129.5c0-3.2-2.7-5.9-5.9-6c-3.3,0-6,2.5-6.1,5.8c-0.1,3.4,2.7,6.2,6.1,6.2C161.1,135.4,163.7,132.7,163.7,129.5z"/>
	<path class="st0" d="M38,195c0-38.5,0-77.1-0.1-115.6c0-3,0.5-3.9,3.8-3.9c27.6,0.2,55.1,0.1,82.7,0c2.7,0,3.7,0.4,3.5,3.4
		c-0.3,5.8-0.2,11.7,0,17.6c0.1,2.3-0.4,3.2-3,3.1c-6.5-0.2-13-0.1-19.4-0.1c-4.8,0-7.5,2.1-7.5,5.9c-0.1,3.8,2.7,6,7.4,6.1
		c6.6,0,13.2,0.1,19.8,0c2,0,2.8,0.3,2.8,2.6c0.1,9.5,0.2,9.5-9.3,9.5c-4.6,0-9.2,0-13.8,0c-4.1,0.1-6.7,2.3-6.8,5.8
		c-0.1,3.7,2.6,6.1,6.9,6.1c6.7,0,13.5,0.1,20.2,0c1.9,0,2.8,0.2,2.8,2.5c0.1,9.5,0.2,9.5-9.3,9.5c-4.7,0-9.5-0.1-14.2,0
		c-3.9,0.1-6.4,2.4-6.5,5.8c-0.1,3.5,2.5,6.1,6.5,6.1c7,0.1,14,0.1,20.9,0c1.9,0,2.5,0.5,2.5,2.5c0.2,9.5,0.3,9.5-9.2,9.5
		c-4.7,0-9.5-0.1-14.2,0c-4,0.1-6.6,2.6-6.5,6.1c0.1,3.4,2.6,5.8,6.5,5.8c7,0.1,14,0.1,20.9,0c1.9,0,2.5,0.4,2.6,2.4
		c0.2,9.6,0.3,9.6-9.2,9.6c-4.6,0-9.2,0-13.8,0c-4.4,0-7,2.4-6.9,6.1c0.1,3.5,2.7,5.8,6.8,5.9c6.4,0.1,12.7,0.3,19.1-0.1
		c3.6-0.2,4.4,1.1,4.1,4.3c-0.3,3.1-0.3,6.3,0,9.3c0.4,3.5-0.5,4.6-4.3,4.5c-19.6-0.2-39.2-0.1-58.7-0.1c-1.1,0-2.3-0.1-3.4,0
		c-3.3,0.4-5.5,2.9-5.5,6c0,3.1,2.3,5.6,5.6,5.9c1,0.1,2,0,3,0c19.9,0,39.9,0.1,59.8-0.1c2.9,0,3.5,0.7,3.4,3.5
		c-0.2,8.6,0,8.6-8.7,8.6c-16.5,0-32.9,0-49.4,0c-5.9,0-7.8,2-7.8,7.9c0,12.8,0,25.7,0,38.5c0,5.4,2.1,7.5,7.4,7.5
		c18.3,0,36.7,0.1,55-0.1c2.7,0,3.5,0.5,3.5,3.4c-0.2,8.6,0,8.6-8.7,8.6c-25.8,0-51.6-0.1-77.4,0.1c-3.1,0-3.9-0.6-3.9-3.8
		C38.1,272.6,38,233.8,38,195z M61.9,105.4c-0.1-3.2-2.8-5.9-6-5.9c-3.4,0-6.1,2.9-6,6.3c0.2,3.2,3,5.8,6.2,5.7
		C59.4,111.4,62,108.7,61.9,105.4z M85.9,105.6c0-3.2-2.6-5.9-5.9-6c-3.3-0.1-6,2.5-6.1,5.8c-0.1,3.4,2.7,6.2,6,6.2
		C83.2,111.5,85.9,108.8,85.9,105.6z M61.9,129.5c0-3.2-2.6-5.9-5.9-6c-3.3-0.1-6,2.5-6.1,5.8c-0.1,3.4,2.7,6.2,6.1,6.2
		C59.3,135.4,61.9,132.7,61.9,129.5z M55.9,183.3c3.2,0.1,6-2.6,6.1-5.8c0.1-3.2-2.5-6-5.7-6.2c-3.4-0.2-6.3,2.6-6.3,6
		C50,180.6,52.6,183.3,55.9,183.3z M85.9,177.3c0-3.2-2.7-5.9-6-5.9c-3.4,0-6.2,2.8-6,6.2c0.1,3.2,2.9,5.8,6.1,5.7
		C83.3,183.3,85.9,180.5,85.9,177.3z M55.9,159.4c3.2,0,6-2.6,6-5.8c0.1-3.2-2.5-6-5.8-6.1c-3.4-0.1-6.2,2.6-6.2,6
		C50,156.7,52.7,159.4,55.9,159.4z M56.3,195.3c-3.2-0.2-6.1,2.4-6.3,5.6c-0.2,3.4,2.5,6.3,5.9,6.4c3.2,0.1,6-2.5,6.1-5.8
		C62.1,198.3,59.5,195.5,56.3,195.3z M85.9,201.4c0.1-3.2-2.5-6-5.8-6.1c-3.2-0.1-6,2.4-6.2,5.7c-0.2,3.4,2.6,6.3,5.9,6.3
		C83.1,207.3,85.8,204.7,85.9,201.4z M85.9,153.3c-0.1-3.2-2.7-5.9-6-5.9c-3.4,0-6.1,2.9-6,6.3c0.2,3.2,2.9,5.8,6.2,5.7
		C83.3,159.3,85.9,156.6,85.9,153.3z M79.9,135.5c3.2,0,5.9-2.6,6-5.9c0.1-3.2-2.5-6-5.8-6.1c-3.4-0.1-6.2,2.6-6.2,6
		C74,132.8,76.6,135.4,79.9,135.5z"/>
	<path class="st0" d="M361.2,195.4c0,38.7,0,77.3,0.1,116c0,3.2-0.8,3.8-3.9,3.8c-27.6-0.1-55.1-0.1-82.7,0c-2.9,0-3.5-0.8-3.4-3.5
		c0.2-8.6,0-8.6,8.7-8.6c16.5,0,32.9,0,49.4,0c5.8,0,7.8-2,7.8-7.9c0-12.8,0-25.7,0-38.5c0-5.3-2.1-7.4-7.5-7.4
		c-18.3,0-36.7-0.1-55,0.1c-2.8,0-3.5-0.7-3.4-3.5c0.2-8.6,0-8.6,8.7-8.6c18.2,0,36.4,0,54.6,0c1,0,2,0.1,3,0c3.3-0.4,5.6-2.9,5.6-6
		c0-3.1-2.3-5.7-5.6-5.9c-4.1-0.2-8.2-0.1-12.3-0.1c-17,0-33.9-0.1-50.9,0.1c-2.4,0-3.1-0.6-3-3.1c0.1-47.9,0.1-95.8,0-143.7
		c0-2.5,0.7-3,3.1-3c27.8,0.1,55.6,0.1,83.4,0c2.8,0,3.4,0.7,3.4,3.5C361.2,117.8,361.2,156.6,361.2,195.4z M325.3,207.3
		c5.7,0,11.4,0,17.2,0c4.1,0,6.7-2.3,6.8-5.8c0.1-3.7-2.6-6.1-6.9-6.1c-11.3,0-22.6,0-34,0c-4.4,0-7,2.4-7,6c0,3.6,2.7,5.9,7.1,5.9
		C314.1,207.3,319.7,207.3,325.3,207.3z M325,135.5c5.7,0,11.4,0,17.2,0c4.4,0,7.1-2.3,7.1-5.9c0.1-3.6-2.6-6-6.9-6.1
		c-11.3,0-22.6,0-34,0c-4.3,0-7,2.4-6.9,6.1c0.1,3.6,2.7,5.9,7.1,5.9C314,135.5,319.5,135.5,325,135.5z M325.3,183.4
		c5.7,0,11.4,0,17.2,0c4.1,0,6.7-2.3,6.8-5.8c0.1-3.6-2.6-6.1-6.9-6.1c-11.3,0-22.6,0-34,0c-4.4,0-7,2.3-7,6c0,3.6,2.7,5.9,7.1,6
		C314.1,183.4,319.7,183.4,325.3,183.4z M325,159.4c5.7,0,11.4,0,17.2,0c4.4,0,7.1-2.3,7.1-5.9c0.1-3.6-2.6-6.1-6.9-6.1
		c-11.3,0-22.6,0-34,0c-4.3,0-7,2.4-6.9,6.1c0.1,3.6,2.7,5.9,7.1,5.9C314,159.4,319.5,159.4,325,159.4z M325.7,99.5
		c-5.8,0-11.7,0-17.5,0c-4.1,0-6.7,2.3-6.8,5.9c-0.1,3.5,2.5,6.1,6.6,6.1c11.6,0.1,23.1,0.1,34.7,0c4,0,6.6-2.5,6.6-6
		c0-3.5-2.6-5.8-6.7-5.9C336.9,99.5,331.3,99.5,325.7,99.5z M283.4,99.6c-3.3,0-5.9,2.6-6,5.9c0,3.2,2.6,6,5.8,6.1
		c3.4,0.1,6.2-2.7,6.2-6.1C289.3,102.2,286.7,99.5,283.4,99.6z M283.4,183.3c3.2,0,5.9-2.7,6-5.9c0.1-3.2-2.5-6-5.8-6.1
		c-3.4-0.1-6.2,2.7-6.2,6.1C277.5,180.7,280.2,183.3,283.4,183.3z M283.4,147.4c-3.3,0-5.9,2.7-5.9,5.9c0,3.2,2.6,6,5.8,6
		c3.4,0.1,6.2-2.7,6.1-6.1C289.3,150,286.6,147.4,283.4,147.4z M289.4,129.8c0.2-3.2-2.4-6.1-5.6-6.3c-3.2-0.2-6.1,2.3-6.4,5.5
		c-0.3,3.4,2.4,6.3,5.8,6.5C286.5,135.6,289.2,133,289.4,129.8z M283.7,195.3c-3.2-0.2-6.1,2.4-6.3,5.6c-0.2,3.4,2.5,6.3,5.9,6.4
		c3.2,0.1,6-2.5,6.1-5.8C289.5,198.3,287,195.5,283.7,195.3z"/>
	<path class="st0" d="M97.9,261.2c7,0,14,0.1,20.9,0c2.1,0,3.1,0.2,3,2.7c-0.2,8.2-0.2,16.5,0,24.7c0,2.2-0.7,2.6-2.7,2.6
		c-14.2-0.1-28.4-0.1-42.6,0c-2.2,0-2.6-0.7-2.6-2.7c0.1-8.2,0.1-16.5,0-24.7c0-2.2,0.7-2.6,2.7-2.6
		C83.7,261.2,90.8,261.2,97.9,261.2z"/>
	<path class="st0" d="M301.8,261.2c7,0,14,0.1,20.9,0c2.1,0,2.7,0.6,2.7,2.7c-0.1,8.2-0.1,16.5,0,24.7c0,2.1-0.6,2.7-2.7,2.7
		c-14.2-0.1-28.4-0.1-42.6,0c-2.1,0-2.7-0.6-2.7-2.7c0.1-8.2,0.1-16.5,0-24.7c0-2.1,0.6-2.7,2.7-2.7
		C287.3,261.3,294.5,261.2,301.8,261.2z"/>
	<path class="st0" d="M86,27.7c3.2,0.1,5.9,2.8,5.9,6c0,3.2-2.7,5.9-5.9,6c-3.4,0-6.2-2.8-6-6.2C80,30.2,82.8,27.7,86,27.7z"/>
	<path class="st0" d="M205.6,33.8c0,3.2-2.7,5.9-6,5.9c-3.3,0-5.9-2.6-6-5.9c-0.1-3.4,2.7-6.2,6.1-6.1
		C203,27.8,205.6,30.5,205.6,33.8z"/>
	<path class="st0" d="M313.4,39.7c-3.3,0-6-2.6-6-5.8c-0.1-3.4,2.7-6.2,6.1-6.1c3.2,0.1,5.9,2.8,5.8,6
		C319.3,37,316.6,39.7,313.4,39.7z"/>
	<path class="st1" d="M199.7,303.1c-9.6,0-19.2,0-28.8,0c-5.1,0-7.2-2.2-7.2-7.3c0-13.1,0-26.2,0-39.2c0-5.1,2.1-7.3,7.2-7.3
		c19.2,0,38.4,0,57.5,0c4.8,0,7,2.2,7,7.1c0,13.2,0,26.4,0,39.6c0,4.9-2.2,7.1-7,7.1C218.9,303.1,209.3,303.1,199.7,303.1z
		 M199.6,261.2c-7.1,0-14.2,0.1-21.3,0c-2.1,0-2.7,0.6-2.7,2.7c0.1,8.2,0.1,16.5,0,24.7c0,2.1,0.6,2.7,2.7,2.7
		c14.2-0.1,28.4-0.1,42.6,0c2.1,0,2.7-0.6,2.7-2.7c-0.1-8.2-0.1-16.5,0-24.7c0-2.1-0.6-2.7-2.7-2.7
		C213.8,261.3,206.7,261.2,199.6,261.2z"/>
	<path class="st1" d="M199.6,225.3c11.5,0,22.9,0,34.4,0c4.8,0,7.5,2.1,7.5,5.9c0.1,3.8-2.7,6.1-7.3,6.1c-23.2,0-46.3,0-69.5,0
		c-2.9,0-5.1-0.8-6.4-3.6c-1-2.1-0.7-4.1,0.6-6c1.4-2,3.5-2.5,5.9-2.5C176.4,225.3,188,225.3,199.6,225.3z"/>
	<path class="st1" d="M223.9,123.5c5.6,0,11.2,0,16.8,0c4.1,0,6.7,2.4,6.8,5.9c0.1,3.5-2.6,6-6.6,6.1c-11.6,0.1-23.1,0.1-34.7,0
		c-4,0-6.6-2.5-6.6-6.1c0.1-3.5,2.6-5.8,6.8-5.9C212.3,123.4,218.1,123.5,223.9,123.5z"/>
	<path class="st1" d="M223.7,147.4c5.6,0,11.2,0,16.8,0c4.4,0,7,2.4,7,6c0,3.6-2.7,5.9-7.1,5.9c-11.2,0-22.4,0-33.6,0
		c-4.4,0-7.1-2.2-7.2-5.8c-0.1-3.8,2.6-6.1,7.3-6.1C212.5,147.4,218.1,147.4,223.7,147.4z"/>
	<path class="st1" d="M223.2,183.4c-5.5,0-10.9,0-16.4,0c-4.4,0-7.1-2.3-7.1-5.9c-0.1-3.7,2.6-6.1,6.9-6.1c11.3,0,22.6,0,34,0
		c4.3,0,7,2.4,6.9,6.1c-0.1,3.6-2.7,5.9-7.1,5.9C234.6,183.4,228.9,183.4,223.2,183.4z"/>
	<path class="st1" d="M223.2,111.5c-5.6,0-11.2,0-16.8,0c-4.1,0-6.7-2.4-6.7-5.9c-0.1-3.5,2.5-6,6.6-6c11.6-0.1,23.1-0.1,34.7,0
		c4,0,6.6,2.5,6.6,6.1c-0.1,3.5-2.7,5.8-6.8,5.9C234.9,111.6,229,111.5,223.2,111.5z"/>
	<path class="st1" d="M223.2,207.3c-5.5,0-10.9,0-16.4,0c-4.4,0-7.1-2.3-7.1-5.9c-0.1-3.7,2.6-6,6.9-6.1c11.3,0,22.6,0,34,0
		c4.3,0,7,2.4,6.9,6.1c-0.1,3.6-2.7,5.9-7.1,5.9C234.6,207.3,228.9,207.3,223.2,207.3z"/>
	<path class="st1" d="M163.7,105.7c-0.1,3.2-2.8,5.9-6,5.9c-3.4,0-6.1-2.9-5.9-6.3c0.2-3.2,2.9-5.8,6.2-5.7
		C161.2,99.7,163.8,102.4,163.7,105.7z"/>
	<path class="st1" d="M187.7,105.4c0.1,3.2-2.5,6-5.8,6.1c-3.2,0.1-6-2.4-6.2-5.7c-0.2-3.4,2.5-6.3,5.9-6.3
		C184.9,99.5,187.6,102.2,187.7,105.4z"/>
	<path class="st1" d="M163.7,177.4c0,3.2-2.7,5.9-5.9,6c-3.4,0-6.2-2.8-6-6.2c0.1-3.3,2.8-5.8,6.1-5.8
		C161.1,171.5,163.7,174.2,163.7,177.4z"/>
	<path class="st1" d="M181.8,183.3c-3.2,0.1-6-2.5-6.1-5.7c-0.1-3.4,2.6-6.2,6-6.2c3.2,0,5.9,2.7,5.9,5.9
		C187.7,180.5,185.1,183.3,181.8,183.3z"/>
	<path class="st1" d="M163.7,153.3c0.1,3.2-2.5,6-5.8,6.1c-3.2,0.1-6-2.4-6.2-5.7c-0.2-3.4,2.6-6.3,6-6.3
		C160.9,147.4,163.6,150.1,163.7,153.3z"/>
	<path class="st1" d="M163.7,201.5c-0.1,3.2-2.8,5.9-6.1,5.8c-3.4,0-6.1-3-5.9-6.3c0.2-3.2,3-5.8,6.2-5.6
		C161.2,195.5,163.8,198.2,163.7,201.5z"/>
	<path class="st1" d="M181.5,207.3c-3.2-0.1-5.9-2.8-5.9-6c0-3.4,2.9-6.1,6.3-6c3.2,0.2,5.8,3,5.7,6.2
		C187.5,204.8,184.8,207.4,181.5,207.3z"/>
	<path class="st1" d="M181.5,147.4c3.2-0.1,6,2.5,6.1,5.7c0.1,3.4-2.6,6.3-6,6.2c-3.2,0-5.9-2.7-5.9-5.9
		C175.7,150.2,178.3,147.5,181.5,147.4z"/>
	<path class="st1" d="M187.7,129.6c-0.1,3.2-2.8,5.9-6.1,5.8c-3.4,0-6.1-3-5.9-6.3c0.2-3.2,3-5.8,6.2-5.6
		C185.2,123.6,187.7,126.4,187.7,129.6z"/>
	<path class="st1" d="M163.7,129.5c0,3.2-2.6,5.9-5.9,6c-3.4,0.1-6.2-2.8-6.1-6.2c0.1-3.3,2.8-5.8,6.1-5.8
		C161.1,123.5,163.7,126.2,163.7,129.5z"/>
	<path class="st1" d="M61.9,105.4c0.1,3.2-2.5,6-5.8,6.1c-3.2,0.1-6-2.4-6.2-5.7c-0.2-3.4,2.6-6.3,6-6.3
		C59.2,99.5,61.9,102.2,61.9,105.4z"/>
	<path class="st1" d="M85.9,105.6c0,3.2-2.7,5.9-5.9,6c-3.4,0-6.2-2.8-6-6.2c0.1-3.3,2.8-5.8,6.1-5.8
		C83.3,99.6,85.9,102.3,85.9,105.6z"/>
	<path class="st1" d="M61.9,129.5c0,3.2-2.7,5.9-5.9,6c-3.4,0-6.2-2.8-6.1-6.2c0.1-3.3,2.8-5.8,6.1-5.8
		C59.3,123.6,62,126.2,61.9,129.5z"/>
	<path class="st1" d="M55.9,183.3c-3.2-0.1-5.9-2.8-5.9-6c0-3.4,2.9-6.1,6.3-6c3.2,0.2,5.8,2.9,5.7,6.2
		C61.8,180.8,59.1,183.4,55.9,183.3z"/>
	<path class="st1" d="M85.9,177.3c0,3.2-2.6,6-5.8,6c-3.2,0.1-6-2.5-6.1-5.7c-0.1-3.4,2.6-6.2,6-6.2
		C83.2,171.4,85.9,174.1,85.9,177.3z"/>
	<path class="st1" d="M55.9,159.4c-3.2,0-5.9-2.7-5.9-5.9c0-3.4,2.8-6.2,6.2-6c3.2,0.1,5.8,2.9,5.8,6.1
		C61.9,156.8,59.2,159.4,55.9,159.4z"/>
	<path class="st1" d="M56.3,195.3c3.2,0.2,5.8,2.9,5.7,6.2c-0.1,3.2-2.9,5.8-6.1,5.8c-3.4-0.1-6.1-3-5.9-6.4
		C50.2,197.7,53,195.2,56.3,195.3z"/>
	<path class="st1" d="M85.9,201.4c-0.1,3.2-2.8,5.9-6,5.9c-3.4,0-6.1-2.9-5.9-6.3c0.2-3.2,3-5.8,6.2-5.7
		C83.4,195.4,86,198.2,85.9,201.4z"/>
	<path class="st1" d="M85.9,153.3c0.1,3.2-2.6,6-5.8,6.1c-3.2,0.1-6-2.5-6.2-5.7c-0.2-3.4,2.6-6.3,6-6.3
		C83.2,147.4,85.8,150.1,85.9,153.3z"/>
	<path class="st1" d="M79.9,135.5c-3.2,0-5.9-2.7-6-5.9c0-3.4,2.8-6.2,6.2-6c3.2,0.1,5.8,2.9,5.8,6.1
		C85.8,132.8,83.1,135.5,79.9,135.5z"/>
	<path class="st1" d="M325.3,207.3c-5.6,0-11.2,0-16.8,0c-4.4,0-7.1-2.3-7.1-5.9c0-3.7,2.6-6,7-6c11.3,0,22.6,0,34,0
		c4.3,0,7,2.5,6.9,6.1c-0.1,3.5-2.7,5.8-6.8,5.8C336.7,207.3,331,207.3,325.3,207.3z"/>
	<path class="st1" d="M325,135.5c-5.5,0-10.9,0-16.4,0c-4.4,0-7.1-2.3-7.1-5.9c-0.1-3.7,2.6-6.1,6.9-6.1c11.3,0,22.6,0,34,0
		c4.3,0,7,2.4,6.9,6.1c-0.1,3.6-2.7,5.9-7.1,5.9C336.4,135.5,330.7,135.5,325,135.5z"/>
	<path class="st1" d="M325.3,183.4c-5.6,0-11.2,0-16.8,0c-4.4,0-7-2.3-7.1-6c0-3.6,2.6-6,7-6c11.3,0,22.6,0,34,0
		c4.3,0,7,2.5,6.9,6.1c-0.1,3.5-2.7,5.8-6.8,5.8C336.7,183.4,331,183.4,325.3,183.4z"/>
	<path class="st1" d="M325,159.4c-5.5,0-10.9,0-16.4,0c-4.4,0-7.1-2.3-7.1-5.9c-0.1-3.7,2.6-6,6.9-6.1c11.3,0,22.6,0,34,0
		c4.3,0,7,2.4,6.9,6.1c-0.1,3.6-2.7,5.9-7.1,5.9C336.4,159.4,330.7,159.4,325,159.4z"/>
	<path class="st1" d="M325.7,99.5c5.6,0,11.2,0,16.8,0c4.1,0,6.7,2.4,6.7,5.9c0,3.5-2.6,6-6.6,6c-11.6,0.1-23.1,0.1-34.7,0
		c-4,0-6.6-2.6-6.6-6.1c0.1-3.5,2.6-5.8,6.8-5.9C314,99.5,319.9,99.5,325.7,99.5z"/>
	<path class="st1" d="M283.4,99.6c3.2,0,5.9,2.6,6,5.9c0.1,3.4-2.8,6.2-6.2,6.1c-3.2-0.1-5.9-2.8-5.8-6.1
		C277.5,102.2,280.2,99.6,283.4,99.6z"/>
	<path class="st1" d="M283.4,183.3c-3.2,0-5.9-2.7-6-5.9c-0.1-3.4,2.8-6.2,6.2-6.1c3.2,0.1,5.8,2.8,5.8,6.1
		C289.4,180.7,286.7,183.4,283.4,183.3z"/>
	<path class="st1" d="M283.4,147.4c3.2,0,5.9,2.6,6,5.8c0.1,3.4-2.8,6.2-6.1,6.1c-3.2-0.1-5.9-2.8-5.8-6
		C277.5,150.1,280.1,147.5,283.4,147.4z"/>
	<path class="st1" d="M289.4,129.8c-0.2,3.2-3,5.8-6.2,5.7c-3.4-0.1-6-3.1-5.8-6.5c0.3-3.2,3.1-5.7,6.4-5.5
		C287,123.7,289.6,126.5,289.4,129.8z"/>
	<path class="st1" d="M283.7,195.3c3.2,0.2,5.8,2.9,5.7,6.2c-0.1,3.2-2.9,5.8-6.1,5.8c-3.4-0.1-6.1-3-5.9-6.4
		C277.7,197.7,280.5,195.2,283.7,195.3z"/>
	<path class="st0" d="M199.6,261.2c7.1,0,14.2,0.1,21.3,0c2.1,0,2.7,0.6,2.7,2.7c-0.1,8.2-0.1,16.5,0,24.7c0,2.1-0.6,2.7-2.7,2.7
		c-14.2-0.1-28.4-0.1-42.6,0c-2.1,0-2.7-0.6-2.7-2.7c0.1-8.2,0.1-16.5,0-24.7c0-2.1,0.6-2.7,2.7-2.7
		C185.4,261.3,192.5,261.2,199.6,261.2z"/>
</g>
</svg>
