<?xml version="1.0" encoding="utf-8"?>
<!-- Generator: Adobe Illustrator 26.0.1, SVG Export Plug-In . SVG Version: 6.00 Build 0)  -->
<svg version="1.1" id="Layer_1" xmlns="http://www.w3.org/2000/svg" xmlns:xlink="http://www.w3.org/1999/xlink" x="0px" y="0px"
	 width="361px" height="333px" viewBox="0 0 361 333" style="enable-background:new 0 0 361 333;" xml:space="preserve">
<style type="text/css">
	.st0{fill:#5F22D9;}
	.st1{fill:#FFFFFF;}
	.st2{fill:#9285F4;}
	.st3{display:none;fill:#FEFEFE;}
	.st4{display:none;fill:#FCFCFC;}
</style>
<rect x="-593.3" y="-225.7" class="st0" width="320.2" height="229.8"/>
<rect x="-584.1" y="82.2" class="st1" width="320.2" height="229.8"/>
<rect x="-574.9" y="397.8" class="st2" width="320.2" height="229.8"/>
<g>
	<path class="st3" d="M238.5,352.7c-87.1,0-174.2,0-261.3,0c0-123.1,0-246.3-0.1-369.4c0-2.7,0.6-3.3,3.3-3.3
		c123.4,0.1,246.8,0.1,370.1,0c2.7,0,3.3,0.6,3.3,3.3c-0.1,122-0.1,244.1,0,366.1c0,2.7-0.6,3.3-3.3,3.3
		c-34.7-0.1-69.4-0.1-104.2-0.1c4-1.5,8-2.8,11.1-6c4-4.1,8.2-7.9,12-12.1c8.3-9,8.3-20.6-0.4-29.2c-17.8-17.6-35.3-35.4-53.2-52.9
		c-28.5-27.7-56.2-56.3-84.8-83.9c-1.5-1.5-1.5-2.3,0-3.7c6.8-6.3,13.3-13,20-19.4c23.5-22.6,45.9-46.4,69.6-68.8
		c9.8-9.2,19-18.9,28.5-28.5c7.2-7.2,14.5-14.2,21.4-21.7c6.9-7.5,7-18.5,0.4-26.2c-4.3-4.9-8.9-9.6-13.7-14
		c-8.8-7.9-20-7.6-28.7,0.6c-7.5,7.1-14.9,14.4-22.4,21.6c-19.8,19.3-39.1,39.2-58.9,58.5c-28.5,27.7-56.2,56.2-84.8,84
		c-9.9,9.6-9.8,21.6,0,31.3c6.5,6.5,13.1,12.8,19.7,19.2c23.5,22.6,46,46.3,69.6,68.9c23,22,44.6,45.3,67.8,67
		C225.5,343.1,230.6,349.6,238.5,352.7z"/>
</g>
<g>
	<path class="st1" d="M20.1,283.5c0-77.8,0-155.6,0-233.4c1.1-0.5,0.7-1.5,0.9-2.3c1.2-4.3,2.7-8.4,5.3-12.2
		c9.1-14.1,22.3-20.3,38.7-20.4c52.6-0.1,105.2,0,157.8,0c24.7,0,49.4,0,74.1,0c9.3,0,17.9,2.5,25.6,7.7c7.8,5.2,13,12.4,16.1,21.2
		c0.8,2.2,1.2,4.5,2.4,6.6c0,77.6,0,155.2,0,232.8c-1,2.3-2,4.6-2.9,7c-4,11.4-11.8,19.1-22.7,24c-4.2,1.9-8.6,2.7-13,3.9
		c-81.9,0-163.7,0-245.6,0c-0.8-1.1-2.1-0.9-3.2-1.1c-9.2-2.3-17.3-6.5-23.4-13.8c-4.6-5.4-8.3-11.3-9.5-18.6
		C20.7,284.4,20.9,283.7,20.1,283.5z M190.7,149.4c0-2.6,0-5.3,0-7.9c-0.1-4.6-2.2-6.8-6.7-6.8c-9.5,0-19,0-28.5,0
		c-4.6,0-7.3,2.8-7.3,7.5c0,37.2,0,74.4,0,111.7c0,5,2.7,7.8,7.7,7.8c8.8,0,17.6,0,26.4,0c6.5,0,8.3-1.8,8.3-8.2
		c0-18.6,0-37.1,0-55.7c0-6.9,1.1-13.5,4.9-19.6c3.2-5.1,7-9,13-10.3c11.6-2.5,23.5,1.4,26.5,15.3c1.1,5.2,1.4,10.3,1.4,15.6
		c0,18.4,0.1,36.7-0.2,55.1c-0.1,5.4,3.3,7.8,8,7.7c9.4-0.1,18.8,0,28.2,0c5.3,0,7.4-2.1,7.4-7.4c0-11.6,0.1-23.1,0-34.7
		c-0.1-14.5,0.6-29-1.1-43.5c-1.4-11.9-5.1-22.7-13.6-31.5c-1.2-1.2-2.4-2.4-3.8-3.3c-8.8-6.1-18.8-8.4-29.3-8.5
		C216,132.5,201.5,135.8,190.7,149.4z M87.1,197.9c0,18.8,0,37.5,0,56.3c0,5.1,2.4,7.4,7.4,7.5c9,0,18,0,27,0c5.8,0,8.1-2.3,8.1-8.1
		c0-36.9,0-73.8,0-110.7c0-5.9-2.2-8.1-8-8.2c-8.9-0.1-17.8-0.1-26.7,0c-5.8,0-7.8,2.2-7.8,7.9C87.1,161,87.1,179.4,87.1,197.9z
		 M107.8,123.6c14.7,0.3,27.4-10.7,27.5-25.6c0.1-14.9-12-25.8-26.5-26c-16.7-0.3-27.7,11.8-28,25.5
		C80.5,111,91.7,123.5,107.8,123.6z"/>
	<path class="st4" d="M340.9,50.7c-1.1-2.1-1.6-4.4-2.4-6.6c-3.1-8.8-8.3-16-16.1-21.2c-7.8-5.2-16.3-7.7-25.6-7.7
		c-24.7,0-49.4,0-74.1,0c-52.6,0-105.2-0.1-157.8,0c-16.4,0-29.5,6.2-38.7,20.4c-2.5,3.9-4.1,7.9-5.3,12.2c-0.2,0.8,0.2,1.9-0.9,2.3
		C20.1,39,20.1,28,20,16.9c0-2,0.4-2.4,2.4-2.4c89.1,0.1,178.1,0.1,267.2,0.1c16.4,0,32.8,0,49.2-0.1c1.8,0,2.1,0.4,2.1,2.1
		C340.9,28,340.9,39.3,340.9,50.7z"/>
	<path class="st4" d="M302.4,318.5c4.4-1.2,8.8-2,13-3.9c10.9-4.9,18.7-12.6,22.7-24c0.8-2.4,1.9-4.7,2.9-7c0,11.1,0,22.1,0,33.2
		c0,1.5-0.3,1.8-1.8,1.8C326.9,318.4,314.7,318.5,302.4,318.5z"/>
	<path class="st4" d="M20.1,283.5c0.8,0.2,0.6,0.9,0.7,1.4c1.2,7.2,4.9,13.1,9.5,18.6c6.2,7.3,14.2,11.6,23.4,13.8
		c1.1,0.3,2.4,0,3.2,1.1c-11.6,0-23.2,0-34.9,0c-1.6,0-2-0.3-2-2C20.1,305.5,20.1,294.5,20.1,283.5z"/>
	<path class="st0" d="M190.7,149.4c10.8-13.6,25.3-16.9,41.3-16.7c10.6,0.1,20.5,2.4,29.3,8.5c1.4,0.9,2.6,2.1,3.8,3.3
		c8.5,8.8,12.2,19.6,13.6,31.5c1.7,14.5,1,29,1.1,43.5c0.1,11.6,0,23.1,0,34.7c0,5.3-2.1,7.4-7.4,7.4c-9.4,0-18.8,0-28.2,0
		c-4.7,0-8.1-2.3-8-7.7c0.3-18.4,0.1-36.7,0.2-55.1c0-5.2-0.3-10.4-1.4-15.6c-3-13.9-14.9-17.8-26.5-15.3c-6,1.3-9.9,5.2-13,10.3
		c-3.8,6.1-4.9,12.7-4.9,19.6c0,18.6,0,37.1,0,55.7c0,6.4-1.8,8.2-8.3,8.2c-8.8,0-17.6,0-26.4,0c-5,0-7.7-2.8-7.7-7.8
		c0-37.2,0-74.4,0-111.7c0-4.7,2.7-7.5,7.3-7.5c9.5,0,19,0,28.5,0c4.5,0,6.6,2.2,6.7,6.8C190.8,144.1,190.7,146.7,190.7,149.4z"/>
	<path class="st0" d="M87.1,197.9c0-18.5,0-36.9,0-55.4c0-5.7,2.1-7.9,7.8-7.9c8.9-0.1,17.8-0.1,26.7,0c5.8,0.1,8,2.3,8,8.2
		c0,36.9,0,73.8,0,110.7c0,5.8-2.3,8.1-8.1,8.1c-9,0-18,0-27,0c-5.1,0-7.4-2.4-7.4-7.5C87.1,235.4,87.1,216.6,87.1,197.9z"/>
	<path class="st0" d="M107.8,123.6c-16.2-0.2-27.3-12.6-27-26.1c0.3-13.7,11.3-25.7,28-25.5c14.5,0.2,26.6,11.1,26.5,26
		C135.3,113,122.5,123.9,107.8,123.6z"/>
</g>
</svg>
