<?xml version="1.0" encoding="utf-8"?>
<!-- Generator: Adobe Illustrator 26.0.1, SVG Export Plug-In . SVG Version: 6.00 Build 0)  -->
<svg version="1.1" id="Layer_1" xmlns="http://www.w3.org/2000/svg" xmlns:xlink="http://www.w3.org/1999/xlink" x="0px" y="0px"
	 width="361px" height="394px" viewBox="0 0 361 394" style="enable-background:new 0 0 361 394;" xml:space="preserve">
<style type="text/css">
	.st0{fill:#5F22D9;}
	.st1{fill:#FFFFFF;}
	.st2{fill:#9285F4;}
	.st3{display:none;fill:#FEFEFE;}
</style>
<rect x="-593.3" y="-194.7" class="st0" width="320.2" height="229.8"/>
<rect x="-584.1" y="113.2" class="st1" width="320.2" height="229.8"/>
<rect x="-574.9" y="428.8" class="st2" width="320.2" height="229.8"/>
<g>
	<path class="st3" d="M238.5,383.7c-87.1,0-174.2,0-261.3,0c0-123.1,0-246.3-0.1-369.4c0-2.7,0.6-3.3,3.3-3.3
		c123.4,0.1,246.8,0.1,370.1,0c2.7,0,3.3,0.6,3.3,3.3c-0.1,122-0.1,244.1,0,366.1c0,2.7-0.6,3.3-3.3,3.3
		c-34.7-0.1-69.4-0.1-104.2-0.1c4-1.5,8-2.8,11.1-6c4-4.1,8.2-7.9,12-12.1c8.3-9,8.3-20.6-0.4-29.2c-17.8-17.6-35.3-35.4-53.2-52.9
		c-28.5-27.7-56.2-56.3-84.8-83.9c-1.5-1.5-1.5-2.3,0-3.7c6.8-6.3,13.3-13,20-19.4c23.5-22.6,45.9-46.4,69.6-68.8
		c9.8-9.2,19-18.9,28.5-28.5c7.2-7.2,14.5-14.2,21.4-21.7c6.9-7.5,7-18.5,0.4-26.2c-4.3-4.9-8.9-9.6-13.7-14
		c-8.8-7.9-20-7.6-28.7,0.6c-7.5,7.1-14.9,14.4-22.4,21.6c-19.8,19.3-39.1,39.2-58.9,58.5c-28.5,27.7-56.2,56.2-84.8,84
		c-9.9,9.6-9.8,21.6,0,31.3c6.5,6.5,13.1,12.8,19.7,19.2c23.5,22.6,46,46.3,69.6,68.9c23,22,44.6,45.3,67.8,67
		C225.5,374.1,230.6,380.6,238.5,383.7z"/>
	<path class="st0" d="M238.5,383.7c-7.9-3.1-13-9.6-19-15.1c-23.2-21.7-44.8-45.1-67.8-67c-23.6-22.5-46.1-46.2-69.6-68.9
		c-6.6-6.3-13.2-12.7-19.7-19.2c-9.7-9.7-9.8-21.8,0-31.3c28.5-27.7,56.2-56.3,84.8-84c19.9-19.3,39.1-39.1,58.9-58.5
		c7.4-7.2,14.8-14.5,22.4-21.6c8.7-8.2,19.9-8.6,28.7-0.6c4.8,4.4,9.5,9,13.7,14c6.6,7.7,6.5,18.7-0.4,26.2
		c-6.9,7.5-14.2,14.5-21.4,21.7c-9.5,9.5-18.8,19.2-28.5,28.5c-23.7,22.4-46.1,46.2-69.6,68.8c-6.7,6.4-13.2,13-20,19.4
		c-1.5,1.4-1.5,2.2,0,3.7c28.6,27.6,56.3,56.2,84.8,83.9c17.9,17.4,35.5,35.2,53.2,52.9c8.7,8.6,8.7,20.2,0.4,29.2
		c-3.9,4.2-8,8-12,12.1c-3.1,3.2-7.1,4.6-11.1,6C243.9,383.7,241.2,383.7,238.5,383.7z"/>
</g>
</svg>
