<?xml version="1.0" encoding="utf-8"?>
<!-- Generator: Adobe Illustrator 26.0.1, SVG Export Plug-In . SVG Version: 6.00 Build 0)  -->
<svg version="1.1" id="Layer_1" xmlns="http://www.w3.org/2000/svg" xmlns:xlink="http://www.w3.org/1999/xlink" x="0px" y="0px"
	 width="361px" height="394px" viewBox="0 0 361 394" style="enable-background:new 0 0 361 394;" xml:space="preserve">
<style type="text/css">
	.st0{fill:#5F22D9;}
	.st1{fill:#FFFFFF;}
	.st2{fill:#9285F4;}
	.st3{display:none;fill:#FDFDFD;}
</style>
<rect x="-593.3" y="-194.7" class="st0" width="320.2" height="229.8"/>
<rect x="-584.1" y="113.2" class="st1" width="320.2" height="229.8"/>
<rect x="-574.9" y="428.8" class="st2" width="320.2" height="229.8"/>
<g>
	<path class="st3" d="M-9.9,192c0-63,0-126-0.1-188.9C-10,0.5-9.5,0-6.9,0C119,0.1,245,0.1,370.9,0c2.6,0,3.1,0.5,3.1,3.1
		c-0.1,126-0.1,251.9,0,377.9c0,2.6-0.5,3.1-3.1,3.1c-126-0.1-251.9-0.1-377.9,0c-2.6,0-3.1-0.5-3.1-3.1C-9.9,318-9.9,255-9.9,192z
		 M300,92.7c0,14.3,0,28.1,0,42c0,4.2,1.2,9.2-0.6,12.4c-1.7,3.1-6.7,4.4-10.2,6.5c-0.3,0.2-0.6,0.4-1,0.6c-2.2,1.3-3.3,3.2-3.3,5.9
		c0,15.1,0,30.2,0,45.3c0,2.6,1,4.6,3.3,5.8c2.4,1.3,4.6,0.7,6.6-0.8c3-2.2,6.1-4.4,8.9-6.8c1.6-1.3,2.7-1.6,4.4-0.1
		c2.6,2.3,5.6,4.2,8.3,6.3c2.2,1.7,4.4,2.7,7.2,1.4c2.7-1.3,3.5-3.7,3.4-6.5c0-14.6,0-29.2,0-43.8c0-3.3-1.2-5.7-4.2-7.3
		c-2.9-1.5-5.6-3.3-8.5-4.7c-2.1-1-2.7-2.4-2.6-4.7c0.1-19.8,0-39.7,0.1-59.5c0-4-1.4-6.5-4.9-8.3c-42.9-22.9-85.8-45.8-128.6-68.8
		c-3-1.6-5.7-1.7-8.8-0.1c-42.9,23.1-85.9,46-128.9,69c-2.6,1.4-4.7,3-4.6,6.2c0,3.2,2.1,4.8,4.7,6.1c11.3,6,22.5,12.2,33.9,18
		c2.4,1.2,3,2.7,3,5.2c-0.1,25.9,0,51.9-0.1,77.8c0,4.1,1.4,6.7,5,8.7c23.7,13.5,47.3,27,70.7,40.9c13.9,8.2,27.3,8.2,41.2,0
		c23-13.6,46.2-26.9,69.5-40.1c4.5-2.5,6.2-5.5,6.2-10.7c-0.2-25.6-0.1-51.1-0.1-76.7c0-1.4-0.6-3.1,1.1-4
		C280.8,103,290.2,97.9,300,92.7z M235.9,345.8c8.3,0.6,16.1,1.2,23.9,1.9c18.7,1.6,37.4,3.9,56,7c4.4,0.7,6.8-0.8,7.7-5.1
		c0.5-2.4,1.6-2.6,3.5-2.2c4.5,0.9,9.1,1.7,13.6,2.6c5.4,1,7.9-0.8,8.8-6.2c4-26.1,4-52.1,0-78.2c-0.8-5.4-3.4-7.3-8.8-6.2
		c-4.6,0.9-9.3,1.8-14,2.6c-1.3,0.2-2.4,0.6-3-1.5c-1.4-5.4-3.5-6.5-9-5.7c-4.4,0.7-8.9,1.4-13.3,2.1c-24.9,3.6-50,5.9-75.2,7.1
		c-33.9,1.7-67.8,1.4-101.7-0.7c-25.6-1.6-51.1-4.4-76.5-8.6c-4.9-0.8-7.3,0.6-8.2,5.3c-0.5,2.5-1.8,2.2-3.4,1.9
		c-4.5-0.8-9.1-1.7-13.6-2.5c-5.5-1.1-8,0.7-8.8,6.2c-4,26.1-4.1,52.1,0,78.2c0.9,5.5,3.3,7.3,8.7,6.3c4.5-0.9,9.1-1.7,13.6-2.6
		c1.9-0.4,3-0.4,3.6,2.1c0.9,4.4,3.5,5.9,8,5.1c16-2.7,32-4.7,48.2-6.3c10.3-1,20.5-1.7,30.9-2.6c0,1.7-1,2.6-1.7,3.5
		c-1.7,2.4-2.5,4.9-0.7,7.6c1.6,2.5,4.1,3,6.9,2.7c4.2-0.4,8.5-0.6,12.7-1c1.8-0.2,2.7,0.4,3.3,2c1.6,3.8,3.4,7.5,5,11.2
		c1.1,2.6,2.6,4.9,5.7,5.2c3.2,0.3,5-1.7,6.5-4.1c5-7.7,10.2-15.4,15.1-23.1c1.4-2.2,2-2.6,3.6-0.1c5.1,8,10.3,15.9,15.6,23.7
		c3.5,5.3,8.8,4.8,11.5-0.9c1.8-3.8,3.6-7.6,5.1-11.6c0.8-2.2,2.1-2.6,4.2-2.4c4.3,0.5,8.7,0.8,13,1c2.6,0.2,4.7-0.8,6-3
		c1.2-2.1,1.1-4.3-0.3-6.4C237.8,349,237,347.7,235.9,345.8z"/>
	<path class="st0" d="M300,92.7c-9.8,5.2-19.2,10.2-28.5,15.2c-1.8,0.9-1.1,2.6-1.1,4c0,25.6-0.1,51.1,0.1,76.7
		c0,5.1-1.7,8.1-6.2,10.7c-23.3,13.2-46.5,26.5-69.5,40.1c-13.9,8.2-27.3,8.2-41.2,0c-23.4-13.9-47.1-27.4-70.7-40.9
		c-3.6-2.1-5-4.6-5-8.7c0.1-25.9,0-51.9,0.1-77.8c0-2.5-0.6-3.9-3-5.2c-11.4-5.9-22.6-12-33.9-18c-2.6-1.4-4.7-3-4.7-6.1
		c0-3.2,2.1-4.8,4.6-6.2c43-23,86-45.9,128.9-69c3.1-1.7,5.7-1.6,8.8,0.1c42.8,23,85.7,45.9,128.6,68.8c3.5,1.9,4.9,4.3,4.9,8.3
		c-0.1,19.8,0,39.7-0.1,59.5c0,2.3,0.6,3.7,2.6,4.7c2.9,1.4,5.6,3.2,8.5,4.7c3,1.6,4.2,4,4.2,7.3c-0.1,14.6,0,29.2,0,43.8
		c0,2.8-0.7,5.2-3.4,6.5c-2.8,1.4-5,0.3-7.2-1.4c-2.8-2.1-5.7-4.1-8.3-6.3c-1.7-1.5-2.8-1.3-4.4,0.1c-2.9,2.4-5.9,4.5-8.9,6.8
		c-2,1.5-4.2,2.1-6.6,0.8c-2.3-1.2-3.3-3.2-3.3-5.8c0-15.1,0-30.2,0-45.3c0-2.6,1.1-4.5,3.3-5.9c0.3-0.2,0.6-0.4,1-0.6
		c3.5-2.1,8.5-3.4,10.2-6.5c1.8-3.3,0.6-8.2,0.6-12.4C300,120.9,300,107.1,300,92.7z M55,82.6c0.7,0.5,1.2,0.8,1.7,1.1
		c38.4,20.5,76.7,41,115.1,61.6c2,1.1,3.4,0.6,5.1-0.3c18.4-9.9,36.8-19.7,55.2-29.6c20.3-10.8,40.5-21.7,61-32.6
		c-0.8-0.5-1.4-1-2.1-1.3C252.8,61,214.5,40.5,176.3,20c-2-1.1-3.4-0.6-5.1,0.3C136.9,38.8,102.4,57.2,68,75.6
		C63.8,77.9,59.5,80.2,55,82.6z M89.7,115.6c0,12.7,0.1,25.4-0.1,38.1c0,2.9,1,4.4,3.4,5.8c23.4,13.4,46.8,26.8,70.1,40.5
		c7.4,4.4,14.3,4.4,21.7,0c21-12.4,41.9-24.9,63.4-36.4c7.9-4.2,11-8.9,10.2-17.8c-0.9-10-0.2-20.1-0.2-30.6c-1.6,0.8-2.8,1.3-4,2
		c-24.8,13.2-49.6,26.4-74.3,39.8c-4.2,2.3-7.5,2.4-11.8,0.1c-24.8-13.5-49.7-26.7-74.6-40C92.5,116.4,91.5,115.4,89.7,115.6z
		 M89.7,171.3c0,5.3,0.2,9.8-0.1,14.2c-0.1,2.5,0.7,3.7,2.9,4.9c22.5,12.8,44.9,25.6,67.2,38.8c9.8,5.8,19,5.8,28.8-0.1
		c19.4-11.5,39-22.5,58.4-33.9c3.7-2.2,9-3.3,10.8-6.9c1.7-3.5,0.5-8.5,0.6-12.9c0-4.2,0-4.2-3.5-2.2
		c-21.2,12.2-42.5,24.3-63.6,36.8c-11.5,6.8-22.6,6.9-34.1,0c-15.4-9.2-31-18-46.5-26.9C103.8,179.4,97,175.5,89.7,171.3z
		 M315.2,194.2c0-10.7,0-20.2,0-29.7c0-0.9-0.4-1.5-1.2-2.1c-5.9-4.6-7.7-4.8-14-1.1c-0.2,0.1-0.4,0.3-0.6,0.4
		c-2.1,0.7-2.6,2.1-2.6,4.3c0.1,6.3,0.1,12.7,0.1,19c0,2.8,0,5.5,0,8.3c0.2,0.3,0.4,0.6,0.6,0.9
		C303.1,186.5,308.9,187.4,315.2,194.2z"/>
	<path class="st0" d="M235.9,345.8c1.2,1.9,2,3.2,2.8,4.6c1.3,2.1,1.5,4.2,0.3,6.4c-1.3,2.3-3.4,3.2-6,3c-4.4-0.3-8.7-0.5-13-1
		c-2.2-0.3-3.4,0.2-4.2,2.4c-1.5,3.9-3.3,7.8-5.1,11.6c-2.7,5.7-8,6.2-11.5,0.9c-5.3-7.9-10.5-15.7-15.6-23.7
		c-1.6-2.5-2.2-2.1-3.6,0.1c-5,7.8-10.1,15.4-15.1,23.1c-1.6,2.4-3.4,4.4-6.5,4.1c-3.2-0.3-4.6-2.6-5.7-5.2c-1.6-3.8-3.5-7.4-5-11.2
		c-0.7-1.7-1.5-2.2-3.3-2c-4.2,0.5-8.5,0.6-12.7,1c-2.8,0.3-5.3-0.2-6.9-2.7c-1.7-2.7-1-5.2,0.7-7.6c0.7-1,1.7-1.9,1.7-3.5
		c-10.3,0.8-20.6,1.5-30.9,2.6c-16.1,1.6-32.2,3.6-48.2,6.3c-4.6,0.8-7.2-0.7-8-5.1c-0.5-2.5-1.7-2.5-3.6-2.1
		c-4.5,0.9-9.1,1.7-13.6,2.6c-5.4,1-7.9-0.8-8.7-6.3c-4-26.1-4-52.1,0-78.2c0.8-5.4,3.4-7.2,8.8-6.2c4.5,0.9,9.1,1.7,13.6,2.5
		c1.6,0.3,2.9,0.6,3.4-1.9c1-4.7,3.4-6.1,8.2-5.3c25.4,4.2,50.9,6.9,76.5,8.6c33.9,2.2,67.8,2.4,101.7,0.7
		c25.2-1.3,50.2-3.6,75.2-7.1c4.4-0.6,8.9-1.4,13.3-2.1c5.5-0.9,7.6,0.3,9,5.7c0.6,2.2,1.7,1.8,3,1.5c4.7-0.8,9.3-1.7,14-2.6
		c5.4-1,8,0.8,8.8,6.2c4,26.1,4,52.1,0,78.2c-0.8,5.5-3.4,7.3-8.8,6.2c-4.5-0.9-9.1-1.7-13.6-2.6c-2-0.4-3-0.2-3.5,2.2
		c-0.9,4.2-3.4,5.8-7.7,5.1c-18.6-3-37.2-5.4-56-7C252,347,244.2,346.4,235.9,345.8z M158.9,276.9c-1.9-0.2-3.2-0.3-4.5-0.4
		c-34-1-67.9-3.8-101.6-9.1c-1.8-0.3-2.4,0.2-2.7,2c-3.5,23.5-3.5,46.9,0,70.4c0.2,1.6,0.6,2.3,2.6,2c26.6-4.2,53.4-6.9,80.3-8.1
		c1.9-0.1,3.2-0.8,4.2-2.4c2.8-4.5,5.7-9.1,8.8-13.4c1.2-1.7,1.3-3.2,0.9-5.2c-1-4-1.3-8.1-0.7-12.2
		C147.3,291.1,151.6,283.5,158.9,276.9z M205.2,276.9c-0.2,0.2-0.4,0.5-0.6,0.7c0.9,0.7,1.8,1.2,2.6,2c7.2,7.5,11.7,16.6,9.9,26.7
		c-1.4,8.2,1.2,13.8,5.6,19.6c0.9,1.2,1.8,2.4,2.4,3.8c1.4,3.1,3.8,4,7.1,4.1c26,1.2,51.9,3.9,77.7,7.9c2.7,0.4,3.1-0.5,3.4-2.7
		c3.4-23,3.4-45.9,0-68.9c-0.4-2.5-1.2-2.8-3.6-2.5c-22.2,3.4-44.4,5.9-66.8,7.2C230.3,275.6,217.8,276.2,205.2,276.9z M181.7,328.5
		c13-0.1,23.8-10.9,23.7-23.9c0-13.1-11-24-24.2-23.8c-13,0.2-23.7,11.1-23.6,24.1C157.9,317.8,168.8,328.5,181.7,328.5z M23,304.8
		c-0.2,7.3,0.3,14.9,0.9,22.5c0.8,10.4,0.8,10.3,11,8.2c2.2-0.5,2.5-1.3,2.2-3.2c-2.1-16.6-2-33.3-0.7-50c0.2-2.8,2.2-6.4,0.2-8.2
		c-1.9-1.7-5.7-1.2-8.6-1.9c-2.6-0.7-3.2,0.4-3.4,2.7C23.6,284.9,22.8,294.7,23,304.8z M340.3,304.2c0.2-7.3-0.3-14.9-0.9-22.5
		c-0.8-10.4-0.9-10.3-11.2-8c-2.1,0.4-2.3,1.3-2.1,2.9c2.1,16.7,2,33.5,0.7,50.3c-0.2,2.7-2.3,6.2-0.1,8.1c1.9,1.6,5.5,1.1,8.2,1.8
		c2.6,0.6,3.4-0.3,3.7-2.9C339.6,324.1,340.5,314.3,340.3,304.2z M172.5,339.3c-6.9-2.2-12.6-5.4-17.1-10.4
		c-1.2-1.3-1.8-1.1-2.7,0.3c-2.7,4.3-5.6,8.5-8.3,12.8c-0.9,1.5-2.3,2.8-2.5,5.4c10.8-3.9,15.1,2.1,17.4,12
		C164,352.2,168.1,345.9,172.5,339.3z M190.8,339.3c4.3,6.5,8.5,12.9,12.7,19.3c2.6-3.8,2.8-8.4,6.2-11c3.5-2.6,7.9-0.2,12.1-1.2
		c-3.9-6-7.7-11.7-11.3-17.4c-0.8-1.2-1.3-1.5-2.4-0.3C203.4,333.9,197.6,337.1,190.8,339.3z"/>
	<path class="st1" d="M55,82.6c4.5-2.4,8.7-4.7,13-7c34.4-18.4,68.8-36.8,103.2-55.3c1.7-0.9,3-1.5,5.1-0.3
		c38.2,20.6,76.5,41,114.7,61.5c0.6,0.3,1.2,0.8,2.1,1.3c-20.5,10.9-40.7,21.8-61,32.6c-18.4,9.9-36.8,19.7-55.2,29.6
		c-1.7,0.9-3.1,1.4-5.1,0.3c-38.3-20.6-76.7-41.1-115.1-61.6C56.2,83.4,55.8,83.1,55,82.6z"/>
	<path class="st1" d="M89.7,115.6c1.7-0.2,2.8,0.9,3.9,1.5c24.9,13.3,49.8,26.5,74.6,40c4.2,2.3,7.6,2.2,11.8-0.1
		c24.7-13.4,49.5-26.6,74.3-39.8c1.2-0.6,2.4-1.2,4-2c0,10.5-0.7,20.6,0.2,30.6c0.8,8.9-2.3,13.5-10.2,17.8
		c-21.5,11.5-42.4,24-63.4,36.4c-7.4,4.4-14.3,4.3-21.7,0c-23.3-13.7-46.7-27.1-70.1-40.5c-2.4-1.4-3.5-2.8-3.4-5.8
		C89.9,141,89.7,128.3,89.7,115.6z"/>
	<path class="st1" d="M89.7,171.3c7.3,4.2,14,8.1,20.8,12c15.5,9,31.1,17.8,46.5,26.9c11.5,6.9,22.6,6.8,34.1,0
		c21.1-12.4,42.4-24.5,63.6-36.8c3.5-2,3.5-2,3.5,2.2c0,4.4,1.2,9.3-0.6,12.9c-1.7,3.6-7,4.7-10.8,6.9
		c-19.5,11.3-39.1,22.4-58.4,33.9c-9.8,5.8-18.9,5.9-28.8,0.1c-22.3-13.2-44.7-26-67.2-38.8c-2.1-1.2-3-2.5-2.9-4.9
		C89.9,181,89.7,176.5,89.7,171.3z"/>
	<path class="st1" d="M315.2,194.2c-6.2-6.7-12-7.7-17.7-0.1c-0.2-0.3-0.4-0.6-0.6-0.9c0-2.8,0-5.5,0-8.3c0-6.3,0.1-12.7-0.1-19
		c0-2.1,0.5-3.6,2.6-4.3c0.2-0.1,0.4-0.3,0.6-0.4c6.3-3.7,8.1-3.5,14,1.1c0.8,0.6,1.2,1.2,1.2,2.1
		C315.2,173.9,315.2,183.4,315.2,194.2z"/>
	<path class="st1" d="M158.9,276.9c-7.3,6.6-11.6,14.2-12.8,23.4c-0.5,4.2-0.3,8.2,0.7,12.2c0.5,2,0.3,3.5-0.9,5.2
		c-3.1,4.4-6,8.9-8.8,13.4c-1,1.7-2.3,2.4-4.2,2.4c-26.9,1.2-53.7,4-80.3,8.1c-2,0.3-2.4-0.5-2.6-2c-3.5-23.5-3.5-46.9,0-70.4
		c0.3-1.7,0.9-2.2,2.7-2c33.6,5.3,67.5,8.1,101.6,9.1C155.6,276.6,156.9,276.7,158.9,276.9z"/>
	<path class="st1" d="M205.2,276.9c12.6-0.7,25.1-1.3,37.7-2c22.4-1.3,44.7-3.8,66.8-7.2c2.4-0.4,3.2,0,3.6,2.5
		c3.4,23,3.4,45.9,0,68.9c-0.3,2.2-0.7,3.1-3.4,2.7c-25.7-4-51.6-6.7-77.7-7.9c-3.3-0.1-5.7-1-7.1-4.1c-0.6-1.3-1.5-2.6-2.4-3.8
		c-4.4-5.8-7.1-11.5-5.6-19.6c1.8-10.1-2.8-19.2-9.9-26.7c-0.7-0.8-1.7-1.3-2.6-2C204.8,277.3,205,277.1,205.2,276.9z"/>
	<path class="st1" d="M181.7,328.5c-13,0.1-23.9-10.7-24-23.7c-0.1-13,10.6-23.9,23.6-24.1c13.1-0.2,24.1,10.7,24.2,23.8
		C205.5,317.6,194.7,328.4,181.7,328.5z"/>
	<path class="st1" d="M23,304.8c-0.2-10.1,0.6-19.9,1.6-29.7c0.2-2.3,0.8-3.4,3.4-2.7c2.9,0.7,6.6,0.2,8.6,1.9c2,1.7,0,5.4-0.2,8.2
		c-1.3,16.7-1.4,33.3,0.7,50c0.2,1.9,0,2.7-2.2,3.2c-10.2,2.1-10.2,2.2-11-8.2C23.3,319.8,22.7,312.2,23,304.8z"/>
	<path class="st1" d="M340.3,304.2c0.2,10.2-0.6,20-1.6,29.8c-0.2,2.6-1,3.5-3.7,2.9c-2.8-0.7-6.3-0.2-8.2-1.8
		c-2.2-1.8-0.1-5.3,0.1-8.1c1.3-16.8,1.4-33.6-0.7-50.3c-0.2-1.7,0-2.5,2.1-2.9c10.3-2.2,10.3-2.3,11.2,8
		C340,289.3,340.5,296.9,340.3,304.2z"/>
	<path class="st1" d="M172.5,339.3c-4.4,6.6-8.5,12.9-13.2,20c-2.3-9.8-6.6-15.9-17.4-12c0.2-2.6,1.6-3.9,2.5-5.4
		c2.7-4.3,5.6-8.5,8.3-12.8c0.9-1.4,1.5-1.6,2.7-0.3C159.9,333.9,165.6,337.1,172.5,339.3z"/>
	<path class="st1" d="M190.8,339.3c6.8-2.2,12.6-5.4,17.2-10.6c1.1-1.2,1.7-1,2.4,0.3c3.7,5.7,7.4,11.4,11.3,17.4
		c-4.3,1-8.7-1.5-12.1,1.2c-3.4,2.6-3.6,7.2-6.2,11C199.2,352.1,195.1,345.8,190.8,339.3z"/>
</g>
</svg>
