<?xml version="1.0" encoding="utf-8"?>
<!-- Generator: Adobe Illustrator 26.0.1, SVG Export Plug-In . SVG Version: 6.00 Build 0)  -->
<svg version="1.1" id="Layer_1" xmlns="http://www.w3.org/2000/svg" xmlns:xlink="http://www.w3.org/1999/xlink" x="0px" y="0px"
	 width="361px" height="333px" viewBox="0 0 361 333" style="enable-background:new 0 0 361 333;" xml:space="preserve">
<style type="text/css">
	.st0{fill:#5F22D9;}
	.st1{fill:#FFFFFF;}
	.st2{fill:#9285F4;}
	.st3{display:none;fill:#FEFEFE;}
</style>
<rect x="-593.3" y="-225.7" class="st0" width="320.2" height="229.8"/>
<rect x="-584.1" y="82.2" class="st1" width="320.2" height="229.8"/>
<rect x="-574.9" y="397.8" class="st2" width="320.2" height="229.8"/>
<g>
	<path class="st3" d="M238.5,352.7c-87.1,0-174.2,0-261.3,0c0-123.1,0-246.3-0.1-369.4c0-2.7,0.6-3.3,3.3-3.3
		c123.4,0.1,246.8,0.1,370.1,0c2.7,0,3.3,0.6,3.3,3.3c-0.1,122-0.1,244.1,0,366.1c0,2.7-0.6,3.3-3.3,3.3
		c-34.7-0.1-69.4-0.1-104.2-0.1c4-1.5,8-2.8,11.1-6c4-4.1,8.2-7.9,12-12.1c8.3-9,8.3-20.6-0.4-29.2c-17.8-17.6-35.3-35.4-53.2-52.9
		c-28.5-27.7-56.2-56.3-84.8-83.9c-1.5-1.5-1.5-2.3,0-3.7c6.8-6.3,13.3-13,20-19.4c23.5-22.6,45.9-46.4,69.6-68.8
		c9.8-9.2,19-18.9,28.5-28.5c7.2-7.2,14.5-14.2,21.4-21.7s7-18.5,0.4-26.2c-4.3-4.9-8.9-9.6-13.7-14c-8.8-7.9-20-7.6-28.7,0.6
		C221-6.1,213.6,1.2,206.1,8.4c-19.8,19.3-39.1,39.2-58.9,58.5c-28.5,27.7-56.2,56.2-84.8,84c-9.9,9.6-9.8,21.6,0,31.3
		c6.5,6.5,13.1,12.8,19.7,19.2c23.5,22.6,46,46.3,69.6,68.9c23,22,44.6,45.3,67.8,67C225.5,343.1,230.6,349.6,238.5,352.7z"/>
</g>
<g>
	<path class="st3" d="M28.1,166.5c0-53.9,0-107.7-0.1-161.6c0-2,0.4-2.4,2.4-2.4c100,0.1,200.1,0.1,300.1,0c2,0,2.4,0.4,2.4,2.4
		c-0.1,107.7-0.1,215.4,0,323.1c0,2-0.4,2.4-2.4,2.4c-100-0.1-200.1-0.1-300.1,0c-2,0-2.4-0.4-2.4-2.4
		C28.1,274.2,28.1,220.4,28.1,166.5z M180.5,225.1c-34.4,0-68.7,0-103.1,0c-4.6,0-8.9,0.8-13.3,2.9c-12.3,6.1-18.3,16.1-19.1,29.4
		c-0.9,14.1,6.5,26.6,18.3,32.6c4.7,2.4,9.8,3,15,3c43.8,0,87.5,0,131.3,0c24.5,0,48.9,0,73.4,0c7.4,0,14.1-1.9,20.1-6.9
		c6.4-5.4,10.2-12,11.7-20c2.3-12.1-0.8-22.9-9.3-31.6c-6-6.1-13.5-9.4-22.5-9.4C248.8,225.2,214.7,225.1,180.5,225.1z M179.9,200.1
		c16.6,0,33.3,0,49.9,0c17.7,0,35.4,0.1,53.2,0c7.6,0,14.6-1.9,20.6-7.3c9.8-8.8,13.2-19.6,11.5-32.3c-2.2-15.6-15.7-28.2-31.7-28.2
		c-68.7,0-137.4,0-206.1,0c-4,0-7.8,0.7-11.6,2.4c-13.5,5.8-19.9,16.4-20.6,30.5c-0.6,13,4.9,23.4,15.7,30.6
		c5.1,3.4,11.1,4.4,17.3,4.4C112,200.1,145.9,200.1,179.9,200.1z M180.4,39.4c-34,0-67.9,0-101.9,0c-3.7,0-7.2,0.5-10.8,1.7
		c-12.8,4.4-19.9,13.5-22.2,26.4C43.1,81,47.6,92.4,58,101.1c5.4,4.5,12.1,6.2,19.1,6.2c68.7,0,137.5,0,206.2,0
		c2.7,0,5.3-0.2,7.9-0.9c13.5-3.5,21-12.9,23.5-26c2.7-13.8-1.5-25.7-12.7-34.5c-5.6-4.4-12.3-6.6-19.7-6.5
		C248.3,39.5,214.4,39.4,180.4,39.4z"/>
	<path class="st1" d="M180.5,225.1c34.2,0,68.3,0.1,102.5-0.1c9,0,16.5,3.3,22.5,9.4c8.5,8.7,11.6,19.6,9.3,31.6
		c-1.5,8-5.4,14.6-11.7,20c-6,5.1-12.6,6.9-20.1,6.9c-24.5,0.1-48.9,0-73.4,0c-43.8,0-87.5,0-131.3,0c-5.2,0-10.3-0.6-15-3
		c-11.8-6-19.2-18.5-18.3-32.6c0.9-13.3,6.8-23.3,19.1-29.4c4.3-2.1,8.6-2.9,13.3-2.9C111.8,225.1,146.2,225.1,180.5,225.1z
		 M180.2,273.8c34.2,0,68.3,0,102.5,0c5.3,0,9.4-1.9,12.4-6.4c5.1-7.6,1.7-18.8-6.6-21.8c-2.2-0.8-4.4-0.9-6.7-0.9
		c-67.7,0-135.4,0-203.1,0c-1,0-2,0-3,0.1c-5,0.5-9,2.7-11.2,7.3c-4.8,10.2,1.8,22,13.9,21.8C112.3,273.6,146.3,273.8,180.2,273.8z"
		/>
	<path class="st1" d="M179.9,200.1c-34,0-67.9,0-101.9,0c-6.2,0-12.2-0.9-17.3-4.4c-10.8-7.2-16.3-17.6-15.7-30.6
		c0.7-14.1,7.1-24.7,20.6-30.5c3.8-1.7,7.6-2.4,11.6-2.4c68.7,0,137.4,0,206.1,0c16,0,29.5,12.6,31.7,28.2
		c1.8,12.7-1.7,23.5-11.5,32.3c-6,5.4-12.9,7.2-20.6,7.3c-17.7,0.1-35.4,0-53.2,0C213.2,200.1,196.5,200.1,179.9,200.1z M180.2,181
		c34.2,0,68.3,0,102.5,0c5.7,0,10-2.1,12.9-7.2c4.4-7.6,0.9-18.2-7.2-21c-2.2-0.8-4.5-0.8-6.7-0.8c-67.7,0-135.3,0-203,0
		c-1,0-2,0-3,0c-4.9,0.4-8.9,2.5-11.1,6.9c-5.2,10.2,1.3,22.3,13.5,22.2C112.2,180.7,146.2,181,180.2,181z"/>
	<path class="st1" d="M180.4,39.4c34,0,67.9,0.1,101.9-0.1c7.4,0,14.1,2.1,19.7,6.5c11.2,8.7,15.4,20.6,12.7,34.5
		c-2.6,13.2-10.1,22.5-23.5,26c-2.6,0.7-5.2,0.9-7.9,0.9c-68.7,0-137.5,0-206.2,0c-7,0-13.7-1.6-19.1-6.2
		C47.6,92.4,43.1,81,45.5,67.6c2.3-12.9,9.3-22,22.2-26.4c3.6-1.2,7.1-1.7,10.8-1.7C112.5,39.4,146.4,39.4,180.4,39.4z M180.5,59.2
		c-34.3,0-68.5,0-102.8,0c-8.9,0-14.7,5.6-14.8,14.2c0,7.9,5.5,15.1,14.6,14.7c0.6,0,1.2,0,1.8,0c67.3,0,134.5,0,201.8,0
		c1.1,0,2.2,0,3.3,0c3.7-0.2,7.1-1.4,9.4-4.3c4.4-5.6,5.1-11.8,1.7-18c-2.8-5.1-7.7-6.6-13.3-6.6C248.3,59.2,214.4,59.2,180.5,59.2z
		"/>
	<path class="st0" d="M180.2,273.8c-34,0-67.9-0.3-101.9,0.1c-12.1,0.2-18.7-11.6-13.9-21.8c2.1-4.5,6.2-6.8,11.2-7.3
		c1-0.1,2-0.1,3-0.1c67.7,0,135.4,0,203.1,0c2.3,0,4.5,0.1,6.7,0.9c8.4,3,11.7,14.2,6.6,21.8c-3.1,4.6-7.1,6.4-12.4,6.4
		C248.5,273.8,214.4,273.8,180.2,273.8z"/>
	<path class="st0" d="M180.2,181c-34,0-68-0.3-101.9,0.1c-12.3,0.1-18.7-11.9-13.5-22.2c2.2-4.4,6.2-6.5,11.1-6.9c1-0.1,2,0,3,0
		c67.7,0,135.3,0,203,0c2.3,0,4.6,0.1,6.7,0.8c8.1,2.8,11.5,13.4,7.2,21c-2.9,5.1-7.2,7.2-12.9,7.2C248.5,181,214.3,181,180.2,181z"
		/>
	<path class="st0" d="M180.5,59.2c33.9,0,67.7,0,101.6,0c5.7,0,10.5,1.5,13.3,6.6c3.4,6.2,2.7,12.4-1.7,18c-2.3,2.9-5.7,4.1-9.4,4.3
		c-1.1,0.1-2.2,0-3.3,0c-67.3,0-134.5,0-201.8,0c-0.6,0-1.2,0-1.8,0c-9.1,0.4-14.6-6.8-14.6-14.7c0-8.7,5.8-14.2,14.8-14.2
		C112,59.2,146.2,59.2,180.5,59.2z"/>
</g>
</svg>
