<?xml version="1.0" encoding="utf-8"?>
<!-- Generator: Adobe Illustrator 26.0.1, SVG Export Plug-In . SVG Version: 6.00 Build 0)  -->
<svg version="1.1" id="Layer_1" xmlns="http://www.w3.org/2000/svg" xmlns:xlink="http://www.w3.org/1999/xlink" x="0px" y="0px"
	 width="184px" height="356px" viewBox="0 0 184 356" style="enable-background:new 0 0 184 356;" xml:space="preserve">
<style type="text/css">
	.st0{display:none;fill:#FEFEFE;}
	.st1{fill:#9285F4;stroke:#000000;stroke-miterlimit:10;}
	.st2{display:none;fill:#FFFFFF;}
	.st3{fill:#5F22D9;stroke:#000000;stroke-miterlimit:10;}
	.st4{fill:#FFFFFF;stroke:#000000;stroke-miterlimit:10;}
</style>
<g>
	<path class="st0" d="M91,366.9c-62.8,0-125.7,0-188.5,0.1c-2.7,0-3.5-0.4-3.5-3.4c0.1-125.8,0.1-251.6,0-377.4
		c0-2.8,0.7-3.2,3.3-3.2c125.8,0.1,251.6,0.1,377.4,0c2.5,0,3.3,0.3,3.3,3.2c-0.1,125.9-0.1,251.9,0,377.8c0,2.6-0.6,3-3.1,3
		C216.9,366.9,154,366.9,91,366.9z M171.1,126.3c-0.7-14.6,1-29.9-1.4-45c-6.7-43-50.6-73.6-93.3-64.9C37.5,24.3,11.2,56.2,11,95.8
		c-0.1,20.9,0,41.7,0,62.6c0,5.6,0.5,11.2,1.7,16.7c9.3,42.2,47,68.5,90.1,62.9c35.7-4.6,65.2-35.9,67.8-71.8
		C171.5,153.1,170.7,140,171.1,126.3z M90.9,334.9c4.4,0.1,8.1-1.4,11.2-4.4c16.2-16.1,32.4-32.3,48.5-48.5
		c4.3-4.3,5.4-9.8,3.6-15.6c-3.6-11.7-17.8-15.2-26.8-6.3c-11.4,11.2-22.7,22.5-33.9,33.9c-1.9,1.9-2.9,2.2-4.9,0.1
		c-11.3-11.5-22.7-22.9-34.2-34.2c-6.6-6.5-16.6-6.4-22.8,0c-6.1,6.3-6.2,16.1,0.3,22.6c15.8,16,31.8,31.8,47.7,47.7
		C82.7,333.2,86.4,334.9,90.9,334.9z"/>
	<path class="st1" d="M171.1,126.3c-0.4,13.7,0.4,26.8-0.5,39.9c-2.6,35.9-32.1,67.2-67.8,71.8c-43.1,5.6-80.8-20.8-90.1-62.9
		c-1.2-5.5-1.7-11.1-1.7-16.7c0-20.9-0.1-41.7,0-62.6c0.2-39.7,26.6-71.6,65.5-79.5c42.7-8.7,86.6,21.9,93.3,64.9
		C172.1,96.4,170.4,111.7,171.1,126.3z M139,127.2c0-10.6,0-21.2,0-31.9c0-3.6-0.4-7.2-1.2-10.8c-5.8-24.8-28-40.1-53.8-37.1
		c-23,2.7-41,23.7-41,47.9c0,21.1,0,42.2,0,63.4c0,3.5,0.3,7,1.1,10.4c5.6,24.8,27.8,40.2,53.6,37.3c23-2.6,41.1-23.5,41.2-47.8
		C139,148.2,139,137.7,139,127.2z"/>
	<path class="st1" d="M90.9,334.9c-4.5,0.1-8.3-1.6-11.4-4.8c-15.9-15.9-31.9-31.7-47.7-47.7c-6.4-6.5-6.4-16.3-0.3-22.6
		c6.2-6.4,16.2-6.5,22.8,0c11.5,11.3,22.9,22.7,34.2,34.2c2,2.1,3,1.8,4.9-0.1c11.2-11.4,22.5-22.7,33.9-33.9
		c9-8.8,23.2-5.4,26.8,6.3c1.8,5.8,0.7,11.3-3.6,15.6c-16.1,16.2-32.3,32.4-48.5,48.5C99.1,333.5,95.3,335,90.9,334.9z"/>
	<path class="st2" d="M139,127.2c0,10.5,0,21,0,31.5c-0.1,24.2-18.2,45.2-41.2,47.8c-25.8,2.9-48-12.5-53.6-37.3
		c-0.8-3.4-1.1-6.9-1.1-10.4c0-21.1,0-42.2,0-63.4c0.1-24.2,18-45.2,41-47.9c25.8-3,47.9,12.2,53.8,37.1c0.8,3.5,1.2,7.1,1.2,10.8
		C139,106,139,116.6,139,127.2z M75.1,106.9c0,4.4-0.2,8.7,0,13.1c0.4,8.5,7.6,15.2,16,15.1c8.4-0.1,15.4-6.6,15.7-15
		c0.3-8.6,0.2-17.2,0-25.8C106.6,85.6,99.5,79,91,79s-15.5,6.6-15.9,15.1C75,98.4,75.1,102.7,75.1,106.9z"/>
	<path class="st1" d="M75.1,106.9c0-4.2-0.1-8.5,0-12.7C75.5,85.6,82.5,79,91,79s15.6,6.6,15.8,15.2c0.2,8.6,0.2,17.2,0,25.8
		c-0.2,8.4-7.3,14.9-15.7,15s-15.6-6.6-16-15.1C75,115.6,75.1,111.3,75.1,106.9z"/>
</g>
<rect x="-446.3" y="-274.6" class="st3" width="320.2" height="229.8"/>
<rect x="-437.1" y="33.3" class="st4" width="320.2" height="229.8"/>
<rect x="-427.9" y="348.9" class="st1" width="320.2" height="229.8"/>
</svg>
