<?xml version="1.0" encoding="utf-8"?>
<!-- Generator: Adobe Illustrator 26.0.1, SVG Export Plug-In . SVG Version: 6.00 Build 0)  -->
<svg version="1.1" id="Layer_1" xmlns="http://www.w3.org/2000/svg" xmlns:xlink="http://www.w3.org/1999/xlink" x="0px" y="0px"
	 width="361px" height="333px" viewBox="0 0 361 333" style="enable-background:new 0 0 361 333;" xml:space="preserve">
<style type="text/css">
	.st0{fill:#5F22D9;}
	.st1{fill:#FFFFFF;}
	.st2{fill:#9285F4;}
	.st3{display:none;fill:#FEFEFE;}
	.st4{display:none;fill:#FCFCFC;}
	.st5{display:none;fill:#FBFBFB;}
	.st6{display:none;fill:#FAFAFA;}
</style>
<rect x="-593.3" y="-225.7" class="st0" width="320.2" height="229.8"/>
<rect x="-584.1" y="82.2" class="st1" width="320.2" height="229.8"/>
<rect x="-574.9" y="397.8" class="st2" width="320.2" height="229.8"/>
<g>
	<path class="st3" d="M238.5,352.7c-87.1,0-174.2,0-261.3,0c0-123.1,0-246.3-0.1-369.4c0-2.7,0.6-3.3,3.3-3.3
		c123.4,0.1,246.8,0.1,370.1,0c2.7,0,3.3,0.6,3.3,3.3c-0.1,122-0.1,244.1,0,366.1c0,2.7-0.6,3.3-3.3,3.3
		c-34.7-0.1-69.4-0.1-104.2-0.1c4-1.5,8-2.8,11.1-6c4-4.1,8.2-7.9,12-12.1c8.3-9,8.3-20.6-0.4-29.2c-17.8-17.6-35.3-35.4-53.2-52.9
		c-28.5-27.7-56.2-56.3-84.8-83.9c-1.5-1.5-1.5-2.3,0-3.7c6.8-6.3,13.3-13,20-19.4c23.5-22.6,45.9-46.4,69.6-68.8
		c9.8-9.2,19-18.9,28.5-28.5c7.2-7.2,14.5-14.2,21.4-21.7s7-18.5,0.4-26.2c-4.3-4.9-8.9-9.6-13.7-14c-8.8-7.9-20-7.6-28.7,0.6
		C221-6.1,213.6,1.2,206.1,8.4c-19.8,19.3-39.1,39.2-58.9,58.5c-28.5,27.7-56.2,56.2-84.8,84c-9.9,9.6-9.8,21.6,0,31.3
		c6.5,6.5,13.1,12.8,19.7,19.2c23.5,22.6,46,46.3,69.6,68.9c23,22,44.6,45.3,67.8,67C225.5,343.1,230.6,349.6,238.5,352.7z"/>
</g>
<g>
	<path class="st1" d="M91.6,332.9c-0.2,0-0.4,0-0.6,0c-2.8-1.9-5.6-3.7-8.4-5.6c-5.4-3.6-5.4-3.5-11,0c-2.8,1.7-5,4.4-8.4,5
		c0-8,0-16.1,0.1-24.1c0-2-0.6-2.5-2.5-2.4c-7.3,0.1-14.6-0.1-21.8,0.1c-3.1,0.1-4-0.5-4-3.9C35,205.2,35,108.3,35,11.5
		c0-1.1,0.2-2.3,0.2-3.4c97,0,194.1,0,291.1,0c0.1,1,0.2,2.1,0.2,3.1c0,97.1,0,194.1,0.1,291.2c0,3.1-1,3.5-3.7,3.5
		c-27.2-0.1-54.4-0.1-81.6-0.1c-48.9,0-97.9,0-146.8-0.1c-2.4,0-3.2,0.5-3.1,3.1C91.7,316.9,91.6,324.9,91.6,332.9z M217.7,147.6
		c-2.7-4.6-5-8.8-7.5-13c-0.6-1-1-1.7,0.2-2.9c4.5-4.4,5.8-9.7,3.4-15.6c-2.5-6.1-7.2-8.8-13.6-8.8c-5.3,0-10.5,0.1-15.8-0.1
		c-2.2-0.1-2.8,0.6-2.8,2.8c0.1,9.4,0,18.8,0.1,28.2c0,3-1.4,7.3,0.6,8.8c2,1.5,6,0.4,9.2,0.6c1.8,0.1,2.1-0.6,2-2.2
		c-0.1-2.4-0.1-4.9,0-7.3c0.1-1-0.9-2.6,0.9-2.8c1.6-0.2,3.2-0.4,4.2,1.7c1.5,3,3.4,5.8,4.9,8.8c0.7,1.3,1.5,1.8,2.9,1.8
		C210,147.6,213.6,147.6,217.7,147.6z M150.1,156.9c-10.9-0.4-21.8,9.9-21.2,21.2c0.5,10.7,11.4,20.3,22.5,19.7
		c11.5-0.7,20.6-9.7,20.2-20.8C171.3,165.2,161.9,156.5,150.1,156.9z M251.8,197.7c11.7,0,21.1-9,21.2-20.2
		c0.1-11.5-9.3-20.4-21-20.7c-11.5-0.2-21.9,10.3-21.8,20.4C230.2,187.4,240.5,198.3,251.8,197.7z M154.9,107.1
		c-11.5-0.2-22,9.5-22.1,20.2c-0.1,10.7,9.9,20.4,21.3,20.7c11.8,0.3,21.4-8.8,21.5-20.2C175.7,116.4,166.5,107.3,154.9,107.1z
		 M97.7,127.6c0,6,0,12,0,18.1c0,1.1-0.1,1.9,1.5,2c10.1,0.9,10.1,1,10.1-9c0-0.3,0-0.6,0-0.9c-0.3-1.9,0.3-2.7,2.3-2.5
		c2.1,0.1,4.2,0,6.3-0.2c6.9-0.7,11.8-6.4,11.7-13.7c0-7-5.2-13.2-11.9-13.7c-5.9-0.4-11.8-0.1-17.7-0.3c-2-0.1-2.5,0.6-2.5,2.5
		C97.8,115.8,97.7,121.7,97.7,127.6z M97.7,177.1c0,5.3,0,10.6,0,15.8c0,4.4,0,4.4,4.3,4.3c2.4,0,5.5,1.1,6.9-0.5
		c1.2-1.3,0.3-4.4,0.5-6.7c0.2-2.5-1.1-5.8,0.5-7.2c1.4-1.2,4.6-0.4,7-0.4c7,0,7,0,6.5-7.2c-0.1-1.4-0.5-1.8-1.8-1.8
		c-3.4,0.1-6.7,0.1-10.1,0c-0.7,0-1.9,0.5-2.1-0.8c-0.2-1.8-0.5-3.7,0.1-5.3c0.5-1.4,2.4-0.5,3.7-0.6c2-0.1,4,0,6,0
		c7.4,0,7.4,0,7.3-7.3c0-1.7-0.4-2.3-2.2-2.3c-8.1,0.1-16.2,0.1-24.3,0c-1.8,0-2.3,0.5-2.2,2.3C97.8,165.3,97.7,171.2,97.7,177.1z
		 M230.8,132.3c0,4.4,0.1,8.9,0,13.3c0,1.7,0.4,2.2,2.1,2.1c2.3-0.1,4.7-0.2,7,0c2.3,0.2,2.7-0.7,2.7-2.8c-0.1-7.5,0-15,0-22.5
		c0-5.3,0-5.3,5.3-5.3c7.1,0,7,0,7-7.1c0-2.1-0.6-2.7-2.7-2.6c-8.8,0.1-17.5,0-26.3,0c-7.7,0-7.7,0-7.3,7.8c0.1,1.5,0.5,2,2,1.9
		c2.5-0.1,5.1,0.1,7.6-0.1c2-0.1,2.8,0.4,2.7,2.5C230.7,123.8,230.8,128,230.8,132.3z M177.7,177c0,6,0.1,12,0,18.1
		c0,1.8,0.6,2.3,2.3,2.3c7.2-0.1,14.3,0,21.5,0c6.9,0,6.8,0,6.9-6.9c0-2.1-0.5-2.9-2.8-2.9c-4.8,0.2-9.7,0-14.5,0.1
		c-1.8,0-2.3-0.5-2.2-2.3c0.1-6.5,0.1-13.1,0-19.6c0-2.8,1.3-6.7-0.6-8.2c-1.7-1.4-5.4-0.3-8.2-0.5c-2.1-0.2-2.4,0.7-2.4,2.5
		C177.8,165.4,177.7,171.2,177.7,177z M224.7,177.5c0-3.7,0.1-7.4,0-11.1c-0.1-3,1.3-7.2-0.6-8.7c-1.8-1.5-5.8-0.4-8.8-0.6
		c-1.8-0.1-2.2,0.6-2.2,2.3c0.1,11.9,0.1,23.9,0,35.8c0,1.5,0.2,2.3,2,2.2c2.5-0.2,5.1-0.1,7.6,0c1.7,0.1,2.1-0.5,2.1-2.2
		C224.6,189.3,224.7,183.4,224.7,177.5z"/>
	<path class="st4" d="M91.6,332.9c0-8,0.1-16.1-0.1-24.1c-0.1-2.6,0.7-3.1,3.1-3.1c48.9,0.1,97.9,0.1,146.8,0.1
		c27.2,0,54.4,0,81.6,0.1c2.7,0,3.7-0.4,3.7-3.5c-0.1-97.1-0.1-194.1-0.1-291.2c0-1-0.2-2.1-0.2-3.1c7.5,0,15,0,22.5,0
		c1.3,0,1.9,0.2,1.6,1.6c-0.1,0.4,0,0.8,0,1.3c0,106.4,0,212.9,0.1,319.3c0,2.2-0.4,2.8-2.7,2.8C262.4,332.9,177,332.9,91.6,332.9z"
		/>
	<path class="st5" d="M35.2,8c-0.1,1.1-0.2,2.3-0.2,3.4c0,96.8,0,193.7-0.1,290.5c0,3.3,0.9,3.9,4,3.9c7.3-0.2,14.6,0,21.8-0.1
		c1.9,0,2.5,0.4,2.5,2.4c-0.1,8-0.1,16.1-0.1,24.1c0,0.2,0,0.4,0,0.6c-16.7,0-33.3-0.1-50,0.1c-2.2,0-2.6-0.4-2.6-2.6
		c0.1-101.4,0.1-202.8,0.1-304.3c0-5.5,0.1-11,0-16.5c0-1.4,0.3-1.6,1.6-1.6C19.8,8.1,27.5,8,35.2,8z"/>
	<path class="st6" d="M63.1,332.9c0-0.2,0-0.4,0-0.6c3.4-0.6,5.7-3.2,8.4-5c5.6-3.5,5.5-3.6,11,0c2.8,1.9,5.6,3.7,8.4,5.6
		C81.7,332.9,72.4,332.9,63.1,332.9z"/>
	<path class="st0" d="M217.7,147.6c-4.1,0-7.6,0-11.2,0c-1.4,0-2.2-0.5-2.9-1.8c-1.6-3-3.5-5.8-4.9-8.8c-1-2.1-2.6-1.9-4.2-1.7
		c-1.8,0.3-0.9,1.9-0.9,2.8c-0.1,2.4-0.1,4.9,0,7.3c0.1,1.6-0.3,2.3-2,2.2c-3.1-0.2-7.2,1-9.2-0.6c-1.9-1.5-0.5-5.7-0.6-8.8
		c-0.1-9.4,0-18.8-0.1-28.2c0-2.2,0.6-2.9,2.8-2.8c5.3,0.2,10.5,0.1,15.8,0.1c6.4,0,11.2,2.7,13.6,8.8c2.4,5.9,1.1,11.2-3.4,15.6
		c-1.2,1.2-0.8,1.9-0.2,2.9C212.6,138.8,215,143,217.7,147.6z M193.4,121.4c0,4.2,0,4.1,3.4,4.2c5.8,0.3,6.1-1.1,6.2-4.3
		c0.1-3.3-1.2-4.2-5.7-4.2C193.4,117.1,193.4,117.1,193.4,121.4z"/>
	<path class="st0" d="M150.1,156.9c11.8-0.4,21.2,8.3,21.5,20c0.3,11.1-8.7,20.1-20.2,20.8c-11.1,0.6-22-8.9-22.5-19.7
		C128.3,166.8,139.2,156.6,150.1,156.9z M140.8,177.3c0,6.7,3.7,10.6,9.9,10.6c5.5,0,9.2-4.4,9.1-10.8c0-6.1-3.8-10.4-9.1-10.4
		C144.5,166.6,140.8,170.6,140.8,177.3z"/>
	<path class="st0" d="M251.8,197.7c-11.3,0.6-21.6-10.3-21.7-20.5c0-10.1,10.3-20.6,21.8-20.4c11.7,0.3,21.1,9.2,21,20.7
		C272.9,188.8,263.5,197.7,251.8,197.7z M242.1,177.3c0,6.6,3.7,10.7,9.9,10.6c5.5,0,9.2-4.4,9.1-10.7c0-6.1-3.8-10.4-9.1-10.5
		C245.9,166.6,242.2,170.6,242.1,177.3z"/>
	<path class="st0" d="M154.9,107.1c11.6,0.2,20.8,9.3,20.7,20.7c-0.1,11.4-9.7,20.5-21.5,20.2c-11.4-0.3-21.4-9.9-21.3-20.7
		C132.9,116.6,143.4,107,154.9,107.1z M144.7,127.4c-0.5,6.6,5.2,10.8,9.8,10.7c5.7-0.1,9.8-4.6,9.8-10.8c0-6-4.2-10.3-9.8-10.4
		C149.8,116.9,144.3,121.2,144.7,127.4z"/>
	<path class="st0" d="M97.7,127.6c0-5.9,0.1-11.8,0-17.7c0-1.9,0.5-2.6,2.5-2.5c5.9,0.2,11.8,0,17.7,0.3c6.7,0.4,11.9,6.7,11.9,13.7
		c0,7.3-4.8,13-11.7,13.7c-2.1,0.2-4.2,0.4-6.3,0.2c-2.1-0.1-2.6,0.7-2.3,2.5c0,0.3,0,0.6,0,0.9c0,10,0,9.9-10.1,9
		c-1.6-0.2-1.5-0.9-1.5-2C97.7,139.6,97.7,133.6,97.7,127.6z M109.3,120.4c0,5.2,0,5.2,3.3,5.2c4.3,0,5.3-0.9,5.3-4.3
		c0-3.3-1.3-4-5.4-4.4C108.6,116.6,109.3,119,109.3,120.4z"/>
	<path class="st0" d="M97.7,177.1c0-5.9,0.1-11.8,0-17.7c0-1.8,0.4-2.3,2.2-2.3c8.1,0.1,16.2,0.1,24.3,0c1.8,0,2.2,0.6,2.2,2.3
		c0.1,7.3,0.1,7.3-7.3,7.3c-2,0-4-0.1-6,0c-1.3,0.1-3.2-0.8-3.7,0.6c-0.6,1.6-0.3,3.6-0.1,5.3c0.1,1.3,1.3,0.8,2.1,0.8
		c3.4,0.1,6.7,0.1,10.1,0c1.3,0,1.7,0.4,1.8,1.8c0.5,7.2,0.5,7.2-6.5,7.2c-2.4,0-5.6-0.8-7,0.4c-1.7,1.4-0.4,4.8-0.5,7.2
		c-0.1,2.3,0.7,5.4-0.5,6.7c-1.4,1.6-4.5,0.5-6.9,0.5c-4.3,0.1-4.3,0-4.3-4.3C97.7,187.7,97.7,182.4,97.7,177.1z"/>
	<path class="st0" d="M230.8,132.3c0-4.2-0.1-8.5,0.1-12.7c0.1-2.2-0.7-2.7-2.7-2.5c-2.5,0.2-5.1,0-7.6,0.1c-1.5,0.1-1.9-0.4-2-1.9
		c-0.4-7.8-0.5-7.8,7.3-7.8c8.8,0,17.5,0.1,26.3,0c2,0,2.7,0.5,2.7,2.6c0,7.1,0.1,7.1-7,7.1c-5.3,0-5.3,0-5.3,5.3
		c0,7.5-0.1,15,0,22.5c0,2.1-0.3,3.1-2.7,2.8c-2.3-0.2-4.6-0.2-7,0c-1.7,0.1-2.1-0.4-2.1-2.1C230.9,141.1,230.8,136.7,230.8,132.3z"
		/>
	<path class="st0" d="M177.7,177c0-5.8,0.1-11.6,0-17.4c0-1.8,0.3-2.7,2.4-2.5c2.8,0.2,6.5-0.9,8.2,0.5c1.8,1.5,0.5,5.3,0.6,8.2
		c0.1,6.5,0.1,13.1,0,19.6c0,1.8,0.4,2.4,2.2,2.3c4.8-0.1,9.7,0.1,14.5-0.1c2.3-0.1,2.8,0.7,2.8,2.9c-0.1,6.9,0,6.9-6.9,6.9
		c-7.2,0-14.3-0.1-21.5,0c-1.8,0-2.3-0.5-2.3-2.3C177.8,189.1,177.7,183.1,177.7,177z"/>
	<path class="st0" d="M224.7,177.5c0,5.9-0.1,11.8,0,17.7c0,1.6-0.4,2.3-2.1,2.2c-2.5-0.1-5.1-0.2-7.6,0c-1.8,0.1-2-0.7-2-2.2
		c0-11.9,0.1-23.9,0-35.8c0-1.7,0.4-2.4,2.2-2.3c3,0.2,7-1,8.8,0.6c1.9,1.6,0.5,5.7,0.6,8.7C224.7,170.1,224.7,173.8,224.7,177.5z"
		/>
	<path class="st1" d="M193.4,121.4c0-4.3,0-4.3,3.9-4.3c4.5,0,5.8,0.9,5.7,4.2c-0.1,3.2-0.4,4.6-6.2,4.3
		C193.4,125.4,193.4,125.6,193.4,121.4z"/>
	<path class="st1" d="M140.8,177.3c0-6.7,3.7-10.7,9.8-10.6c5.3,0.1,9.1,4.4,9.1,10.4c0,6.3-3.7,10.7-9.1,10.8
		C144.5,187.9,140.8,184,140.8,177.3z"/>
	<path class="st1" d="M242.1,177.3c0-6.6,3.8-10.7,9.9-10.6c5.3,0.1,9.1,4.4,9.1,10.5c0,6.4-3.7,10.7-9.1,10.7
		C245.9,187.9,242.1,183.9,242.1,177.3z"/>
	<path class="st1" d="M144.7,127.4c-0.4-6.3,5.1-10.5,9.8-10.4c5.7,0.1,9.8,4.4,9.8,10.4c0,6.2-4.1,10.7-9.8,10.8
		C149.9,138.3,144.2,134,144.7,127.4z"/>
	<path class="st1" d="M109.3,120.4c-0.1-1.4-0.7-3.9,3.3-3.5c4.1,0.4,5.4,1.1,5.4,4.4c0,3.4-1.1,4.3-5.3,4.3
		C109.3,125.6,109.3,125.6,109.3,120.4z"/>
</g>
</svg>
