<?xml version="1.0" encoding="utf-8"?>
<!-- Generator: Adobe Illustrator 26.0.1, SVG Export Plug-In . SVG Version: 6.00 Build 0)  -->
<svg version="1.1" id="Layer_1" xmlns="http://www.w3.org/2000/svg" xmlns:xlink="http://www.w3.org/1999/xlink" x="0px" y="0px"
	 width="296px" height="306px" viewBox="0 0 296 306" style="enable-background:new 0 0 296 306;" xml:space="preserve">
<style type="text/css">
	.st0{display:none;fill:#FEFEFE;}
	.st1{fill:#FFFFFF;}
	.st2{fill:#5F22D9;}
	.st3{fill:#5F22D9;stroke:#000000;stroke-miterlimit:10;}
	.st4{fill:#FFFFFF;stroke:#000000;stroke-miterlimit:10;}
	.st5{fill:#9285F4;stroke:#000000;stroke-miterlimit:10;}
</style>
<g>
	<path class="st0" d="M145,337.9c-63,0-125.9,0-188.9,0.1c-2.5,0-3.1-0.4-3.1-3c0.1-125.9,0.1-251.9,0-377.8c0-2.8,0.7-3.2,3.3-3.2
		c125.8,0.1,251.6,0.1,377.4,0c2.6,0,3.3,0.4,3.3,3.2c-0.1,125.8-0.1,251.6,0,377.4c0,2.9-0.8,3.4-3.5,3.4
		C270.7,337.9,207.8,337.9,145,337.9z M288.9,45c0-3.8,0-7.5,0-11.1c-0.2-15-8.2-23.5-23.2-24c-16.5-0.5-32.9,0.8-49.1,4.2
		c-24.6,5.1-47.3,14.2-65.6,32c-11.6,11.2-22.9,22.6-33.7,34.7c-1.4,1.5-2.6,2.1-4.8,1.8c-10.3-1.3-20.6-2.3-30.9-3.4
		c-5.8-0.6-10.4,1.3-14.5,5.4c-10.5,10.7-21.2,21.2-31.8,31.8c-9.9,9.9-7.2,22.8,5.9,28.1c11.3,4.6,22.6,9.2,34,13.5
		c3,1.1,3.5,2.6,3,5.5c-2.7,15.2-5.1,30.5-7.7,45.8c-2,11.8,7,21,18.9,19.1c15.5-2.5,31-5.1,46.5-7.8c2.6-0.5,3.7,0.1,4.6,2.6
		c4.6,12.1,9.4,24.1,14.4,36.1c4.6,11,17.7,13.8,26.2,5.5c11.5-11.2,22.7-22.5,33.9-33.9c3.8-3.9,5.1-8.6,4.5-14.1
		c-1.2-10.2-2.2-20.4-3.4-30.5c-0.2-1.9,0.2-3.2,1.7-4.5c11.4-10.1,22.1-21,32.9-31.7c7.4-7.3,13.6-15.6,18.7-24.7
		C283.1,100.1,287.7,72.8,288.9,45z M91.6,293.5c2.8-0.1,4.9-1.5,6.8-3.4c7.7-7.7,15.4-15.4,23-23.1c3.4-3.4,6.9-6.6,10-10.1
		c4.2-4.8,1.9-11.8-4.2-13.2c-3.3-0.7-5.8,0.7-8,2.9c-10.8,10.8-21.6,21.6-32.3,32.4c-0.8,0.8-1.6,1.7-2.1,2.6
		C81.9,286.8,85.7,293.4,91.6,293.5z M12.4,214.3c2.6,0.1,4.6-1,6.3-2.8c10.9-10.9,21.9-21.9,32.8-32.8c1.3-1.3,2.4-2.8,2.7-4.8
		c0.6-3.6-0.9-6.8-4.1-8.5c-3.2-1.7-6.9-1.1-9.9,1.8c-11,10.9-21.9,21.9-32.8,32.8c-0.7,0.7-1.4,1.5-1.9,2.3
		C2.7,207.6,6.4,214.2,12.4,214.3z M28.5,276.4c3.6,0.1,5.7-1.3,7.6-3.2c10.7-10.7,21.4-21.4,32-32.1c4.1-4.1,4.4-8.7,1-12.2
		c-3.4-3.4-8.2-3.1-12.2,0.9c-5.9,5.9-11.8,11.8-17.8,17.7c-5,5-10.1,10.1-15.1,15.1c-2.5,2.6-3.2,5.6-1.8,8.9
		C23.5,274.6,26,276.2,28.5,276.4z"/>
	<path class="st1" d="M288.9,45c-1.2,27.9-5.8,55.1-19.5,80.1c-5,9.1-11.2,17.4-18.7,24.7c-10.8,10.7-21.5,21.6-32.9,31.7
		c-1.5,1.3-1.9,2.6-1.7,4.5c1.2,10.2,2.2,20.4,3.4,30.5c0.7,5.5-0.6,10.2-4.5,14.1c-11.2,11.4-22.5,22.7-33.9,33.9
		c-8.5,8.3-21.6,5.6-26.2-5.5c-5-11.9-9.7-24-14.4-36.1c-1-2.5-2.1-3-4.6-2.6c-15.5,2.7-31,5.4-46.5,7.8
		c-11.9,1.9-20.9-7.3-18.9-19.1c2.6-15.3,5-30.5,7.7-45.8c0.5-2.9,0-4.3-3-5.5c-11.4-4.3-22.7-8.9-34-13.5
		c-13.1-5.3-15.8-18.1-5.9-28.1c10.6-10.6,21.2-21.2,31.8-31.8c4.1-4.1,8.7-6.1,14.5-5.4c10.3,1.1,20.6,2.1,30.9,3.4
		c2.2,0.3,3.4-0.3,4.8-1.8c10.7-12,22.1-23.5,33.7-34.7c18.3-17.8,41-27,65.6-32c16.2-3.3,32.6-4.7,49.1-4.2c15,0.5,23,8.9,23.2,24
		C288.9,37.5,288.9,41.1,288.9,45z M45,128.7c13.9,5.6,26.6,10.6,39.3,15.8c7.9,3.2,11.6,10.2,10.1,18.7
		c-2.6,15.4-5.2,30.8-7.8,46.1c-0.4,2.1-0.5,3.3,2.6,2.8c15.7-2.8,31.5-5.3,47.3-7.8c7.8-1.2,14.4,2.4,17.5,9.7
		c1.3,3.1,2.5,6.2,3.8,9.4c4,9.9,8,19.8,12.1,30.1c10.5-10.6,20.7-20.9,31-31c2.2-2.2,2.8-4.3,2.5-7.2c-1.5-12-2.8-24.1-4.2-36.1
		c-0.2-1.7,0.1-2.7,1.5-3.8c14-11.5,26.5-24.7,39.4-37.4c7.2-7.1,12.9-15.2,17.3-24.3c12.6-25.8,16-53.3,15.4-81.6
		c-0.1-4.2-2.1-5.9-6.5-6c-14.4-0.4-28.7,0.4-42.9,3.1c-19.8,3.7-38.9,9.7-54.6,22.8c-16.3,13.6-30.7,29.3-44.6,45.4
		c-1.4,1.7-2.7,2.5-5,2.2c-12.1-1.5-24.3-2.7-36.5-4.2c-2.3-0.3-3.9,0.1-5.6,1.8c-7.4,7.6-14.9,15.1-22.5,22.6
		C51.7,122.6,48.6,125.4,45,128.7z"/>
	<path class="st1" d="M91.6,293.5c-6-0.1-9.8-6.7-6.8-11.9c0.5-1,1.3-1.8,2.1-2.6c10.8-10.8,21.5-21.6,32.3-32.4
		c2.2-2.2,4.8-3.7,8-2.9c6.1,1.4,8.4,8.4,4.2,13.2c-3.1,3.6-6.6,6.8-10,10.1c-7.7,7.7-15.4,15.4-23,23.1
		C96.6,292.1,94.4,293.4,91.6,293.5z"/>
	<path class="st1" d="M12.4,214.3c-6-0.1-9.8-6.7-6.8-11.9c0.5-0.9,1.2-1.6,1.9-2.3c10.9-11,21.9-21.9,32.8-32.8
		c3-3,6.7-3.6,9.9-1.8c3.1,1.7,4.6,4.8,4.1,8.5c-0.3,2-1.4,3.4-2.7,4.8c-10.9,11-21.9,21.9-32.8,32.8C17,213.2,15,214.4,12.4,214.3z
		"/>
	<path class="st1" d="M28.5,276.4c-2.6-0.2-5-1.8-6.3-4.8c-1.4-3.3-0.7-6.4,1.8-8.9c5-5.1,10.1-10.1,15.1-15.1
		c5.9-5.9,11.8-11.9,17.8-17.7c4-4,8.8-4.3,12.2-0.9c3.4,3.5,3.1,8.1-1,12.2c-10.7,10.7-21.4,21.4-32,32.1
		C34.2,275.2,32.1,276.6,28.5,276.4z"/>
	<path class="st2" d="M45,128.7c3.6-3.3,6.7-6.1,9.7-9.1c7.6-7.5,15.1-14.9,22.5-22.6c1.7-1.8,3.3-2.1,5.6-1.8
		c12.1,1.5,24.3,2.7,36.5,4.2c2.3,0.3,3.6-0.6,5-2.2c13.9-16.1,28.3-31.8,44.6-45.4c15.7-13.1,34.8-19.1,54.6-22.8
		c14.2-2.6,28.5-3.5,42.9-3.1c4.3,0.1,6.4,1.8,6.5,6c0.6,28.3-2.8,55.8-15.4,81.6c-4.4,9-10.2,17.2-17.3,24.3
		c-12.9,12.7-25.4,25.9-39.4,37.4c-1.3,1.1-1.7,2.2-1.5,3.8c1.4,12,2.7,24.1,4.2,36.1c0.4,2.9-0.2,5.1-2.5,7.2
		c-10.4,10.1-20.5,20.5-31,31c-4.1-10.3-8.1-20.2-12.1-30.1c-1.3-3.1-2.4-6.3-3.8-9.4c-3.2-7.2-9.8-10.9-17.5-9.7
		c-15.8,2.5-31.5,5.1-47.3,7.8c-3.1,0.5-3-0.7-2.6-2.8c2.6-15.4,5.1-30.8,7.8-46.1c1.4-8.4-2.2-15.5-10.1-18.7
		C71.6,139.3,58.9,134.3,45,128.7z M244,86.7c0-17.6-14.2-32-31.8-32.1c-17.7-0.1-32.1,14.4-32.1,32.2c0,17.6,14.4,31.8,32,31.8
		C229.9,118.5,244,104.3,244,86.7z M172.1,192.1c0-0.3,0-0.8-0.1-1.2c-0.1-0.6-0.4-1.2-0.6-1.8c-11.8-29.3-32.4-49.8-61.6-61.7
		c-4.4-1.8-8.6-0.2-10.4,3.7c-1.8,3.9-0.3,8.3,3.7,10.6c1.4,0.8,2.9,1.4,4.4,2.1c20.7,9.3,36.2,24,46.1,44.5
		c1.2,2.6,2.3,5.3,3.7,7.7c1.9,3.4,5.8,4.9,9.3,3.9C169.9,198.9,172.2,195.8,172.1,192.1z"/>
	<path class="st1" d="M244,86.7c0,17.7-14.2,31.9-31.9,31.9c-17.6,0.1-32-14.2-32-31.8c0-17.8,14.4-32.3,32.1-32.2
		C229.8,54.7,244,69,244,86.7z M212,102.6c8.8,0,16-7,16.1-15.8c0.1-8.8-7.3-16.2-16.1-16.2c-8.7,0.1-15.9,7.3-15.9,16
		C196.1,95.4,203.3,102.5,212,102.6z"/>
	<path class="st1" d="M172.1,192.1c0,3.7-2.3,6.8-5.6,7.8c-3.5,1-7.4-0.5-9.3-3.9c-1.4-2.5-2.4-5.2-3.7-7.7
		c-9.9-20.5-25.4-35.2-46.1-44.5c-1.5-0.7-3-1.3-4.4-2.1c-4-2.3-5.5-6.7-3.7-10.6c1.8-3.9,6-5.5,10.4-3.7
		c29.2,11.9,49.8,32.5,61.6,61.7c0.2,0.6,0.4,1.2,0.6,1.8C172.1,191.3,172.1,191.8,172.1,192.1z"/>
	<path class="st2" d="M212,102.6c-8.8,0-15.9-7.2-16-15.9c0-8.7,7.2-15.9,15.9-16c8.9-0.1,16.2,7.3,16.1,16.2
		C228,95.6,220.9,102.6,212,102.6z"/>
</g>
<rect x="-426.3" y="-295.7" class="st3" width="320.2" height="229.8"/>
<rect x="-417.1" y="12.2" class="st4" width="320.2" height="229.8"/>
<rect x="-407.9" y="327.8" class="st5" width="320.2" height="229.8"/>
</svg>
