<?xml version="1.0" encoding="utf-8"?>
<!-- Generator: Adobe Illustrator 26.0.1, SVG Export Plug-In . SVG Version: 6.00 Build 0)  -->
<svg version="1.1" id="Layer_1" xmlns="http://www.w3.org/2000/svg" xmlns:xlink="http://www.w3.org/1999/xlink" x="0px" y="0px"
	 width="383.9px" height="218.5px" viewBox="0 0 383.9 218.5" style="enable-background:new 0 0 383.9 218.5;" xml:space="preserve"
	>
<style type="text/css">
	.st0{display:none;fill:#8CABFF;}
	.st1{fill:#9285F4;stroke:#000000;stroke-miterlimit:10;}
	.st2{fill:#5F22D9;stroke:#000000;stroke-miterlimit:10;}
	.st3{fill:#FFFFFF;stroke:#000000;stroke-miterlimit:10;}
</style>
<g>
	<path class="st0" d="M383.9,116c0,60.7,0,121.5,0.1,182.2c0,2.6-0.5,3.1-3.1,3.1c-126-0.1-251.9-0.1-377.9,0
		c-2.6,0-3.1-0.5-3.1-3.1C0,236.2,0,174.2,0,112.3c3,6.4,8,8.4,15,8.4c33.1-0.3,66.2-0.1,99.3-0.1c7,0,14,0.1,21,0
		c5.3-0.1,9.5-3.3,11-8c2.3-7.6-3.3-14.5-11.9-14.5C95.2,98,56,98.1,16.8,97.9c-7.1,0-13,1-16.8,7.6C0,43.8,0.1-17.9,0-79.7
		c0-2.6,0.5-3.1,3.1-3.1c126,0.1,251.9,0.1,377.9,0c2.6,0,3.1,0.5,3.1,3.1C384-18.5,384,42.8,384,104c-0.6-0.2-0.6-0.6-0.7-1.1
		c-2-10.2-7.5-17.8-16.4-23c-43.1-25-86.2-50-129.4-74.9c-13.1-7.6-27.6-6.4-38.8,2.6c-11.1,8.9-15.2,23.1-10.7,37.5
		c5.2,16.6,10.7,33.2,15.8,49.8c0.8,2.5,1.9,3.2,4.4,3.1c16.9-0.1,33.7,0,50.6-0.1c4.3,0,7.8,1.4,10.3,5c2.4,3.6,2.7,7.5,0.7,11.4
		c-2.2,4.2-5.9,6.2-10.7,6.2c-17.1,0-34.2,0-51.3,0c-1.7,0-3-0.1-3.7,2.1c-5.4,17.5-11.2,34.8-16.5,52.4
		c-4.1,13.8,0.5,27.5,11.4,36.2c10.8,8.6,25.5,9.8,37.9,2.7c43.5-25.1,86.9-50.3,130.4-75.5c7.7-4.4,12.7-11.1,15.3-19.6
		C382.8,117.8,382.6,116.5,383.9,116z M73.4,64.2L73.4,64.2c9,0,18,0.1,26.9,0c7.4,0,12.6-4.8,12.6-11.4
		c-0.1-6.5-5.1-11.1-12.4-11.1c-18.1,0-36.2,0-54.3,0c-1.7,0-3.5,0-5.1,0.7c-5,2.1-8,7.3-7.1,12.3c1,5.5,5.5,9.4,11.3,9.5
		C54.7,64.3,64,64.2,73.4,64.2z M73.2,176.9c9,0,18,0,26.9,0c1.9,0,3.7,0,5.5-0.7c5.1-2.1,8-7.2,7-12.7c-1-5.4-5.5-9.2-11.5-9.2
		c-18.5-0.1-36.9-0.1-55.4,0c-6.8,0-11.9,5.1-11.8,11.4c0.1,6.4,5,11.1,12,11.1C55,177,64.1,176.9,73.2,176.9z"/>
	<path class="st1" d="M383.9,116c-1.3,0.5-1.1,1.8-1.4,2.8c-2.6,8.5-7.6,15.1-15.3,19.6c-43.4,25.2-86.9,50.4-130.4,75.5
		c-12.4,7.2-27.1,5.9-37.9-2.7c-11-8.7-15.6-22.4-11.4-36.2c5.3-17.5,11-34.9,16.5-52.4c0.7-2.2,2-2.1,3.7-2.1c17.1,0,34.2,0,51.3,0
		c4.8,0,8.5-2,10.7-6.2c2-3.8,1.7-7.8-0.7-11.4c-2.4-3.6-5.9-5-10.3-5c-16.9,0.1-33.7,0-50.6,0.1c-2.5,0-3.6-0.6-4.4-3.1
		c-5.1-16.7-10.6-33.2-15.8-49.8c-4.5-14.3-0.4-28.5,10.7-37.5c11.2-9,25.7-10.2,38.8-2.6c43.2,24.9,86.3,49.9,129.4,74.9
		c8.9,5.2,14.4,12.8,16.4,23c0.1,0.5,0.1,1,0.7,1.1C383.9,108,383.9,112,383.9,116z"/>
	<path class="st1" d="M0,105.5c3.7-6.6,9.6-7.7,16.8-7.6C56,98.1,95.2,98,134.4,98c8.6,0,14.1,6.9,11.9,14.5c-1.4,4.7-5.7,8-11,8
		c-7,0.1-14,0-21,0c-33.1,0-66.2-0.1-99.3,0.1c-7,0.1-12-2-15-8.4C0,110,0,107.8,0,105.5z"/>
	<path class="st1" d="M73.4,64.2c-9.4,0-18.7,0.1-28.1,0C39.5,64,35,60.1,34,54.6c-0.9-5,2.1-10.2,7.1-12.3c1.7-0.7,3.4-0.7,5.1-0.7
		c18.1,0,36.2,0,54.3,0c7.3,0,12.3,4.6,12.4,11.1c0.1,6.6-5.1,11.4-12.6,11.4C91.4,64.2,82.4,64.2,73.4,64.2L73.4,64.2z"/>
	<path class="st1" d="M73.2,176.9c-9.1,0-18.2,0.1-27.3,0c-7-0.1-12-4.7-12-11.1c-0.1-6.3,5-11.4,11.8-11.4
		c18.5-0.1,36.9-0.1,55.4,0c6,0,10.5,3.8,11.5,9.2s-1.8,10.5-7,12.7c-1.8,0.7-3.7,0.7-5.5,0.7C91.2,176.9,82.2,176.9,73.2,176.9z"/>
</g>
<rect x="-415.4" y="-217.7" class="st2" width="224.4" height="182.2"/>
<rect x="-409" y="26.4" class="st3" width="224.4" height="182.2"/>
<rect x="-402.5" y="276.7" class="st1" width="224.4" height="182.2"/>
</svg>
