<?xml version="1.0" encoding="utf-8"?>
<!-- Generator: Adobe Illustrator 26.0.1, SVG Export Plug-In . SVG Version: 6.00 Build 0)  -->
<svg version="1.1" id="Layer_1" xmlns="http://www.w3.org/2000/svg" xmlns:xlink="http://www.w3.org/1999/xlink" x="0px" y="0px"
	 width="361px" height="333px" viewBox="0 0 361 333" style="enable-background:new 0 0 361 333;" xml:space="preserve">
<style type="text/css">
	.st0{fill:#5F22D9;}
	.st1{fill:#FFFFFF;}
	.st2{fill:#9285F4;}
	.st3{display:none;fill:#FEFEFE;}
</style>
<rect x="-593.3" y="-225.7" class="st0" width="320.2" height="229.8"/>
<rect x="-584.1" y="82.2" class="st1" width="320.2" height="229.8"/>
<rect x="-574.9" y="397.8" class="st2" width="320.2" height="229.8"/>
<g>
	<path class="st3" d="M238.5,352.7c-87.1,0-174.2,0-261.3,0c0-123.1,0-246.3-0.1-369.4c0-2.7,0.6-3.3,3.3-3.3
		c123.4,0.1,246.8,0.1,370.1,0c2.7,0,3.3,0.6,3.3,3.3c-0.1,122-0.1,244.1,0,366.1c0,2.7-0.6,3.3-3.3,3.3
		c-34.7-0.1-69.4-0.1-104.2-0.1c4-1.5,8-2.8,11.1-6c4-4.1,8.2-7.9,12-12.1c8.3-9,8.3-20.6-0.4-29.2c-17.8-17.6-35.3-35.4-53.2-52.9
		c-28.5-27.7-56.2-56.3-84.8-83.9c-1.5-1.5-1.5-2.3,0-3.7c6.8-6.3,13.3-13,20-19.4c23.5-22.6,45.9-46.4,69.6-68.8
		c9.8-9.2,19-18.9,28.5-28.5c7.2-7.2,14.5-14.2,21.4-21.7s7-18.5,0.4-26.2c-4.3-4.9-8.9-9.6-13.7-14c-8.8-7.9-20-7.6-28.7,0.6
		C221-6.1,213.6,1.2,206.1,8.4c-19.8,19.3-39.1,39.2-58.9,58.5c-28.5,27.7-56.2,56.2-84.8,84c-9.9,9.6-9.8,21.6,0,31.3
		c6.5,6.5,13.1,12.8,19.7,19.2c23.5,22.6,46,46.3,69.6,68.9c23,22,44.6,45.3,67.8,67C225.5,343.1,230.6,349.6,238.5,352.7z"/>
</g>
<g>
	<path class="st3" d="M360.9,166.5c0,54.3,0,108.7,0.1,163c0,2.3-0.4,3-2.9,3c-108.8-0.1-217.5-0.1-326.3,0c-2.4,0-2.8-0.6-2.8-2.8
		c0.1-108.8,0.1-217.5,0-326.3c0-2.2,0.3-2.9,2.7-2.9c108.9,0.1,217.8,0.1,326.6,0c2.3,0,2.6,0.5,2.6,2.7
		C360.9,57.6,360.9,112.1,360.9,166.5z M163.6,156.5c0-3.1,0-6.3,0-9.4c0-21.5,0.1-42.9,0-64.4c0-8.9-5.8-16.2-14.3-18.6
		c-8.6-2.5-17.4,0.8-22,8.1c-1.1,1.7-1.6,2.5,0.9,3.6c5.9,2.7,10.9,6.9,14.4,12.6c2,3.3,1.6,5.8-0.7,7.4c-2.8,2-5.3,1.5-7.8-1.5
		c-1.4-1.7-2.6-3.8-4.2-5.3c-7.9-7.1-19.5-8-28.8-2.3c-9.6,5.9-14.3,16.5-11.9,26.8c0.5,2.1,1.1,2.8,3.6,2.7c9.1-0.4,16.8,3,23,9.7
		c1.2,1.3,2.1,2.8,1.7,4.7c-0.4,2-1.5,3.6-3.5,4.3c-2.4,0.8-4.2-0.2-5.8-1.9c-5-5.5-11.3-7.5-18.5-5.9c-11.8,2.6-21,13-22.4,25.1
		c-1.6,13.3,4.4,25.1,15.4,31c1.8,0.9,2.6,0.7,3.9-0.8c4.1-4.5,9-8,14.5-10.6c2.1-0.9,4.2-1.7,6.5-1.6c2.6,0.1,4.5,1.5,5,4.2
		c0.4,2.7-0.7,4.6-3.2,5.7c-1.6,0.6-3.3,1.1-4.9,1.7c-10.5,4.2-16.9,14.8-15.6,25.7c1.5,12.1,9.6,20.5,21.3,22.2
		c2.6,0.4,3.6-0.1,4-3c0.9-7.2,4.8-12.6,11.5-15.6c3.5-1.6,6.4-0.7,7.7,2.2c1.3,2.8,0.2,5.3-3.1,7.1c-4.5,2.4-6.6,6.1-6.2,11.1
		c0.4,5.3,2.7,9.7,6.5,13.3c1,1,2.1,1.2,3.5,1.2c6.5-0.1,12.9-0.1,19.4,0c1.4,0,2.4-0.4,3.4-1.3c4.5-4.2,6.7-9.4,6.6-15.5
		C163.6,204.8,163.6,180.6,163.6,156.5z M186.2,153.9c0,29.6,0,59.3-0.1,88.9c0,2.4,0.5,3.1,3,3c6.2-0.2,12.5,0,18.8-0.1
		c2.3,0,5,0.6,6.6-0.4c1.2-0.7,0.8-3.8,1.2-5.8c3.2-16.7,11.4-30.3,24-41.7c21.8-19.7,30.1-44.4,25.3-73.2c-6-35.7-33-61.2-69-66.3
		c-7-1-9.8,1.4-9.8,8.6C186.2,95.9,186.2,124.9,186.2,153.9z M173.5,307.9C173.5,307.9,173.5,307.9,173.5,307.9
		c15.8,0,31.7,0.1,47.5,0c9.8-0.1,16.1-11,11.4-19.5c-1-1.8-2.1-2.5-4.3-2.5c-36.4,0.1-72.8,0.1-109.3,0c-2.4,0-3.5,0.9-4.5,2.8
		c-4.3,8.4,1.8,19.1,11.2,19.2C141.6,308,157.6,307.9,173.5,307.9z M173.5,276.8c18.1,0,36.2-0.1,54.3,0.1c2.6,0,3.9-1,4.9-3.1
		c4.1-8.7-1.9-18.9-11.6-19c-12.4-0.2-24.8-0.1-37.2-0.1c-19.3,0-38.6-0.1-57.9,0.1c-9.6,0.1-15.9,10.4-11.8,19
		c1,2.1,2.3,3.2,4.9,3.1C137.3,276.8,155.4,276.8,173.5,276.8z M137.5,317c1.2,8.1,7.9,14.1,16.1,14.2c13.4,0.1,26.7,0.2,40.1,0
		c7.2-0.1,12.3-4,15.2-10.6c1.5-3.3,1.2-3.6-2.3-3.6c-22.1,0-44.1,0-66.2,0C139.4,317,138.4,317,137.5,317z M255.9,203.3
		c-2.2,0.1-3.9,1.1-4.9,3.2c-1.1,2.2-0.4,4.2,1.2,5.9c7.8,7.8,15.6,15.7,23.5,23.5c2.6,2.5,5.5,2.5,7.7,0.2c2.1-2.2,2.1-5-0.3-7.4
		c-7.7-7.8-15.5-15.5-23.2-23.3C258.8,204.2,257.5,203.4,255.9,203.3z M285.1,45.1c-0.3-2.1-1.3-3.7-3.4-4.6c-2.3-1-4.2-0.2-5.8,1.5
		c-7.8,7.8-15.5,15.5-23.3,23.3c-2.5,2.5-2.6,5.5-0.4,7.7c2.1,2.1,5.1,2.1,7.5-0.2c8-7.8,15.8-15.8,23.7-23.7
		C284.5,47.9,285,46.6,285.1,45.1z M301.8,133.7c-5.4,0-10.8,0-16.2,0c-3.9,0-6.1,1.9-6.1,5.1c0,3.2,2.2,5.2,6,5.3
		c10.7,0,21.3,0,32,0c4,0,6-1.8,6.1-5.1c0-3.3-2-5.2-5.9-5.2C312.4,133.6,307.1,133.7,301.8,133.7z M181,23.4c0,5.3,0,10.5,0,15.8
		c0,4,2,6.3,5.2,6.3c3.1-0.1,5.1-2.3,5.1-6.2c0-10.6,0-21.3,0-31.9c0-3.8-2-6.1-5.2-6.1c-3.2,0-5.2,2.2-5.2,6
		C181,12.6,181,18,181,23.4z"/>
	<path class="st1" d="M163.6,156.5c0,24.1,0,48.3,0,72.4c0,6.2-2.1,11.3-6.6,15.5c-1,0.9-2,1.3-3.4,1.3c-6.5-0.1-12.9-0.1-19.4,0
		c-1.4,0-2.5-0.3-3.5-1.2c-3.8-3.6-6.1-8-6.5-13.3c-0.4-5,1.7-8.7,6.2-11.1c3.4-1.8,4.4-4.3,3.1-7.1c-1.3-2.9-4.2-3.8-7.7-2.2
		c-6.7,3-10.6,8.4-11.5,15.6c-0.3,2.9-1.4,3.4-4,3c-11.7-1.7-19.8-10.1-21.3-22.2c-1.4-10.9,5.1-21.5,15.6-25.7
		c1.6-0.6,3.3-1.1,4.9-1.7c2.5-1,3.7-3,3.2-5.7c-0.5-2.7-2.3-4.1-5-4.2c-2.3-0.1-4.5,0.7-6.5,1.6c-5.6,2.5-10.5,6-14.5,10.6
		c-1.3,1.5-2.2,1.7-3.9,0.8c-11-5.9-17-17.7-15.4-31c1.4-12.1,10.6-22.6,22.4-25.1c7.1-1.6,13.4,0.4,18.5,5.9
		c1.6,1.7,3.4,2.7,5.8,1.9c2-0.7,3.1-2.3,3.5-4.3c0.4-1.9-0.5-3.4-1.7-4.7c-6.2-6.7-13.9-10-23-9.7c-2.4,0.1-3.1-0.6-3.6-2.7
		c-2.4-10.3,2.3-20.9,11.9-26.8c9.3-5.7,20.9-4.8,28.8,2.3c1.7,1.5,2.8,3.5,4.2,5.3c2.5,3.1,5,3.5,7.8,1.5c2.3-1.6,2.7-4.1,0.7-7.4
		c-3.4-5.7-8.4-9.8-14.4-12.6c-2.5-1.2-2-2-0.9-3.6c4.6-7.3,13.4-10.5,22-8.1c8.5,2.4,14.2,9.7,14.3,18.6c0.1,21.5,0,42.9,0,64.4
		C163.6,150.2,163.6,153.4,163.6,156.5z"/>
	<path class="st1" d="M186.2,153.9c0-29,0-58,0-87c0-7.1,2.8-9.5,9.8-8.6c36,5.1,63,30.5,69,66.3c4.9,28.8-3.5,53.5-25.3,73.2
		c-12.6,11.4-20.8,25-24,41.7c-0.4,2-0.1,5-1.2,5.8c-1.6,1-4.3,0.4-6.6,0.4c-6.3,0-12.5-0.1-18.8,0.1c-2.4,0.1-3-0.6-3-3
		C186.2,213.2,186.2,183.5,186.2,153.9z M251.5,136.1c-0.9-17.8-7.7-32.9-20.4-45.4c-6.6-6.4-14.2-11.2-22.9-14.1
		c-3-1-5.5,0.2-6.6,2.9c-1.1,2.7,0,5.3,2.8,6.7c0.7,0.3,1.4,0.6,2.1,0.9c11.9,4.7,20.8,12.7,27.2,23.7c4.9,8.4,7.2,17.4,7.4,27.1
		c0,2.2,0.9,4.1,3,4.9c2,0.7,4.1,0.6,5.7-0.9C251.5,140.3,251.5,138.2,251.5,136.1z"/>
	<path class="st1" d="M173.5,307.9c-15.9,0-31.9,0.1-47.8,0c-9.4-0.1-15.6-10.9-11.2-19.2c1-1.9,2.1-2.8,4.5-2.8
		c36.4,0.1,72.8,0.1,109.3,0c2.2,0,3.3,0.8,4.3,2.5c4.7,8.5-1.6,19.5-11.4,19.5C205.2,308,189.3,307.9,173.5,307.9
		C173.5,307.9,173.5,307.9,173.5,307.9z"/>
	<path class="st1" d="M173.5,276.8c-18.1,0-36.2-0.1-54.3,0.1c-2.6,0-3.9-1-4.9-3.1c-4.1-8.5,2.2-18.9,11.8-19
		c19.3-0.1,38.6-0.1,57.9-0.1c12.4,0,24.8-0.1,37.2,0.1c9.7,0.1,15.8,10.3,11.6,19c-1,2.1-2.3,3.1-4.9,3.1
		C209.7,276.8,191.6,276.8,173.5,276.8z"/>
	<path class="st1" d="M137.5,317c1,0,1.9,0,2.9,0c22.1,0,44.1,0,66.2,0c3.5,0,3.7,0.2,2.3,3.6c-2.9,6.6-8,10.5-15.2,10.6
		c-13.3,0.2-26.7,0.1-40.1,0C145.4,331,138.6,325,137.5,317z"/>
	<path class="st1" d="M255.9,203.3c1.6,0.1,2.8,0.9,4,2c7.7,7.8,15.5,15.5,23.2,23.3c2.4,2.5,2.5,5.2,0.3,7.4
		c-2.2,2.3-5.1,2.4-7.7-0.2c-7.9-7.8-15.7-15.6-23.5-23.5c-1.7-1.7-2.3-3.6-1.2-5.9C252,204.5,253.7,203.5,255.9,203.3z"/>
	<path class="st1" d="M285.1,45.1c-0.1,1.5-0.6,2.8-1.6,3.8c-7.9,7.9-15.8,15.9-23.7,23.7c-2.4,2.4-5.4,2.3-7.5,0.2
		c-2.2-2.2-2.1-5.2,0.4-7.7c7.7-7.8,15.5-15.5,23.3-23.3c1.6-1.6,3.5-2.5,5.8-1.5C283.7,41.4,284.7,43,285.1,45.1z"/>
	<path class="st1" d="M301.8,133.7c5.3,0,10.6,0,15.8,0c3.9,0,6,1.9,5.9,5.2c0,3.3-2.1,5.1-6.1,5.1c-10.7,0-21.3,0-32,0
		c-3.8,0-6.1-2.1-6-5.3c0-3.2,2.2-5,6.1-5.1C291,133.6,296.4,133.7,301.8,133.7z"/>
	<path class="st1" d="M181,23.4c0-5.4,0-10.8,0-16.1c0-3.8,2-6.1,5.2-6c3.1,0,5.1,2.4,5.2,6.1c0,10.6,0,21.3,0,31.9
		c0,3.8-2,6.1-5.1,6.2c-3.3,0.1-5.2-2.2-5.2-6.3C181,33.9,181,28.6,181,23.4z"/>
	<path class="st0" d="M251.5,136.1c0.1,2.1,0.1,4.1-1.6,5.7c-1.7,1.6-3.7,1.7-5.7,0.9c-2.2-0.8-3-2.6-3-4.9
		c-0.2-9.6-2.5-18.7-7.4-27.1c-6.4-11-15.4-19-27.2-23.7c-0.7-0.3-1.4-0.5-2.1-0.9c-2.8-1.4-3.9-4-2.8-6.7c1.1-2.7,3.7-3.9,6.6-2.9
		c8.7,2.9,16.4,7.7,22.9,14.1C243.8,103.2,250.6,118.3,251.5,136.1z"/>
</g>
</svg>
