<?xml version="1.0" encoding="utf-8"?>
<!-- Generator: Adobe Illustrator 26.0.1, SVG Export Plug-In . SVG Version: 6.00 Build 0)  -->
<svg version="1.1" id="Layer_1" xmlns="http://www.w3.org/2000/svg" xmlns:xlink="http://www.w3.org/1999/xlink" x="0px" y="0px"
	 width="390.6px" height="394.5px" viewBox="0 0 390.6 394.5" style="enable-background:new 0 0 390.6 394.5;" xml:space="preserve"
	>
<style type="text/css">
	.st0{display:none;fill:#FDFDFD;}
	.st1{fill:#5F22D9;}
	.st2{fill:#5F22D9;stroke:#000000;stroke-miterlimit:10;}
	.st3{fill:#FFFFFF;stroke:#000000;stroke-miterlimit:10;}
	.st4{fill:#9285F4;stroke:#000000;stroke-miterlimit:10;}
</style>
<g>
	<path class="st0" d="M381.2,199.6c0,62.8,0,125.7,0.1,188.5c0,2.5-0.4,3.1-3,3.1c-125.9-0.1-251.9-0.1-377.8,0
		c-2.9,0-3.2-0.8-3.2-3.3c0.1-125.8,0.1-251.6,0-377.4c0-2.6,0.4-3.3,3.2-3.3c125.8,0.1,251.6,0.1,377.4,0c3,0,3.4,0.8,3.4,3.5
		C381.2,73.7,381.2,136.7,381.2,199.6z M174.9,297.1c0-2.3,0-3.7,0-5c0-61.1,0-122.2,0-183.3c0-9.3,6.8-16.6,15.3-16.5
		c8.3,0.1,15.1,7.6,15,16.3c-0.4,34.2-0.1,68.5-0.2,102.7c0,3.6,1.1,4.3,4.4,4.2c7-0.2,14-0.3,21,0c3.6,0.1,4.8-0.6,4.8-4.6
		c-0.2-31.7-0.1-63.5-0.1-95.2c0-7.6-0.1-15.2,0-22.9c0.2-10.5,10.1-18,19.8-15.1c6.7,2,10.8,8,10.8,15.8c0,41.6,0,83.2-0.1,124.8
		c0,3,1,3.8,3.7,4c4,0.2,8,0.5,12,0.9c16,1.4,32.1,2.6,48.1,4.2c8.1,0.8,12.8,6.3,12.7,14.4c-0.2,14.6-1.4,29.2-3.9,43.6
		c-4.4,25.1-12.3,49-23.7,71.8c-1.2,2.5-0.9,3.5,1.6,4.6c6.9,3.2,13.6,6.8,20.4,10.2c4.3,2.2,4.4,2.2,6.6-2.1
		c20.2-41.4,30.7-85,30-131.1c-0.3-20-14.9-37.3-34.6-41.1c-12.4-2.4-25.1-2.6-37.6-3.6c-3.5-0.3-3.9-1.5-3.9-4.4
		c0.1-31.7,0.1-63.5,0.1-95.2c0-3.8,0-7.5-0.9-11.2c-4.7-19.3-16.5-31.8-36-35.8c-18.9-3.8-34.3,3.2-45.9,18.4
		c-1.3,1.8-2.1,2-4.1,0.9c-9.7-5.2-19.9-7.2-30.7-4.4c-21.5,5.5-35.7,23.7-35.8,45.9c-0.1,36.9,0,73.7,0,110.6c0,1.3,0,2.6,0,4.3
		c-11.2-7.2-22.7-10.5-35.4-8.4c-18.5,3-31.8,13-38.1,30.7c-6.4,17.7-3.3,34.4,9.7,47.9c26.9,27.9,54.5,55.1,81.7,82.6
		c1.7,1.7,2.4,1.1,3.8-0.2c5.6-5.7,11.2-11.4,17-16.9c2.3-2.1,2.1-3.2,0-5.4c-26.2-26.1-52.4-52.2-78.5-78.4
		c-7.5-7.5-8.1-17.8-1.4-24.7c6.9-7.2,17.8-7.1,25.4,0.3c5.3,5.1,10.5,10.3,15.8,15.5C153.8,276.4,164,286.5,174.9,297.1z
		 M51.8,162.3c-6.2-6.3-12-11.9-17.6-17.7c-1.5-1.6-2.4-1.9-4.1-0.1c-5.8,6-11.7,11.9-17.7,17.8c-1.5,1.4-1.6,2.2-0.1,3.8
		c17.6,17.5,35.2,35.1,52.7,52.7c1.6,1.6,2.4,1.8,4.1,0.1c17.5-17.6,35.1-35.2,52.8-52.7c1.8-1.8,1.3-2.6-0.2-4.1
		c-5.7-5.6-11.4-11.2-16.9-17c-2-2.2-3.2-2.1-5.2,0c-5.3,5.7-10.9,11.1-16.9,17.1c0-31.6,0-62.3,0-93.8c6.2,6.2,11.9,11.9,17.6,17.7
		c1.4,1.5,2.3,1.7,3.8,0.1c5.8-6,11.7-11.9,17.8-17.8c1.7-1.6,1.6-2.4,0-4.1c-17.6-17.4-35.1-34.9-52.5-52.5c-1.8-1.8-2.6-1.7-4.4,0
		C47.5,29.4,30,46.9,12.4,64.3c-1.6,1.6-1.7,2.5,0,4.1c5.5,5.3,10.8,10.7,16.2,16.1c3.4,3.4,3.4,3.4,6.9-0.1
		c5.2-5.2,10.5-10.5,16.2-16.3C51.8,99.8,51.8,130.6,51.8,162.3z"/>
	<path class="st1" d="M174.9,297.1c-10.9-10.7-21.2-20.7-31.4-30.8c-5.3-5.2-10.5-10.4-15.8-15.5c-7.6-7.4-18.6-7.5-25.4-0.3
		c-6.6,6.9-6.1,17.2,1.4,24.7c26.1,26.2,52.3,52.3,78.5,78.4c2.2,2.2,2.3,3.2,0,5.4c-5.8,5.5-11.4,11.2-17,16.9
		c-1.3,1.3-2.1,1.9-3.8,0.2c-27.2-27.6-54.8-54.8-81.7-82.6c-13-13.5-16-30.2-9.7-47.9c6.4-17.8,19.6-27.7,38.1-30.7
		c12.7-2,24.2,1.2,35.4,8.4c0-1.7,0-3,0-4.3c0-36.9-0.1-73.7,0-110.6c0-22.2,14.3-40.4,35.8-45.9c10.8-2.8,21.1-0.8,30.7,4.4
		c2,1.1,2.7,0.8,4.1-0.9c11.6-15.2,27-22.2,45.9-18.4c19.4,3.9,31.3,16.5,36,35.8c0.9,3.7,0.9,7.4,0.9,11.2c0,31.7,0,63.5-0.1,95.2
		c0,3,0.4,4.2,3.9,4.4c12.6,1,25.2,1.2,37.6,3.6c19.6,3.8,34.3,21.1,34.6,41.1c0.6,46.1-9.8,89.7-30,131.1c-2.1,4.3-2.2,4.3-6.6,2.1
		c-6.8-3.4-13.5-7-20.4-10.2c-2.5-1.2-2.8-2.2-1.6-4.6c11.4-22.8,19.3-46.7,23.7-71.8c2.5-14.4,3.8-29,3.9-43.6
		c0.1-8-4.6-13.6-12.7-14.4c-16-1.6-32.1-2.8-48.1-4.2c-4-0.3-8-0.7-12-0.9c-2.7-0.1-3.7-1-3.7-4c0.1-41.6,0.1-83.2,0.1-124.8
		c0-7.8-4.1-13.7-10.8-15.8c-9.7-3-19.6,4.5-19.8,15.1c-0.1,7.6,0,15.2,0,22.9c0,31.7-0.1,63.5,0.1,95.2c0,4-1.2,4.7-4.8,4.6
		c-7-0.3-14-0.2-21,0c-3.3,0.1-4.4-0.6-4.4-4.2c0.2-34.2-0.1-68.5,0.2-102.7c0.1-8.6-6.7-16.2-15-16.3c-8.5-0.1-15.3,7.2-15.3,16.5
		c0,61.1,0,122.2,0,183.3C174.9,293.5,174.9,294.8,174.9,297.1z"/>
	<path class="st1" d="M51.8,162.3c0-31.8,0-62.5,0-94.2C41.5,81.4,37.3,84.5,35.5,84.4c-0.1,0-1.1-0.1-2.5-0.1c-2.4,0-4,0.1-4.4,0.2
		c-6,0.4-15.7-13.1-16.2-16.1c-0.2-1-0.2-1.9-0.2-1.9s0-1.1,0.2-2.1c0.7-4.1,47.8-51,52.5-52.5c1.1-0.3,2.2-0.4,2.2-0.4
		s1.1,0,2.2,0.3c4.8,1.5,50.1,47.6,52.5,52.5c0.4,0.8,0.5,1.7,0.5,1.7c0.1,1.2-0.3,2.1-0.5,2.4c-1.8,4.1-14.5,18-17.8,17.8
		c-0.1,0-0.7-0.1-1.5-0.1c-1.3,0-2.2,0-2.3,0c-1.1,0-5.8-4.3-18.5-18.2c0.3,31.5,0.6,62.9,0.9,94.4c8.2-9.8,15-16.3,16.9-17.1
		c1.6-0.6,3.1-0.5,3.1-0.5s1,0.1,2.1,0.5c4.8,1.9,15.7,13.4,16.9,17c0.4,1.1,0.4,2.1,0.4,2.1s0,1-0.2,2c-1,4.2-48.6,52.2-52.8,52.7
		c-1,0.1-2,0.1-2,0.1s-1,0-2.1-0.2c-4.2-0.7-52-48.8-52.7-52.7c-0.2-0.9-0.2-1.9-0.2-1.9s0-0.9,0.2-1.9c0.8-3.5,13.6-16,17.7-17.8
		c0.3-0.1,1.1-0.5,2.1-0.4c0,0,1,0,2,0.5C35.6,145.4,42.6,152.4,51.8,162.3z"/>
</g>
<rect x="-550.3" y="-207.6" class="st2" width="320.2" height="229.8"/>
<rect x="-541.1" y="100.3" class="st3" width="320.2" height="229.8"/>
<rect x="-531.9" y="415.9" class="st4" width="320.2" height="229.8"/>
</svg>
