<?xml version="1.0" encoding="utf-8"?>
<!-- Generator: Adobe Illustrator 26.0.1, SVG Export Plug-In . SVG Version: 6.00 Build 0)  -->
<svg version="1.1" id="Layer_1" xmlns="http://www.w3.org/2000/svg" xmlns:xlink="http://www.w3.org/1999/xlink" x="0px" y="0px"
	 width="361px" height="333px" viewBox="0 0 361 333" style="enable-background:new 0 0 361 333;" xml:space="preserve">
<style type="text/css">
	.st0{fill:#5F22D9;}
	.st1{fill:#FFFFFF;}
	.st2{fill:#9285F4;}
	.st3{display:none;fill:#FEFEFE;}
</style>
<rect x="-593.3" y="-225.7" class="st0" width="320.2" height="229.8"/>
<rect x="-584.1" y="82.2" class="st1" width="320.2" height="229.8"/>
<rect x="-574.9" y="397.8" class="st2" width="320.2" height="229.8"/>
<g>
	<path class="st3" d="M238.5,352.7c-87.1,0-174.2,0-261.3,0c0-123.1,0-246.3-0.1-369.4c0-2.7,0.6-3.3,3.3-3.3
		c123.4,0.1,246.8,0.1,370.1,0c2.7,0,3.3,0.6,3.3,3.3c-0.1,122-0.1,244.1,0,366.1c0,2.7-0.6,3.3-3.3,3.3
		c-34.7-0.1-69.4-0.1-104.2-0.1c4-1.5,8-2.8,11.1-6c4-4.1,8.2-7.9,12-12.1c8.3-9,8.3-20.6-0.4-29.2c-17.8-17.6-35.3-35.4-53.2-52.9
		c-28.5-27.7-56.2-56.3-84.8-83.9c-1.5-1.5-1.5-2.3,0-3.7c6.8-6.3,13.3-13,20-19.4c23.5-22.6,45.9-46.4,69.6-68.8
		c9.8-9.2,19-18.9,28.5-28.5c7.2-7.2,14.5-14.2,21.4-21.7c6.9-7.5,7-18.5,0.4-26.2c-4.3-4.9-8.9-9.6-13.7-14
		c-8.8-7.9-20-7.6-28.7,0.6c-7.5,7.1-14.9,14.4-22.4,21.6c-19.8,19.3-39.1,39.2-58.9,58.5c-28.5,27.7-56.2,56.2-84.8,84
		c-9.9,9.6-9.8,21.6,0,31.3c6.5,6.5,13.1,12.8,19.7,19.2c23.5,22.6,46,46.3,69.6,68.9c23,22,44.6,45.3,67.8,67
		C225.5,343.1,230.6,349.6,238.5,352.7z"/>
</g>
<g>
	<path class="st3" d="M180.1,357.4c-66.1,0-132.3,0-198.4,0.1c-2.5,0-3.2-0.4-3.2-3.1c0.1-125.6,0.1-251.1,0-376.7
		c0-2.9,0.8-3.3,3.4-3.3c132.4,0.1,264.8,0.1,397.2,0c2.6,0,3.4,0.4,3.4,3.3c-0.1,125.4-0.1,250.9,0,376.3c0,3-0.8,3.5-3.6,3.5
		C312.7,357.4,246.4,357.4,180.1,357.4z M180.5,326.9C180.5,326.9,180.5,326.8,180.5,326.9c38.2,0,76.3,0.3,114.5-0.1
		c20.3-0.2,36.2-9.6,47.3-26.5c5.3-8,7.3-17.2,7.3-26.9c0-19.6,0-39.2,0-58.8c0-51.4,0.1-102.9,0-154.3c0-12.5-3.4-23.7-11.8-33.6
		C325.5,12.2,310,5.9,291.5,5.9c-73.7,0-147.3,0-221,0c-4,0-7.9,0.1-11.8,0.7c-21.6,3.7-36.3,16.1-44.6,36.2
		c-2.3,5.7-2.7,11.8-2.7,18c0,70.3,0.1,140.6-0.1,210.9c0,14.1,4.7,26.1,13.8,36.3c11.4,12.8,26.1,18.9,43.2,18.9
		C105.7,326.9,143.1,326.9,180.5,326.9z"/>
	<path class="st1" d="M180.5,326.9c-37.4,0-74.8,0-112.2,0c-17.1,0-31.9-6.1-43.2-18.9c-9.1-10.2-13.8-22.2-13.8-36.3
		c0.2-70.3,0.1-140.6,0.1-210.9c0-6.2,0.4-12.3,2.7-18c8.3-20.1,23-32.4,44.6-36.2c3.9-0.7,7.8-0.7,11.8-0.7c73.7,0,147.3,0,221,0
		c18.5,0,34,6.3,46.3,20.7c8.4,9.9,11.8,21.1,11.8,33.6c0.1,51.4,0,102.9,0,154.3c0,19.6,0,39.2,0,58.8c0,9.6-2.1,18.9-7.3,26.9
		c-11.1,16.9-27,26.3-47.3,26.5C256.8,327.1,218.7,326.8,180.5,326.9C180.5,326.8,180.5,326.9,180.5,326.9z M284.8,258.1
		c-2.1-3.1-4.3-5.3-6-7.6c-9.7-13.5-19.6-27-29.8-40.1c-4.7-6.1-9-12.5-13.6-18.6c-10.2-13.6-20-27.6-30.6-40.9
		c-1.8-2.3-1.3-3.7,0.5-5.3c6.6-5.5,11.3-12.8,17.4-18.9c6.5-6.5,12.2-13.9,18.5-20.6c7.8-8.5,15.3-17.2,22.9-25.9
		c1.5-1.7,4-2.5,4.7-5.4c-5.9,0-11.6,0.1-17.3-0.1c-2-0.1-3.2,0.7-4.5,2.2c-8.9,10.2-17.9,20.2-27.1,30.1
		c-7.9,8.5-15.6,17.4-23.1,26.3c-1.8,2.1-2.9,2.4-4.6,0.4c-0.5-0.6-1-1.1-1.4-1.7c-4.9-6.4-9.3-13.2-14.4-19.5
		c-8.8-11.2-17-23.1-25.3-34.7c-1.4-2-2.9-3-5.5-3c-19.1,0.1-38.2,0.1-57.2,0.1c-1.1,0-2.1,0-3.4,0c1.5,3.8,4.4,5.9,6.5,8.7
		c4.8,6.5,9.3,13.2,14.3,19.6c6.4,8,11.9,16.7,18.3,24.7c3.7,4.6,7.1,9.5,10.6,14.3c7.5,10.4,15.5,20.3,22.8,30.9
		c1.2,1.8,1,2.7-0.3,4.1c-3.6,3.9-7.2,7.8-10.7,11.7c-9.6,10.7-19.2,21.5-29,32c-8.7,9.4-17,19.2-25.4,28.8
		c-2.4,2.8-5.8,4.7-7.6,8.6c6.3,0,12.2,0,18.2,0c1.6,0,2.7-0.9,3.8-2.1c4.8-5.4,9.5-10.9,14.3-16.2c9.8-10.7,19.3-21.7,29.2-32.3
		c5.6-6,10.6-12.5,16.4-18.4c1.3-1.3,1.8-2,3.2,0c8.3,11.3,16.8,22.4,25.1,33.6c8.2,11.1,16.3,22.3,24.3,33.5c1,1.4,2,1.9,3.7,1.9
		c5.3-0.1,10.7,0,16,0C253.9,258.1,269,258.1,284.8,258.1z"/>
	<path class="st0" d="M284.8,258.1c-15.8,0-30.9,0-46,0c-5.3,0-10.7-0.1-16,0c-1.7,0-2.7-0.5-3.7-1.9c-8-11.2-16.1-22.4-24.3-33.5
		c-8.3-11.3-16.8-22.4-25.1-33.6c-1.4-1.9-2-1.2-3.2,0c-5.8,5.9-10.8,12.4-16.4,18.4c-9.9,10.7-19.4,21.7-29.2,32.3
		c-4.9,5.3-9.5,10.8-14.3,16.2c-1.1,1.2-2.2,2.1-3.8,2.1c-5.9,0-11.9,0-18.2,0c1.9-3.9,5.2-5.8,7.6-8.6c8.4-9.7,16.7-19.4,25.4-28.8
		c9.8-10.6,19.4-21.3,29-32c3.5-3.9,7.1-7.9,10.7-11.7c1.3-1.4,1.5-2.4,0.3-4.1c-7.3-10.5-15.3-20.5-22.8-30.9
		c-3.4-4.8-6.9-9.6-10.6-14.3c-6.4-8-11.9-16.7-18.3-24.7c-5-6.3-9.5-13.1-14.3-19.6c-2.1-2.8-5-4.9-6.5-8.7c1.2,0,2.3,0,3.4,0
		c19.1,0,38.2,0.1,57.2-0.1c2.7,0,4.1,1,5.5,3c8.3,11.7,16.4,23.5,25.3,34.7c5,6.4,9.4,13.1,14.4,19.5c0.5,0.6,0.9,1.2,1.4,1.7
		c1.7,2,2.8,1.7,4.6-0.4c7.5-8.9,15.2-17.7,23.1-26.3c9.2-9.9,18.2-20,27.1-30.1c1.3-1.5,2.5-2.2,4.5-2.2c5.7,0.1,11.4,0.1,17.3,0.1
		c-0.7,2.9-3.2,3.7-4.7,5.4c-7.6,8.7-15.1,17.4-22.9,25.9c-6.3,6.8-12,14.1-18.5,20.6c-6.1,6.1-10.8,13.4-17.4,18.9
		c-1.9,1.6-2.4,3-0.5,5.3c10.7,13.3,20.4,27.3,30.6,40.9c4.6,6.2,8.9,12.5,13.6,18.6c10.2,13.1,20.1,26.6,29.8,40.1
		C280.5,252.8,282.7,255,284.8,258.1z M253.5,242.8c-0.4-2.7-2.7-3.5-3.9-5.2c-5.5-8-11.2-15.9-17.3-23.5c-4.2-5.3-8.1-11-12.1-16.4
		c-10.1-13.5-20-27.3-30.4-40.7c-4.6-5.9-8.5-12.2-13.3-17.9c-5.7-6.8-10.4-14.3-15.7-21.3c-6.5-8.6-13-17.1-19.2-25.9
		c-0.6-0.8-0.9-1.9-2.2-1.9c-7.8,0-15.6,0-23.5,0c0.9,3.2,3.4,4.5,4.9,6.6c9.3,13.2,18.9,26.2,28.9,38.9c5,6.4,9.2,13.3,14.4,19.5
		c5.5,6.6,9.8,14.1,15.4,20.7c5.2,6.2,9.2,13.3,14.5,19.4c5.2,6.1,9.5,13,14.4,19.5c6.6,8.7,13.1,17.4,19.4,26.2
		c0.7,1,1.2,2.1,2.9,2.1C238.1,242.8,245.7,242.8,253.5,242.8z"/>
	<path class="st1" d="M253.5,242.8c-7.7,0-15.3,0-22.9,0c-1.6,0-2.2-1.1-2.9-2.1c-6.3-8.8-12.9-17.5-19.4-26.2
		c-4.9-6.4-9.2-13.4-14.4-19.5c-5.3-6.2-9.2-13.3-14.5-19.4c-5.6-6.6-9.8-14.1-15.4-20.7c-5.2-6.2-9.4-13.1-14.4-19.5
		c-10-12.7-19.6-25.7-28.9-38.9c-1.5-2.1-4-3.4-4.9-6.6c7.9,0,15.7,0,23.5,0c1.3,0,1.6,1.1,2.2,1.9c6.2,8.8,12.8,17.3,19.2,25.9
		c5.3,7.1,10.1,14.6,15.7,21.3c4.8,5.7,8.7,12.1,13.3,17.9c10.4,13.4,20.2,27.1,30.4,40.7c4.1,5.4,7.9,11.1,12.1,16.4
		c6.1,7.6,11.8,15.5,17.3,23.5C250.8,239.3,253.1,240.1,253.5,242.8z"/>
</g>
</svg>
